<svg xmlns="http://www.w3.org/2000/svg" viewBox="0 0 424.1 134.9"><defs><style>.cls-1{fill:#1587cf}</style></defs><g id="Layer_2" data-name="Layer 2"><g id="Layer_1-2" data-name="Layer 1"><path d="M5.8 29.7c.4 0 .6.4.8 1a4.4 4.4 0 00.3 1l.6.1h2l1-.3.3.4a1 1 0 01.2.7.8.8 0 01-.2.4l-.2.4H9.1l-1.5-.1a.8.8 0 00-.3 0L7 34a31.2 31.2 0 00.1 3.9l.4 6-1.1.3-1-.3-.3-2.2-.1-2.3v-5.2a2.2 2.2 0 00-.2-.6A1 1 0 004 33l-.6.2h-.7a2.3 2.3 0 01-1.4-.2l-.2-.3v-.3a.6.6 0 010-.5l.3-.2a15.2 15.2 0 011.6 0 15 15 0 001.6 0l.1-.2v-.8a.8.8 0 01.2-.4l.4-.2a1.2 1.2 0 00.5-.4zM22.4 29.1l.2 4.2.4 5.9a7.4 7.4 0 010 2 1.3 1.3 0 01-.7.8c-.4 0-.7-.3-1-1a5.6 5.6 0 01-.2-1.4 5.3 5.3 0 01.2-1.8 20.5 20.5 0 00-2.6.3l-2 .4a13.2 13.2 0 01-2.2-.2v1.3a10.3 10.3 0 010 1v3l-1.3.1-.3-2.7v-2.6a5.3 5.3 0 00-1.2.2l-.5.2-.3-.1-.7-.6a2.7 2.7 0 011.2-1.5l1.1-.3a5.3 5.3 0 00.2-1.4v-2.4l-.2-1.8c0-.5.3-.8.9-.8a1 1 0 01.5 0 .7.7 0 01.4.5l-.2.5v.5a2 2 0 00.1.6l.1.6V36l2-.1a4.8 4.8 0 001.2-.2l2.1-.3a2 2 0 01.6 0l1 .3a24.8 24.8 0 010-2.6l.2-1.7v-.6a2.5 2.5 0 00-.1-.4 1.7 1.7 0 00-.1-.5 4 4 0 00-.3-.6v-.2l.8-.3zM30.3 28.4c1 0 1.8.7 2.6 2.3a24.4 24.4 0 011.8 4.3l1.7 6.3v.5a1 1 0 01-.3.5 1 1 0 01-.3.2h-.3a1.7 1.7 0 01-.5 0h-.4v-1.6a3.4 3.4 0 00-.4-1.8 1.6 1.6 0 00-1.5-.5 12.6 12.6 0 00-3.9.5 2.5 2.5 0 00-1 1.6 5 5 0 01-1.5 2.1l-.4.2h-.4a.5.5 0 01-.4-.1 1.4 1.4 0 010-.5 5.7 5.7 0 01.2-2q.7-2.2 1.3-5.4l.6-2.7a8 8 0 011-2.6 2.8 2.8 0 012.1-1.3zm-1.8 7.7l.8-.1.4-.1h1.2a2.4 2.4 0 00.8-.2A6 6 0 0033 35a12 12 0 00-1-2.8c-.5-1-.8-1.5-1-1.5h-.4q-1.2 0-1.3 2.2a8.7 8.7 0 01-.7 3.2zM39.7 28c.4 0 .6.3.8 1a4.4 4.4 0 00.3 1h2.6l1-.2.3.3a1 1 0 01.2.7.8.8 0 01-.2.5l-.2.3h-2.9a1 1 0 00-.4 0c-.1 0-.2.2-.2.5a31.2 31.2 0 000 4l.4 5.8-1.1.5-1-.3-.2-2.3-.2-2.2-.1-3.1v-2.2a2.2 2.2 0 000-.6 1 1 0 00-1-.4l-.5.1-.7.1a2.3 2.3 0 01-1.3-.3l-.3-.3v-.3a.6.6 0 010-.5l.4-.2a15.2 15.2 0 011.5 0h1.6a.1.1 0 00.1-.2V29a.8.8 0 01.2-.4s.1-.2.4-.2a1.2 1.2 0 00.5-.4zM65.6 40.8a1.5 1.5 0 01-.5.2 2 2 0 01-.6 0l-.6-.3a4.7 4.7 0 01-1.4-2.5l-.7-3a4 4 0 00-1.7-2.3c-.2 0-.6.7-1.2 2.3A120 120 0 0157 40c-.3.7-.7 1-1.3 1.1a1 1 0 01-.5-.2 1.8 1.8 0 01-.5-.6 36.9 36.9 0 01-1.5-4.4 38.7 38.7 0 00-1.4-4.3l-.6-1.3a3.1 3.1 0 00-.1-.5v-.3a1.7 1.7 0 01.2-.8l.3-.3.6-.5.3-.1c.6 0 1.1.7 1.4 2.3l.3 2.2.5 2.7c.3 1.2.7 1.9 1.1 1.9a1 1 0 00.5-.2 25.6 25.6 0 001.1-2.7 15.4 15.4 0 011.4-2.8 3.7 3.7 0 011.5-1.5l.8-.3c.5 0 .9.4 1.2 1.3l1.5 4a15.4 15.4 0 001.2 3 1.4 1.4 0 00.3.2c.6 0 1-1.4 1.3-4a31.8 31.8 0 00.3-4.9 3.3 3.3 0 00-.3-1.4c.2-.7.6-1.1 1.2-1.2h.6a.8.8 0 01.7.6 5 5 0 01.3.9l-.3 4.4-1 4.1a14.4 14.4 0 01-.8 2.5 4.8 4.8 0 01-1.7 2zM76.7 26c1.4-.2 2.8.6 4 2.2a9.6 9.6 0 012.2 5.6c.1 1.7-.8 3.3-2.8 4.7a10.6 10.6 0 01-5.5 2 2.9 2.9 0 01-2.8-2 9.2 9.2 0 01-.8-3.6 10.8 10.8 0 011.2-5.8 5.4 5.4 0 014.5-3.2zm-2.4 8.7a.8.8 0 010 .1l-.2.5a1.4 1.4 0 00-.2.7 1.7 1.7 0 00.6 1l.8.4a3 3 0 001 .2l.8-.1c.8-.1 1.4-.8 2-2a6.4 6.4 0 00.8-3 4.6 4.6 0 00-.9-2.6 2.6 2.6 0 00-2.3-1.2h-.3c-.8 0-1.4.7-1.7 2a13.2 13.2 0 00-.4 4zM95.7 25.6l.7 2.7V33a8.4 8.4 0 01-1.5 4.5 5.2 5.2 0 01-4 2.2 4.7 4.7 0 01-4.5-2 15 15 0 01-1.6-5l-.7-6.2a.6.6 0 01.3-.7 2.3 2.3 0 00.4-.1l.5-.2.6.2a1.2 1.2 0 01.6.3v2l.1 2.5a14.5 14.5 0 00.9 5 5 5 0 00.7 1.3 2.5 2.5 0 002.2.9 2.7 2.7 0 001.8-.7 7.8 7.8 0 001.1-1.7 9.3 9.3 0 001-5 14.4 14.4 0 00-.5-3 10.8 10.8 0 00-.3-1.2l.2-.5a.8.8 0 01.5-.2l.6-.1a.9.9 0 01.6.1zM100.1 25l.6-.3a1.1 1.1 0 00.2 0l.3-.1h.4q.4 0 .5.8a2.1 2.1 0 010 .6 9 9 0 01-.3 1 2 2 0 01-.2.6l-.3 1.5-.5 3a11.6 11.6 0 00-.1 2.5 1.6 1.6 0 001 1.5 6.2 6.2 0 002.6.3 15.1 15.1 0 003-.4 5.4 5.4 0 00.7-.2l.3.2a1.2 1.2 0 01.2.5 1 1 0 010 .4l-.3.4a16.4 16.4 0 01-6.9 1.7h-.5a6.3 6.3 0 01-1.5 0 1 1 0 01-.6-.7l-.1-5.2a19.5 19.5 0 01.2-2.1c.1-1.5.3-2.8.5-3.7a7.2 7.2 0 01.8-2.4zM109.2 24.2l4.5.4a16.8 16.8 0 014.8.8 3.9 3.9 0 012.5 3.7 9.2 9.2 0 01-.3 3.4 5.5 5.5 0 01-2.1 2.7l-5.2 3.2-3.4.2-.3-1.9a13.7 13.7 0 01-.2-1.7l-.1-1.8a22 22 0 01-.2-1.7V27.8a15.5 15.5 0 010-1.8v-1.8zm2.2 2.3v7.8l.1.7a11.8 11.8 0 00.3 1.7l2.4-.6 3.3-2.5c.5-.5.9-2 1.2-4.4a1.6 1.6 0 00-1.1-1.4 9.6 9.6 0 00-2.2-.5 10.3 10.3 0 01-2-.5zM132.6 23a2.8 2.8 0 012.2 1 3.7 3.7 0 011.1 2.3 3.5 3.5 0 01-1.3 3l-2.7 2.3 4.4 2.7a2.4 2.4 0 01.5 1.3 1.6 1.6 0 01-1 1 2 2 0 01-1.5-.7l-2.1-1.8a17.6 17.6 0 00-2.4-1.7l.4 4.6-1 .5-1-1-.3-7.5a6.3 6.3 0 011.1-4 4.5 4.5 0 013.6-2zm-3.1 5.4l.2 1.7a4.4 4.4 0 002.6-1.1 6.3 6.3 0 001.7-2.3 3.5 3.5 0 00-.5-1q-.5-.8-1-.7a3.4 3.4 0 00-2 1 2.8 2.8 0 00-1 2.4z" transform="translate(-1 -2.9)"/><path d="M143.8 22.1c1.4 0 2.1.3 2.2 1l-.4 1a14.1 14.1 0 01-3.4 1 1.6 1.6 0 00-1.3 1 3.4 3.4 0 00-.1 1.5l.2 1.8a27.3 27.3 0 014.7-1.3c.6 0 1 .1 1 .6a3 3 0 01-.2 1l-3.3 1.2c-1.6.5-2.4 1-2.3 1.6a3.4 3.4 0 00.4 1.7 1.5 1.5 0 001.5.7 16.3 16.3 0 002.4-.4 19 19 0 012.4-.5c1.1 0 1.7.2 1.8 1s.1.1.1.2a.4.4 0 010 .3 1.7 1.7 0 01-1 .4l-2.5.6-1.5.3-.8.1h-2.5a2.6 2.6 0 01-1.2-.2 1.2 1.2 0 01-.3-.2l-.2-.2-.3-.4-.2-2.7q0-1.4-.4-1.4l-.5.2a3.2 3.2 0 01-.6.1 2.6 2.6 0 01-1.6-.5l-.1-1.3c.2 0 .3-.2.3-.4s.8-.3 2.4-.4l-.2-2-.2-1.7a2.6 2.6 0 011-2.6 5.8 5.8 0 012.8-.8l2-.3zM155.8 22a7.7 7.7 0 014.4 1.3q2.5 1.5 2.6 3.6a6.3 6.3 0 01-1.1 4.1 10 10 0 01-3.1 3l-1.6.9V35.5a4.5 4.5 0 001 2.3v.2l.1.3c0 .5-.4.8-1.2.9-.3 0-.5-.2-.6-.5a2.9 2.9 0 01-.2-.4l-.1-.6a6 6 0 00-2.7-2.6l-3-1.3q-1.1-.9-1.3-3.4a8.4 8.4 0 011.7-5.7 6.5 6.5 0 015-2.7zm-4.9 8a4 4 0 001 2.5 8 8 0 002.2 1.6l.3-.6c.1-1 .3-1.6.5-1.6s.8.5 1.4 1.6a7.5 7.5 0 003.3-2.5 6 6 0 001-3.9 2.8 2.8 0 00-1.5-2.3 5 5 0 00-2.8-.7 5.4 5.4 0 00-3.9 1.8 5.5 5.5 0 00-1.5 4zM175.7 21.3l.6 2.7.1 4.6A8.5 8.5 0 01175 33a5.2 5.2 0 01-4.1 2.1 4.6 4.6 0 01-4.4-2 14.8 14.8 0 01-1.7-4.8L164 22a.6.6 0 01.4-.6l.3-.2.5-.1.7.1a1.2 1.2 0 01.6.4V26a14.5 14.5 0 00.9 5 5 5 0 00.7 1.3 2.5 2.5 0 002.2 1 2.7 2.7 0 001.8-.8 7.8 7.8 0 001.2-1.7 9.3 9.3 0 00.9-5 14.4 14.4 0 00-.5-3 10.8 10.8 0 00-.3-1.2l.2-.4a.8.8 0 01.6-.3h.5a.9.9 0 01.7 0zM182.6 20.2h1.9a1.1 1.1 0 01.2.5c0 .1-.4.4-1.2.7a1.7 1.7 0 00-1.1 2v.5l.3 2.3v1.4l.3 1.8a9.9 9.9 0 00.2 1.7l.3 1a3.3 3.3 0 011.4.3c.3.1.6.3.6.6a2 2 0 01-.4 1l-.2.3a.6.6 0 01-.3.3l-.8-.3a4.2 4.2 0 00-.7-.1l-1.8.2a1.9 1.9 0 01-2-.8.8.8 0 01.6-1 7.2 7.2 0 011.5-.2h.5c0-.5 0-1.3-.2-2.3s-.1-1.8-.2-2.3l-.4-3-.2-1.1a3.5 3.5 0 01.3-1.4h-1.3l-1.5.1c-.5 0-.7 0-.7-.2a1 1 0 000-.1.5.5 0 01.1-.2l.3-.6a4.4 4.4 0 012.4-.7l1-.1a4.7 4.7 0 001-.3zM191.8 19.8a2.8 2.8 0 012.1 1 3.8 3.8 0 011.2 2.3 3.5 3.5 0 01-1.4 3l-2.6 2.3 4.3 2.8a2.5 2.5 0 01.6 1.2 1.5 1.5 0 01-1.2 1 2 2 0 01-1.4-.7l-2-1.7a16.5 16.5 0 00-2.4-1.8l.4 4.6-1.1.6-.9-1.1-.4-7.4a6.3 6.3 0 011.1-4.2 4.5 4.5 0 013.7-2zm-3.2 5.4l.2 1.7a4.3 4.3 0 002.6-1 6.2 6.2 0 001.7-2.3 3.5 3.5 0 00-.5-1.1c-.3-.5-.6-.7-.9-.7a3.5 3.5 0 00-2 1.1 2.7 2.7 0 00-1 2.3z" transform="translate(-1 -2.9)"/><path d="M203 19c1.4 0 2.1.2 2.2 1l-.4 1a13.7 13.7 0 01-3.4 1 1.5 1.5 0 00-1.3.9 3.4 3.4 0 00-.1 1.6c.1 1.9.2 2.5.2 1.8a26.8 26.8 0 014.7-1.4c.6 0 1 .2 1 .7a3.7 3.7 0 01-.3 1l-3.2 1.1c-1.6.6-2.4 1.1-2.4 1.6a3.2 3.2 0 00.4 1.7 1.5 1.5 0 001.5.7 16.6 16.6 0 002.4-.4 17.2 17.2 0 012.4-.4c1.2 0 1.8.2 1.8.9l.1.1v.2a.4.4 0 010 .3 1.7 1.7 0 01-.9.4l-2.5.6-1.5.3-.8.1h-2.6a2.6 2.6 0 01-1.2-.2 1.5 1.5 0 01-.3-.2l-.2-.2-.3-.5-.2-2.7q0-1.4-.4-1.4l-.4.2a2.9 2.9 0 01-.7.2 2.7 2.7 0 01-1.6-.5v-1.3c.2-.1.3-.2.3-.4s.8-.4 2.3-.5l-.2-2-.2-1.7a2.6 2.6 0 011-2.6 6 6 0 012.8-.8l2-.2zM222.2 13.3a7.4 7.4 0 012.4.2c1 .3 1.6.7 1.7 1.4a2.2 2.2 0 01-.4 1.2h-.5a2.9 2.9 0 00-.4 0h-1a8.3 8.3 0 00-3.3.8 2 2 0 00-1.2 2q0 .6 2.8 2c2.3 1.1 3.5 1.8 3.7 2a5.2 5.2 0 011.7 4 4.6 4.6 0 01-2.3 4.1 8.6 8.6 0 01-4.6 1.6 9 9 0 01-3.8-.6 2.5 2.5 0 01-2-2.2v-1.1c0-.5.1-.7.3-.7a16.3 16.3 0 007.5 1.3A1.5 1.5 0 00224 28a6 6 0 000-1.7 3 3 0 00-2-2.6l-4-1.6a3.8 3.8 0 01-2.1-3.1q-.1-1.7 2.2-3.7a7.5 7.5 0 014-2zM237.6 12.5c1.8-.1 3.7.9 5.4 3a12.6 12.6 0 012.8 7.4q.2 3.6-3.8 6.4a14.3 14.3 0 01-7.2 2.6q-2.4.1-3.8-2.6a12.3 12.3 0 01-1.1-4.9 14.6 14.6 0 011.5-7.7 7.2 7.2 0 016.2-4.2zm-3.3 11.7a1.8 1.8 0 010 .2l-.3.6a1.9 1.9 0 00-.3 1 2.4 2.4 0 00.8 1.4l1 .5a3.6 3.6 0 001.4.2l1.1-.2c1-.1 2-1 2.8-2.7a8.3 8.3 0 001-4 6 6 0 00-1.2-3.3 3.5 3.5 0 00-3-1.7h-.5c-1 .1-1.8 1-2.3 2.6a17.5 17.5 0 00-.5 5.4zM255.1 11.9c.8 0 1.5.6 2.2 2l2 5.3a17 17 0 002.6 4.6 13.8 13.8 0 003.5-4 35.9 35.9 0 002-5q1-3 1.9-3a1.9 1.9 0 011.2.5 13.9 13.9 0 012.3 4.5c.2.7.6 2.4 1 5a33.3 33.3 0 001.8 6.4l.6 1.2a3.1 3.1 0 01.4 1.3c0 .8-.4 1.2-1.3 1.2h-.8l-.6-.1a9.3 9.3 0 01-1.7-3.6l-1-4.7-.9-4.2a7 7 0 00-3.6 2.8l-2.2 3.3a4.6 4.6 0 01-3.4 1.8q-1.7 0-2-.7a51 51 0 01-1.5-4 24.4 24.4 0 00-2.6-5.7 9.5 9.5 0 00-3.3 4.6 26.4 26.4 0 00-1.1 5.7c-.2 2.1-.5 3.2-1 3.2s-1-.4-1.8-1.3c-.1 0-.2-.3-.2-.8a20.2 20.2 0 011-5.8 33 33 0 012.8-7.2q1.8-3.2 3.7-3.3zM287 9.6q2.7-.2 2.8 1.3l-.5 1.3a18.7 18.7 0 01-4.5 1.4 2.1 2.1 0 00-1.7 1.1 4.6 4.6 0 00-.2 2.1l.2 2.4a36.2 36.2 0 016.4-1.7c.8 0 1.2.2 1.3.8a4.8 4.8 0 01-.4 1.4l-4.3 1.5c-2.1.7-3.2 1.4-3.2 2.1a4.4 4.4 0 00.6 2.3 2 2 0 002 1 21.9 21.9 0 003.3-.6 24.8 24.8 0 013.2-.5c1.5-.2 2.3.3 2.4 1.2l.1.1a.4.4 0 01.1.3.5.5 0 01-.2.4 2.3 2.3 0 01-1 .5l-3.5.8-2 .4-1 .1h-3.5a3.5 3.5 0 01-1.6-.2 1.6 1.6 0 01-.3-.3l-.3-.3-.4-.6-.3-3.7c0-1.2-.2-1.8-.5-1.8l-.6.3a4.2 4.2 0 01-.9.2 3.6 3.6 0 01-2.1-.7l-.1-1.8c.3 0 .4-.2.4-.5s1-.4 3.2-.6l-.3-2.7-.3-2.3a3.5 3.5 0 011.3-3.3 8 8 0 013.8-1.1l2.5-.3zM310 8.6a7.6 7.6 0 012.4.2c1.1.2 1.7.7 1.7 1.4a2.1 2.1 0 01-.3 1.2h-2a8.4 8.4 0 00-3.3.7 2 2 0 00-1.2 2c0 .4 1 1.1 2.8 2l3.8 2a5.1 5.1 0 011.6 4 4.6 4.6 0 01-2.2 4.2 8.7 8.7 0 01-4.7 1.6 9 9 0 01-3.7-.6c-1.3-.5-2-1.2-2-2.2V24c0-.4 0-.7.3-.7a16.3 16.3 0 007.5 1.3 1.5 1.5 0 001.2-1.1 6.3 6.3 0 000-1.7 3 3 0 00-2.1-2.7l-3.9-1.6a3.8 3.8 0 01-2.2-3.1c0-1.1.7-2.4 2.3-3.7a7.4 7.4 0 014-2.1zM325.4 7.8c1.9-.2 3.7.8 5.4 3a12.7 12.7 0 012.9 7.4c.1 2.4-1.1 4.5-3.8 6.3a14.2 14.2 0 01-7.3 2.7q-2.4.1-3.7-2.7a12.3 12.3 0 01-1.2-4.8 14.5 14.5 0 011.6-7.7 7.2 7.2 0 016.1-4.2zm-3.2 11.7v.2l-.4.6a2 2 0 00-.2 1 2.3 2.3 0 00.8 1.4l1 .5a3.6 3.6 0 001.4.2l1-.2c1-.1 2-1 2.8-2.7a8.5 8.5 0 001-4 6 6 0 00-1.1-3.4 3.5 3.5 0 00-3-1.6h-.5c-1 .1-1.8 1-2.3 2.6a17.3 17.3 0 00-.5 5.4zM342.3 6.9a3.8 3.8 0 012.9 1.4 5 5 0 011.5 3 4.7 4.7 0 01-1.8 4l-3.5 3 5.8 3.7a3.3 3.3 0 01.7 1.7 2 2 0 01-1.5 1.2 2.7 2.7 0 01-1.9-.8l-2.8-2.4a25 25 0 00-3.1-2.3l.5 6.1-1.5.8-1.1-1.4-.6-10a8.4 8.4 0 011.5-5.4 6 6 0 014.9-2.6zm-4.2 7.3l.3 2.3a5.9 5.9 0 003.5-1.5 8.4 8.4 0 002.2-3 4.7 4.7 0 00-.7-1.4c-.4-.7-.8-1-1.2-1a4.5 4.5 0 00-2.7 1.5 3.7 3.7 0 00-1.4 3zM354.7 6.2q.8 0 1 1.3a5.9 5.9 0 00.5 1.4l.8.1h1.3l1.4-.1 1.2-.3.4.5a1.4 1.4 0 01.3.8 1 1 0 01-.2.7l-.3.4-1.2.1h-.8l-2-.2a1.3 1.3 0 00-.5 0l-.3.8a43.3 43.3 0 00.2 5.2l.4 7.9-1.5.5-1.2-.3-.4-3-.2-3v-7a3 3 0 00-.2-.8 1.2 1.2 0 00-1.1-.6l-.8.2-1 .1a3 3 0 01-1.7-.4l-.3-.4a4.5 4.5 0 01-.2-.4.7.7 0 01.2-.6l.4-.4a20.2 20.2 0 012 0 21 21 0 002.2 0l.1-.1V7.5a1.2 1.2 0 01.3-.5l.5-.3a1.6 1.6 0 00.7-.5zM377.6 5c2-.1 3.7.9 5.4 3a12.7 12.7 0 012.9 7.5c.1 2.3-1.1 4.4-3.8 6.3a14.2 14.2 0 01-7.3 2.6c-1.6 0-2.8-.8-3.7-2.6a12.3 12.3 0 01-1.2-4.8 14.6 14.6 0 011.6-7.7 7.2 7.2 0 016.1-4.3zm-3.2 11.7v.2l-.4.6a2 2 0 00-.2 1 2.3 2.3 0 00.8 1.4l1 .5a3.6 3.6 0 001.4.2l1.1-.2c1-.1 2-1 2.7-2.7a8.5 8.5 0 001.2-4 6 6 0 00-1.2-3.4 3.5 3.5 0 00-3-1.6h-.5c-1 0-1.8 1-2.3 2.5a17.2 17.2 0 00-.6 5.5zM396.6 4l1.6-.1 1.8-.2a1.7 1.7 0 011.5.3 3.9 3.9 0 01.5 2.2c0 .2-1.4.4-4 .7a39.5 39.5 0 00-5 .7 2.8 2.8 0 00-2 3 2.7 2.7 0 00.6 2 2.2 2.2 0 001.7.4l1.7-.2 1.4-.2a3 3 0 011.3 0 2.6 2.6 0 011.1.4c.3.2.6.6.6 1.3a2.7 2.7 0 01-.2 1.2l-4.2.6-3.4-.1.4 2.3v4.8a1 1 0 01-.4.5 1.4 1.4 0 01-.7.1h-.6a1 1 0 01-.7-.2l-.4-.5-.1-1.8-.4-3.7-.4-3.5v-2.5a13.5 13.5 0 01.2-3.7 4 4 0 012.5-2.6 17.6 17.6 0 015.6-1.2zM417 2.9c1.2-.1 2.3 1 3.4 3a32.6 32.6 0 012.4 5.8l2.3 8.4-.1.6a1.2 1.2 0 01-.3.7 1.5 1.5 0 01-.5.3h-.4a3 3 0 01-.6 0l-.4-.1-.1-1.1v-1a4.6 4.6 0 00-.6-2.5 2.2 2.2 0 00-2-.6c-2.7.1-4.5.4-5.2.7a3.3 3.3 0 00-1.4 2 6.5 6.5 0 01-2 3l-.4.1-.5.1a.7.7 0 01-.6-.2 2 2 0 01-.1-.6 7.8 7.8 0 01.3-2.8 69 69 0 001.8-7.1l.7-3.5a11 11 0 011.4-3.5 3.8 3.8 0 012.9-1.7zM414.6 13l1-.2h2.2a3.2 3.2 0 001-.4 6.8 6.8 0 001.6-1 15.8 15.8 0 00-1.3-3.6c-.7-1.4-1.1-2.1-1.4-2.1h-.5c-1 0-1.6 1-1.7 3a11.5 11.5 0 01-1 4.3z" transform="translate(-1 -2.9)"/><path class="cls-1" d="M27.6 48.5q3.5 0 7 4t3.4 7.8a11.8 11.8 0 01-5 9.8l-9.3 7 14 10q1 1 1.7 4.5-1.8 2.7-4 2.7T31 92l-6.7-6.3a59.2 59.2 0 00-7.6-6.1l.6 15.3-3.9 1.6-2.7-3.7V68a21.1 21.1 0 014.5-13.5 15.2 15.2 0 0112.5-6zM16.2 66.2l.4 5.7a14.7 14.7 0 008.8-3.1 20.8 20.8 0 006.1-7.3 12 12 0 00-1.6-3.7q-1.4-2.5-2.8-2.5-3.2 0-7 3.3-4.1 3.5-3.9 7.6z" transform="translate(-1 -2.9)"/><path class="cls-1" d="M65 47.9q7 0 7 3.6l-1.4 3.2A46.7 46.7 0 0159 57.5a5.2 5.2 0 00-4.4 2.7 11.3 11.3 0 00-.8 5.3q.3 9.5.3 6 12.6-3.5 16.1-3.6 3 0 3 2.3a11.4 11.4 0 01-1 3.5l-11 3q-8 2.3-8.1 5a11 11 0 001.2 5.6A5 5 0 0059 90a53.2 53.2 0 008.3-1 61 61 0 018-1q5.7 0 5.9 3.4l.2.4a1 1 0 01.2.8 1.4 1.4 0 01-.5 1 5.8 5.8 0 01-2.8 1l-8.6 1.7-5 .6-2.8.2h-1.7l-6.8-.2a8.6 8.6 0 01-4-.8 4.4 4.4 0 01-.8-.7l-.7-.8-1-1.6v-9.3c0-3-.4-4.5-1.1-4.6l-1.6.5a10 10 0 01-2.2.4 8.8 8.8 0 01-5.3-1.9v-4.4q1.2-.3 1.2-1.3t8-1l-.4-6.8-.4-5.7a8.8 8.8 0 013.8-8.4q2.7-1.9 9.5-2.4L65 48zM104.3 48.5q3 0 7.1 3.1t4.2 6.8a15.3 15.3 0 01-.9 5.4 8.3 8.3 0 01-3.4 4.4 91.2 91.2 0 019 4.9q3.2 2 3.2 7.3l-.8 2.6a14.1 14.1 0 01-.7 1.5 20 20 0 01-9.2 9.2 28.2 28.2 0 01-12.8 2.8 19.4 19.4 0 01-8.3-1.5l-5.8-2.8-.7-3.1 1-1.4 5.3.3a80.3 80.3 0 01-2.1-14.4 7.8 7.8 0 01.6-4l1.5-1.4a8.9 8.9 0 00-.5-1.5l-.5-2a16 16 0 01-.6-4.4q0-11.8 14.4-11.8zm-8.7 9.2l.3 10.3a36.9 36.9 0 015-.8 14 14 0 004-.8 17 17 0 004.8-3.2l1-3.2-1-4.5a7 7 0 00-3.5-1h-4.8q-4.4 0-5 1.1zm.3 19V88c0 1 .7 1.4 2.2 1.4a22.3 22.3 0 004.5-.7 22.3 22.3 0 014.5-.7l4.4-1.6c2.5-1 4.2-2.3 4.8-4l-1.4-5q-1.7-1.2-6.8-2.2a38.2 38.2 0 00-7.2-1 9.2 9.2 0 00-3.7.6 2 2 0 00-1.3 2z" transform="translate(-1 -2.9)"/><path class="cls-1" d="M137.8 48.5h6.3a3.8 3.8 0 01.7 1.9q0 .6-4.2 2.3-4.3 1.7-4 6v2l.4 7.6.1 4.6.4 6.3a30.1 30.1 0 00.6 5.5l.7 3.6a11 11 0 014.4 1q1.9.7 2 2.2 0 .7-1.5 3l-.7 1.1a2 2 0 01-1.2.9l-2.4-1a15 15 0 00-2.4-.5l-6 .4q-4.5.2-6.4-3.1 0-2.5 2.1-3a23.3 23.3 0 014.9-.4h1.8l-.2-7.8-.2-7.8q0-1.7-1-9.7l-.5-4a11.3 11.3 0 011.2-4.6h-9.3c-1.5 0-2.3-.3-2.3-.8a3.7 3.7 0 00.2-.5 1.8 1.8 0 01.4-.7l1-1.7q2.9-2 8.3-2.2l3.4-.1a14.5 14.5 0 003.4-.5zM171 48.5l3.4.3 2 2.5-9.9 5.7q-14.6 8.6-14.8 21.7a11.7 11.7 0 003.6 8.7A11.9 11.9 0 00164 91q9.4 0 19.2-16.5a65.9 65.9 0 00-17.6-2.2h-1.4a18 18 0 01-2 0q-2.2-.1-2.3-1.9.4-3 15.8-3.2a52.4 52.4 0 018.7.5q3 .5 3 5.4 0 4-5.4 10.5a53.9 53.9 0 01-8.6 8.5q-5.7 4.4-10.7 4.4-6 0-11.4-6.8-5-6.3-5.1-12.4-.1-9.4 8-17.8a46.1 46.1 0 0116.7-11zM230.3 50.8L232 60l-.5 15.2q-1.2 9-6 14.7a17.2 17.2 0 01-13.8 6.6q-10 0-14.4-7.3-2.8-4.7-4.7-16.6l-1.2-21.2a2.1 2.1 0 011.3-2 11.5 11.5 0 001.1-.5l1.7-.4 2.3.5a4 4 0 011.9 1.3l-.3 6.5-.3 8.4q-.3 10.5 2 17a16 16 0 002.2 4.2 8.3 8.3 0 007 3.6 9 9 0 006.3-2 26.8 26.8 0 004-5.5q4-6.5 4-16.6a51.3 51.3 0 00-1-10.1q-.3-2.1-1-4l.9-1.5a2.6 2.6 0 011.8-.7l2-.2a3 3 0 012 .5zM245.1 49.4l1.7-.6a3 3 0 00.9-.1l1.1-.2 1 .2q1.5.2 1.6 2.8a7.4 7.4 0 01-.1 2l-1.1 3.5a8.3 8.3 0 01-.9 1.8l-1.3 4.8-2 9.9a38.5 38.5 0 00-1 8.2 5.5 5.5 0 003.4 5.3 21 21 0 008.6 1.6 53 53 0 0010-1l2.4-.5.9.8a3.5 3.5 0 01.6 1.7 2.8 2.8 0 01-.4 1.2l-.8 1.2q-9.8 4.5-23.2 4.5h-1.6a18.1 18.1 0 01-5-.5 3.1 3.1 0 01-2-2.3l.5-17.4a65 65 0 011-7.1q1.4-7.6 2.6-12 1.6-6 3.1-7.8zM293.6 48.5q4.5 0 8.1 8.2a79.5 79.5 0 015.3 14.5l4.6 21.5-.4 1.5a3.1 3.1 0 01-.8 1.5 3 3 0 01-1.2.7h-1a6 6 0 01-1.4 0l-1.2-.4v-5.4q.2-4.1-1-6t-5-2q-10.4 0-13 1.1t-4 5a16.6 16.6 0 01-5.1 7l-1.2.4-1.4.1a1.6 1.6 0 01-1.3-.6 4.7 4.7 0 01-.2-1.4 19.3 19.3 0 011.2-7 179.7 179.7 0 005.4-17.7l2.2-8.6a27.3 27.3 0 014-8.5 9.4 9.4 0 017.4-4zm-7.3 25.3l2.4-.4 1.5-.1 4 .3a8 8 0 002.8-.6 18.5 18.5 0 004-2.3 40.1 40.1 0 00-2.7-9.3Q296 56 294.9 56H293.7q-3.8 0-4.7 7.2t-2.7 10.5zM325 48.5q1.8.3 2.5 3.4a14.8 14.8 0 001 3.5l1.9.5 3.1.2 3.7-.2 3-.4 1 1.3a3.6 3.6 0 01.5 2.1 2.6 2.6 0 01-.5 1.6l-.8 1h-3l-2-.2-4.9-.6a3.2 3.2 0 00-1.2.2q-.5.2-.9 1.6t-.3 13v19.8l-3.7 1.2-3-1.1-.6-7.6-.2-7.5.3-10.4.3-7a7.3 7.3 0 00-.2-2 3 3 0 00-2.6-1.6l-2 .3-2.4.2a7.5 7.5 0 01-4.3-1.3l-.7-1-.3-1.2a1.8 1.8 0 01.6-1.4l1-.8a52.2 52.2 0 015.2.3 52.2 52.2 0 005.3.4q.3 0 .4-.4l-.1-.8-.1-.9.2-1.1a3 3 0 01.6-1.2q.3-.4 1.5-.8a4 4 0 001.7-1.1zM364.3 48.5q7 0 13 8.2a31.6 31.6 0 016.2 19q0 8.9-10.4 15.2a35.6 35.6 0 01-18.4 5.6q-6 0-9-7a31 31 0 01-2.3-12.2 36.5 36.5 0 015-19q5.8-9.8 15.9-9.8zm-9.6 28.8a4.4 4.4 0 01-.2.5l-.9 1.4a4.7 4.7 0 00-.7 2.4 5.8 5.8 0 001.8 3.7l2.5 1.3a9.1 9.1 0 003.4.7l2.9-.3q3.7-.3 7.2-6.5 3.1-5.5 3.2-9.6a15.1 15.1 0 00-2.6-8.7q-2.9-4.5-7.4-4.5l-1.2.2q-3.9 0-6 5.9a43.8 43.8 0 00-2 13.5zM406.5 48.5q3.5 0 7 4t3.5 7.7a11.8 11.8 0 01-5 9.8l-9.3 7.1 14 10q1 1 1.7 4.4-1.8 2.7-4 2.8t-4.6-2.3l-6.7-6.3a59.2 59.2 0 00-7.6-6.1l.6 15.3-3.9 1.6-2.7-3.7V68a21.1 21.1 0 014.5-13.5 15.2 15.2 0 0112.5-6zm-11.4 17.7l.4 5.7a14.7 14.7 0 008.8-3.1 20.8 20.8 0 006.1-7.3 12 12 0 00-1.6-3.7q-1.4-2.5-2.8-2.5-3.2 0-7 3.3-4.1 3.5-3.9 7.6z" transform="translate(-1 -2.9)"/><path d="M41.4 116.8a1 1 0 01-.3 0 1 1 0 01-.4 0l-.3-.2a3 3 0 01-.8-1.6l-.3-1.8a2.5 2.5 0 00-1-1.5c-.2 0-.4.5-.9 1.4l-1.3 2.9c-.2.3-.5.6-.8.6a.5.5 0 01-.3-.1 1.1 1.1 0 01-.3-.4 22.3 22.3 0 01-.8-2.7 22.7 22.7 0 00-.7-2.7l-.3-.9a1.3 1.3 0 000-.2v-.2a1 1 0 01.1-.5l.2-.2.4-.3h.2c.4 0 .6.5.8 1.5l.1 1.3.2 1.7c.1.8.4 1.2.6 1.2a.6.6 0 00.3-.1 15.8 15.8 0 00.8-1.7 9 9 0 011-1.6 2.4 2.4 0 011-.9l.5-.2c.2 0 .5.3.7.9l.7 2.5a9.7 9.7 0 00.6 1.8.7.7 0 00.3.2q.4 0 .9-2.4a20.1 20.1 0 00.3-3 2.1 2.1 0 00-.1-.9q.2-.7.8-.7h.3a.5.5 0 01.4.4 3.3 3.3 0 01.2.5l-.3 2.7-.8 2.5a8.6 8.6 0 01-.6 1.5 2.8 2.8 0 01-1.1 1.2zM52.2 108.2v6.1a4 4 0 010 1.3.8.8 0 01-.5.5c-.2 0-.4-.2-.5-.6a3.8 3.8 0 01-.1-1 3.3 3.3 0 01.1-1 13 13 0 00-1.6 0l-1.2.2a8.3 8.3 0 01-1.3-.1v.7a6.8 6.8 0 010 .7v.6l-.2 1.2h-.8l-.1-1.6v-1.6a3.4 3.4 0 00-.6 0l-.4.2-.2-.2-.4-.3a1.7 1.7 0 01.8-.9l.7-.1a2.8 2.8 0 00.2-.9V108.8c0-.3.1-.4.5-.4a.5.5 0 01.3 0 .5.5 0 01.2.3v.6a1.2 1.2 0 000 .4v.5l-.2 2h1.2a3.6 3.6 0 00.8 0l1.3-.1a1.1 1.1 0 01.3 0l.6.2a13.9 13.9 0 01.2-1.5l.1-1.1v-.4-.2a1.4 1.4 0 000-.3 3.5 3.5 0 00-.2-.4v-.1l.5-.2zM56.3 108h1.1a.7.7 0 01.2.3l-.8.5a1 1 0 00-.7 1v3.8a5.8 5.8 0 00.2 1l.1.7a2 2 0 01.8.2c.3 0 .4.2.4.4a1.2 1.2 0 01-.3.5l-.1.2a.4.4 0 01-.2.2l-.5-.2a3.1 3.1 0 00-.4 0H55a1.1 1.1 0 01-1.2-.6.5.5 0 01.4-.5 3.8 3.8 0 01.9 0h.3V114v-1.5l-.2-1.7v-.8a2 2 0 01.2-.8h-1.8c-.2 0-.4 0-.4-.2a.3.3 0 01.1-.2l.2-.3a2.6 2.6 0 011.5-.4h.6a3.3 3.3 0 00.7-.1z" transform="translate(-1 -2.9)"/><path d="M61.5 108a4 4 0 011.6.5c.8.4 1.2.8 1.2 1.1a.3.3 0 010 .2 7 7 0 00-2-.3 2 2 0 00-.5 0h-.2c-1.3 0-2 .2-2.4.6a4 4 0 00-.5 2.4 2.3 2.3 0 001.5 2.1 11.3 11.3 0 002.6.8q1.8.3 1.8.6l-.3.6-1 .1a8.7 8.7 0 01-3.1-.5 3.6 3.6 0 01-2.3-2 5.7 5.7 0 01-.4-2 4.2 4.2 0 011.1-3 3.6 3.6 0 012.9-1.2z" transform="translate(-1 -2.9)"/><path d="M71.5 108.2v2.6l.1 3.5a4.8 4.8 0 010 1.3.8.8 0 01-.6.5c-.2 0-.4-.2-.5-.6a3.7 3.7 0 010-2 12.9 12.9 0 00-1.6 0l-1.2.2a8.2 8.2 0 01-1.4-.2v.8a4.4 4.4 0 010 .7v1.7h-1v-3.2a3.5 3.5 0 00-.6 0l-.4.2-.2-.2-.4-.3a1.7 1.7 0 01.8-.9l.7-.1a3.6 3.6 0 00.2-.9V108.7c0-.3.1-.4.5-.4a.5.5 0 01.3 0 .4.4 0 01.2.3v.6a1.6 1.6 0 000 .4v.5l-.1 2h1.2a3.5 3.5 0 00.7 0l1.3-.1a1 1 0 01.3 0l.7.2a13.9 13.9 0 010-1.5l.2-1.1v-.4a1.3 1.3 0 000-.2 1.4 1.4 0 000-.3 4 4 0 00-.1-.4v-.1l.5-.2zM78.9 108h1.2a.8.8 0 010 .3c0 .1-.2.3-.7.5a1 1 0 00-.7 1V112.6l.1 1.1a5 5 0 00.1 1c0 .2 0 .4.2.7a1.9 1.9 0 01.8.2c.2 0 .3.2.3.4a1.2 1.2 0 01-.3.5v.2a.4.4 0 01-.3.2l-.4-.2a3.1 3.1 0 00-.5 0h-1.1a1.1 1.1 0 01-1.1-.6.5.5 0 01.3-.5 3.8 3.8 0 011 0h.3V114v-1.5l-.2-1.7-.1-.8a2 2 0 01.2-.8h-1.7c-.3 0-.5 0-.5-.2a.3.3 0 01.1-.2l.2-.3a2.6 2.6 0 011.5-.4h.7a3.3 3.3 0 00.6-.1zM84.8 108a3.5 3.5 0 011.1.1c.5.2.8.4.8.8a1 1 0 01-.2.5h-.9a3.8 3.8 0 00-1.5.2 1 1 0 00-.7 1l1.3 1c1 .5 1.6.8 1.7 1a2.4 2.4 0 01.6 1.8 2.1 2.1 0 01-1.1 1.8 4 4 0 01-2.2.6 4.2 4.2 0 01-1.7-.3c-.5-.3-.8-.6-.8-1v-.6q0-.3.2-.3a7.4 7.4 0 003.3.8.7.7 0 00.6-.5 3 3 0 000-.8 1.4 1.4 0 00-.9-1.2l-1.7-.9a1.7 1.7 0 01-.9-1.5c0-.5.4-1 1.1-1.6a3.4 3.4 0 012-.9zM95 108c.5 0 1 .5 1.5 1.5a14.4 14.4 0 011 2.7l.8 3.9v.3a.5.5 0 01-.2.3.6.6 0 01-.2 0h-.7v-1a2 2 0 00-.2-1 1 1 0 00-.9-.4 7.5 7.5 0 00-2.4.2 1.5 1.5 0 00-.7.9 3.1 3.1 0 01-1 1.3h-.4a.3.3 0 01-.3 0 .9.9 0 010-.4 3.4 3.4 0 01.3-1.2q.5-1.3 1-3.3l.4-1.5a5.1 5.1 0 01.7-1.6 1.7 1.7 0 011.3-.7zm-1.4 4.6h1.5a1.3 1.3 0 00.5-.1 3 3 0 00.8-.5 7.4 7.4 0 00-.6-1.7c-.2-.6-.4-1-.6-1H95c-.5 0-.8.5-.9 1.4a5.3 5.3 0 01-.5 2zM106.5 108a4 4 0 011.7.5c.8.4 1.1.8 1.1 1.1a.3.3 0 010 .2 7 7 0 00-2-.3 2 2 0 00-.4 0h-.2a.2.2 0 00-.1 0c-1.2 0-2 .2-2.3.6a4 4 0 00-.5 2.4 2.3 2.3 0 001.4 2.1 11.3 11.3 0 002.7.8c1.2.2 1.8.4 1.8.6l-.3.6-1 .1a8.7 8.7 0 01-3.1-.5 3.7 3.7 0 01-2.3-2 5.5 5.5 0 01-.4-2 4.2 4.2 0 011.1-3 3.6 3.6 0 012.8-1.2zM113.6 108a3 3 0 012.4 1.5 5.8 5.8 0 011.2 3.5 3.3 3.3 0 01-2 2.8 6.5 6.5 0 01-3.3 1 1.8 1.8 0 01-1.7-1.3 5.7 5.7 0 01-.4-2.3 6.7 6.7 0 011-3.4 3.3 3.3 0 012.8-1.8zm-1.7 5.3l-.2.3a.8.8 0 00-.1.5 1 1 0 00.3.7l.5.2a1.6 1.6 0 00.6.1h.5c.5 0 1-.4 1.3-1.2a4 4 0 00.6-1.7 2.8 2.8 0 00-.4-1.6 1.6 1.6 0 00-1.4-.9h-.2c-.5 0-.9.4-1.1 1.1a8 8 0 00-.4 2.5zM126.5 108.9l-.1 2.5-.2 1.1v1.1a7.8 7.8 0 01-.4 2.3c-.1.4-.4.6-.7.6a2 2 0 01-1-.4l-3.8-4.7a.4.4 0 000-.1c-.2 0-.3.3-.4.9a10.1 10.1 0 000 1 7.7 7.7 0 00.3 3v.2a1.2 1.2 0 01-.2.2.5.5 0 01-.4.2.8.8 0 01-.6-.2l-.3-.3-.5-2.4a4.7 4.7 0 010-1 4.8 4.8 0 01.5-2.4 1.6 1.6 0 011.3-1c.4 0 1 .5 1.7 1.4l1.5 1.9 1.3 1.5.1-.2V110.5a5 5 0 01.2-1.8l.4-.4a.6.6 0 01.5-.2.7.7 0 01.5.2l.3.6zM131.4 108a3.9 3.9 0 011.7.5c.8.4 1.2.8 1.2 1.1a.3.3 0 01-.1.2 7 7 0 00-2-.3 2 2 0 00-.4 0h-.2a.2.2 0 00-.1 0c-1.2 0-2 .2-2.3.6a4 4 0 00-.5 2.4 2.3 2.3 0 001.4 2.1 11.3 11.3 0 002.7.8c1.2.2 1.8.4 1.8.6l-.3.6-1 .1a8.7 8.7 0 01-3.1-.5 3.6 3.6 0 01-2.3-2 5.5 5.5 0 01-.4-2 4.2 4.2 0 011.1-3 3.6 3.6 0 012.8-1.2z" transform="translate(-1 -2.9)"/><path d="M138.7 108c.9 0 1.3.1 1.3.6l-.2.6a8.7 8.7 0 01-2.2.5 1 1 0 00-.8.5 2 2 0 00-.1 1v1a15.6 15.6 0 013-.6c.4 0 .5.2.5.4a2.2 2.2 0 01-.1.7l-2 .5c-1 .3-1.5.6-1.5 1a2 2 0 00.2 1 1 1 0 00.9.5 10.3 10.3 0 001.5-.2 9.2 9.2 0 011.5-.2c.7 0 1 .2 1 .6a.2.2 0 010 .2.3.3 0 010 .2 1.1 1.1 0 01-.6.2l-1.6.3-.9.1h-2a1.5 1.5 0 01-.8-.1.9.9 0 01-.1-.2l-.1-.1-.2-.3v-1.7c0-.6 0-.8-.2-.8h-.3a1.5 1.5 0 01-.4.1 1.6 1.6 0 01-1-.3v-.8l.2-.3s.5-.2 1.5-.2l-.1-1.2v-1a1.6 1.6 0 01.6-1.6 3.7 3.7 0 011.8-.4h1.2zM144.8 108a2.4 2.4 0 011.9 1 3 3 0 01.8 2 2 2 0 01-.8 1.8 3.1 3.1 0 01-2 .6 1.9 1.9 0 01-1-.3l.2 1.5a6.7 6.7 0 010 1.3v.6a.4.4 0 01-.4.4h-.2a.4.4 0 01-.3-.2l-.2-.3-.4-2a9 9 0 01-.2-1.2l-.1-2.2a2.7 2.7 0 01.9-2 2.7 2.7 0 011.8-1zm-1.3 3a5.1 5.1 0 000 1c0 .1.4.2 1 .2a2.4 2.4 0 001.3-.4 1.6 1.6 0 00.7-1.2 2.7 2.7 0 00-.6-.9 1.6 1.6 0 00-1-.3 1.5 1.5 0 00-1.1.4 1 1 0 00-.4.9zM151 108c.2 0 .4.2.5.6a3.6 3.6 0 00.1.7h.4l.5.1H153.8l.1.2a.7.7 0 01.1.4.5.5 0 010 .2l-.2.2H153l-.9-.1a.7.7 0 00-.2 0l-.2.3a23 23 0 000 2.4v3.6l-.7.2-.6-.2-.1-1.4v-1.4-1.9l.1-1.3a1.2 1.2 0 000-.3.6.6 0 00-.5-.3h-.8a1.4 1.4 0 01-.8-.3l-.1-.2v-.2a.3.3 0 010-.2l.2-.2a8.8 8.8 0 011 0 8.8 8.8 0 001 .2V108.5a.5.5 0 01.2-.3.5.5 0 01.3-.1.8.8 0 00.2-.1zM161.2 108a3.5 3.5 0 011.2.1c.4.2.7.4.7.8a1 1 0 01-.2.5h-.9a3.8 3.8 0 00-1.5.2 1 1 0 00-.6 1l1.2 1a17 17 0 011.7 1 2.4 2.4 0 01.7 1.8 2.1 2.1 0 01-1.2 1.8 4 4 0 01-2.1.6 4 4 0 01-1.8-.3c-.5-.3-.8-.6-.8-1v-.6c0-.2 0-.3.2-.3a7.5 7.5 0 003.4.8.7.7 0 00.5-.5 3 3 0 00.1-.8 1.4 1.4 0 00-1-1.2l-1.6-.9a1.7 1.7 0 01-1-1.4c0-.6.4-1.1 1.2-1.7a3.4 3.4 0 011.8-.9zM168.3 108a3 3 0 012.4 1.5 5.8 5.8 0 011.1 3.5 3.3 3.3 0 01-1.9 2.8 6.5 6.5 0 01-3.4 1 1.8 1.8 0 01-1.6-1.3 5.7 5.7 0 01-.4-2.3 6.7 6.7 0 01.9-3.4 3.3 3.3 0 013-1.8zm-1.8 5.3l-.1.3a.9.9 0 00-.1.5 1 1 0 00.3.7l.4.2a1.6 1.6 0 00.7.1h.5c.5 0 .9-.4 1.3-1.2a3.8 3.8 0 00.6-1.7 2.7 2.7 0 00-.5-1.6 1.6 1.6 0 00-1.3-.9h-.2c-.5 0-.9.4-1.1 1.1a8 8 0 00-.4 2.5zM181.1 103.6a2.6 2.6 0 012 1.1 3.4 3.4 0 011 2.2 3.2 3.2 0 01-1.4 2.7l-2.6 2 3.9 2.7a2.2 2.2 0 01.4 1.2 1.4 1.4 0 01-1 .8 1.9 1.9 0 01-1.3-.6l-1.9-1.8a16.7 16.7 0 00-2-1.7l.1 4.2-1 .5-.8-1V109a5.9 5.9 0 011.2-3.7 4.2 4.2 0 013.4-1.7zm-3.1 4.9l.1 1.6a4 4 0 002.5-.9 5.9 5.9 0 001.6-2 3.5 3.5 0 00-.4-1c-.3-.4-.5-.7-.8-.7a3.2 3.2 0 00-2 1 2.5 2.5 0 00-1 2zM189.7 103.6h1.7a1 1 0 01.2.5c0 .2-.4.4-1.2.7a1.6 1.6 0 00-1 1.7v3.9l.1 1.7a8.2 8.2 0 00.2 1.5l.2 1a3 3 0 011.2.3c.3.1.5.3.5.6a2 2 0 01-.4.8l-.2.3a.6.6 0 01-.3.3l-.7-.3a3.5 3.5 0 00-.6-.1h-1.7a1.7 1.7 0 01-1.7-.8.7.7 0 01.5-.8 6.2 6.2 0 011.4-.1h.5v-2.2l-.1-2.1-.3-2.7-.1-1.1a3 3 0 01.3-1.3h-2.5c-.4 0-.6 0-.6-.2a.7.7 0 000-.1l.1-.2.3-.5a4 4 0 012.3-.6h1a3.7 3.7 0 00.8-.2zM193.8 103.6l4 .7a16 16 0 014.4 1 3.6 3.6 0 012 3.4 8.3 8.3 0 01-.4 3.1 5 5 0 01-2 2.4l-5 2.6h-3l-.3-1.7a14.8 14.8 0 01-.1-1.6V112v-1.6V107a16.2 16.2 0 01.1-1.6l.3-1.7zm1.9 2.2l-.1 1.6c-.1.6 0 1.3 0 1.6l-.2 3.1v1.6a9.9 9.9 0 00.1 1.6l2.3-.5 3.1-2.2c.5-.4 1-1.7 1.3-3.9a1.5 1.5 0 00-1-1.3 8.8 8.8 0 00-2-.7 10 10 0 01-1.7-.5zM208.8 103.6h1.7a1 1 0 01.2.5c0 .2-.4.4-1.2.7a1.6 1.6 0 00-1 1.7v3.9l.1 1.7a8.3 8.3 0 00.2 1.5l.2 1a3 3 0 011.2.3c.3.1.5.3.5.6a1.9 1.9 0 01-.4.8l-.2.3a.6.6 0 01-.3.3l-.7-.3a3.5 3.5 0 00-.6-.1h-1.7a1.7 1.7 0 01-1.7-.8.7.7 0 01.6-.8 6.2 6.2 0 011.3-.1h.5v-2.2-2.1l-.3-2.7-.2-1.1a3 3 0 01.3-1.3h-2.5c-.4 0-.6 0-.6-.2a.6.6 0 000-.1.6.6 0 01.1-.2l.3-.5a4 4 0 012.2-.6h1a3.7 3.7 0 001-.2z" transform="translate(-1 -2.9)"/><path d="M216.6 103.6a5.8 5.8 0 012.5.8c1.1.6 1.7 1.2 1.7 1.7a.4.4 0 01-.1.3 11.4 11.4 0 00-2.9-.5 3 3 0 00-.7 0h-.3a.3.3 0 00-.2 0c-1.8 0-3 .3-3.4.9s-.7 1.7-.7 3.6a3.4 3.4 0 002 3.2 17.8 17.8 0 004 1c1.9.4 2.8.7 2.8 1l-.5 1-1.5.2a13 13 0 01-4.7-.8 5.5 5.5 0 01-3.4-3 8.3 8.3 0 01-.6-3 6.3 6.3 0 011.7-4.4 5.5 5.5 0 014.3-2zM232.5 104.3l.5 2.5-.2 4.2a7.8 7.8 0 01-1.6 4 4.8 4.8 0 01-3.8 1.8 4.3 4.3 0 01-4-2 13.6 13.6 0 01-1.3-4.6l-.3-5.8a.6.6 0 01.3-.6h.4l.4-.2.7.1a1.1 1.1 0 01.5.4l-.1 1.8v2.3a13.4 13.4 0 00.5 4.7 4.3 4.3 0 00.6 1.2 2.3 2.3 0 002 1 2.5 2.5 0 001.7-.6 7.7 7.7 0 001.1-1.5 8.8 8.8 0 001.1-4.6 14 14 0 00-.3-2.8l-.2-1 .2-.5a.8.8 0 01.5-.2h.5a.8.8 0 01.6.1zM236.6 103.9l.5-.2a1 1 0 00.2 0h.6c.2 0 .4.3.4.8a2.3 2.3 0 010 .5l-.3 1a1.9 1.9 0 01-.2.5l-.4 1.4-.6 2.7a11.3 11.3 0 00-.2 2.2 1.5 1.5 0 001 1.5 5.7 5.7 0 002.3.4 15.3 15.3 0 002.8-.2l.6-.2.2.3a1 1 0 01.2.4.7.7 0 010 .3l-.3.4a15.2 15.2 0 01-6.4 1.2h-.4a5.3 5.3 0 01-1.4-.1.9.9 0 01-.6-.7l.2-4.7a19.2 19.2 0 01.2-2l.8-3.4a6.7 6.7 0 01.8-2.1zM250 103.6c1.4 0 2.6.8 3.7 2.3a8.7 8.7 0 011.7 5.2c0 1.6-1 3-2.9 4.2a9.8 9.8 0 01-5 1.5 2.6 2.6 0 01-2.5-1.9 8.7 8.7 0 01-.6-3.3 10 10 0 011.3-5.3 5 5 0 014.4-2.7zm-2.5 8l-.3.5a1.3 1.3 0 00-.2.6 1.6 1.6 0 00.5 1l.7.4a2.4 2.4 0 001 .2l.7-.1c.7 0 1.4-.6 2-1.8a5.8 5.8 0 001-2.6 4.1 4.1 0 00-.8-2.4 2.4 2.4 0 00-2-1.3h-.3c-.7 0-1.3.6-1.7 1.7a12.1 12.1 0 00-.7 3.8zM267.5 104.3l.5 2.5-.1 4.2a7.8 7.8 0 01-1.7 4 4.7 4.7 0 01-3.8 1.8 4.3 4.3 0 01-4-2 13.6 13.6 0 01-1.2-4.5l-.4-5.8a.6.6 0 01.4-.6l.3-.1.4-.2.7.2a1.1 1.1 0 01.5.4l-.1 1.7v2.3a13.4 13.4 0 00.5 4.7 4.3 4.3 0 00.6 1.2 2.3 2.3 0 002 1 2.5 2.5 0 001.7-.6 7.7 7.7 0 001.1-1.5 8.7 8.7 0 001.1-4.6 14.7 14.7 0 00-.3-2.8l-.2-1 .2-.5a.7.7 0 01.5-.2h.5a.8.8 0 01.6.1zM274.3 103.6a5.1 5.1 0 011.7.2c.7.3 1 .6 1 1a1.5 1.5 0 01-.2.8h-1.4a5.6 5.6 0 00-2.2.4 1.4 1.4 0 00-1 1.4c0 .2.7.7 1.9 1.5l2.5 1.5a3.5 3.5 0 011 2.7 3.2 3.2 0 01-1.7 2.8 6 6 0 01-3.3 1 6.3 6.3 0 01-2.5-.6 1.8 1.8 0 01-1.3-1.6v-.8c0-.3.1-.4.3-.4a11.2 11.2 0 005 1.1 1 1 0 00.9-.7 4.6 4.6 0 00.1-1.2 2 2 0 00-1.4-1.9l-2.5-1.2a2.6 2.6 0 01-1.5-2.2c0-.8.6-1.6 1.7-2.5a5.1 5.1 0 012.9-1.3zM286.7 108h1.1a.8.8 0 01.2.3l-.8.5a1 1 0 00-.7 1v3.8a5.8 5.8 0 00.2 1l.1.7a1.9 1.9 0 01.8.2c.3 0 .4.2.4.4a1.2 1.2 0 01-.3.5l-.1.2a.4.4 0 01-.2.2l-.5-.2a3.1 3.1 0 00-.4 0h-1.1a1.1 1.1 0 01-1.2-.6.5.5 0 01.4-.5 3.8 3.8 0 01.9 0h.3V114v-1.5l-.1-1.7-.1-.8a2 2 0 01.2-.8H284c-.3 0-.4 0-.4-.2a.3.3 0 010-.2l.2-.3a2.6 2.6 0 011.5-.4h.7a3.3 3.3 0 00.6-.1z" transform="translate(-1 -2.9)"/><path d="M290.8 108c.3 0 .4.2.5.6a2.5 2.5 0 00.2.7h.3l.6.1h1.2l.2.2a.6.6 0 010 .4.5.5 0 010 .2l-.1.2h-.6a3.2 3.2 0 01-.3 0l-1-.1a.7.7 0 00-.2 0l-.1.3a18.9 18.9 0 00-.1 2.4v3.6l-.7.2-.5-.2-.1-1.4v-1.4-3.2a1.6 1.6 0 000-.3.5.5 0 00-.4-.3h-.8a1.4 1.4 0 01-.8-.3l-.1-.2a1.7 1.7 0 01-.1-.2.4.4 0 010-.2l.3-.2a8.8 8.8 0 011 0 8.8 8.8 0 001 .2V108.5a.7.7 0 01.2-.3l.2-.1a.8.8 0 00.2-.1zM301.2 108.2c.4 0 .7.3 1 1l.8 2.5a8 8 0 001 2.2 6.1 6.1 0 001.8-1.8 15.6 15.6 0 001-2.3c.4-.8.7-1.3 1-1.3a.9.9 0 01.5.3 6.3 6.3 0 011 2.1l.3 2.3a16.8 16.8 0 00.6 3l.3.6a1.5 1.5 0 01.1.6c0 .3-.2.5-.6.5h-.6a4.3 4.3 0 01-.7-1.8l-.4-2.1a19 19 0 00-.3-2 3.1 3.1 0 00-1.7 1.2l-1 1.4a2 2 0 01-1.7.8c-.5 0-.8-.2-1-.4s-.2-.8-.5-1.8a10.9 10.9 0 00-1-2.7 4.4 4.4 0 00-1.7 2 12.3 12.3 0 00-.6 2.5c-.2 1-.3 1.5-.5 1.5s-.4-.2-.8-.7l-.1-.3a9.3 9.3 0 01.6-2.7 15.2 15.2 0 011.4-3.2c.6-1 1.2-1.4 1.8-1.4zM315.2 108c.5 0 1 .5 1.5 1.5a14.4 14.4 0 011 2.7l.8 3.9-.1.3a.5.5 0 01-.2.3.7.7 0 01-.2 0H317.4v-1a2 2 0 00-.2-1 1 1 0 00-1-.4 7.6 7.6 0 00-2.3.2 1.5 1.5 0 00-.8.9 3 3 0 01-1 1.3h-.4a.3.3 0 01-.2 0 .9.9 0 010-.4 3.4 3.4 0 01.2-1.2q.5-1.3 1-3.3l.4-1.5a4.9 4.9 0 01.7-1.6 1.7 1.7 0 011.4-.7zm-1.4 4.6h1.5a1.3 1.3 0 00.5-.1 2.8 2.8 0 00.7-.5 6.9 6.9 0 00-.5-1.7c-.2-.6-.5-1-.6-1h-.2c-.5 0-.8.5-.9 1.4a5 5 0 01-.5 2zM321.4 108c.2.2.4.5.4 1l-.2 1.5-.1 1.3.1.5c.1 0 .5-.2 1-.8l1.3-1.7c.4-.6.7-.9.8-.8l.5.2a.3.3 0 01.2.4 2.4 2.4 0 01-1 1.6l-1.6 1.4a7.8 7.8 0 01.8 1.3l.8 1.3a2.5 2.5 0 00.5.6l.1.2v.3a.5.5 0 01-.2.5h-.2a.5.5 0 01-.3 0 4 4 0 01-1-1.4 10 10 0 00-1-1.4 2.1 2.1 0 00-1.1-.7 5.8 5.8 0 00-.4 1.7 3 3 0 01-.4 1.5l-.4.3-.4-.3.4-4 .1-1.4a11.8 11.8 0 01.4-2c.2-.7.4-1 .7-1z" transform="translate(-1 -2.9)"/><path d="M330.2 108c.8 0 1.3.1 1.3.6l-.3.6a8.5 8.5 0 01-2.1.5 1 1 0 00-.8.5 2.1 2.1 0 00-.2 1l.1 1a15.4 15.4 0 013-.6c.3 0 .5.2.5.4a2 2 0 01-.2.7l-2 .5c-1 .3-1.5.6-1.5 1a2 2 0 00.2 1 1 1 0 001 .5 10.2 10.2 0 001.4-.2 9.3 9.3 0 011.5-.2c.7 0 1 .2 1 .6a.2.2 0 010 .2.3.3 0 010 .2 1 1 0 01-.5.2l-1.6.3-1 .1h-2a1.6 1.6 0 01-.7-.1l-.2-.2-.1-.1-.2-.3v-1.7c0-.6 0-.8-.2-.8h-.3a1.5 1.5 0 01-.4.1 1.7 1.7 0 01-1-.3v-.8c.2 0 .3-.2.3-.3s.4-.2 1.4-.2V111l-.1-1a1.6 1.6 0 01.7-1.6 3.6 3.6 0 011.8-.4h1.2zM337.3 108a3.5 3.5 0 011.1.1c.5.2.8.4.8.8a1 1 0 01-.2.5h-.9a3.8 3.8 0 00-1.5.2 1 1 0 00-.6 1l1.2 1a18.7 18.7 0 011.7 1 2.4 2.4 0 01.6 1.8 2.1 2.1 0 01-1 1.8 4 4 0 01-2.3.6 4.2 4.2 0 01-1.7-.3c-.5-.3-.8-.6-.8-1v-.6q0-.3.2-.3a7.4 7.4 0 003.4.8.7.7 0 00.5-.5 3 3 0 000-.8 1.4 1.4 0 00-.8-1.2l-1.7-.9a1.7 1.7 0 01-1-1.4c0-.6.4-1.1 1.1-1.7a3.4 3.4 0 012-.9zM76.1 128c.4 0 .7.3 1 1l.9 2.5a8 8 0 001 2.2 6.3 6.3 0 001.7-1.8 15.3 15.3 0 001-2.2c.4-1 .7-1.4 1-1.4a1 1 0 01.5.3 6.3 6.3 0 011 2.1l.3 2.3a15.9 15.9 0 00.7 3l.2.6a1.5 1.5 0 01.2.6c0 .4-.2.5-.6.5h-.7a4.3 4.3 0 01-.7-1.7l-.3-2.2a19.4 19.4 0 00-.3-2 3.1 3.1 0 00-1.8 1.2l-1 1.5a2.1 2.1 0 01-1.6.7c-.5 0-.8-.1-1-.4s-.2-.7-.5-1.8a10.9 10.9 0 00-1.1-2.7 4.4 4.4 0 00-1.6 2 12.3 12.3 0 00-.7 2.5c-.1 1-.3 1.5-.5 1.5s-.4-.2-.8-.7v-.3a9.4 9.4 0 01.5-2.7 14.8 14.8 0 011.5-3.2c.6-1 1.1-1.4 1.7-1.4zM90.8 127.7c.8 0 1.3.2 1.3.7l-.3.6a8.7 8.7 0 01-2.1.5 1 1 0 00-.8.5 2 2 0 00-.2 1v1.1a16.5 16.5 0 013-.7c.4 0 .6.2.6.5a2.4 2.4 0 01-.2.6l-2 .6c-1 .2-1.5.5-1.5.9a2 2 0 00.3 1 1 1 0 00.8.5 10.3 10.3 0 001.5-.2 12.2 12.2 0 011.5-.2c.7 0 1 .2 1.1.6a.2.2 0 010 .2.3.3 0 010 .2 1.1 1.1 0 01-.6.2l-1.6.3-.9.1h-2.1a1.6 1.6 0 01-.7-.1.6.6 0 01-.2-.2v-.1l-.3-.3v-1.7c0-.6 0-.8-.2-.8H87a2 2 0 01-.5.1 1.6 1.6 0 01-1-.3v-.8c.2 0 .3-.2.3-.3s.5-.2 1.4-.2v-1.2l-.1-1a1.6 1.6 0 01.7-1.6 3.8 3.8 0 011.7-.4zM106.5 136.6a.7.7 0 01-.3 0 1.4 1.4 0 01-.4 0l-.3-.2a2.9 2.9 0 01-.8-1.5l-.3-1.8a2.4 2.4 0 00-1-1.5c-.1 0-.4.4-.8 1.3l-1.3 2.9c-.2.4-.5.6-.8.7a.5.5 0 01-.3-.2 1 1 0 01-.3-.4 20.2 20.2 0 01-.8-2.7 25.5 25.5 0 00-.7-2.7l-.3-.8v-.5a1 1 0 01.1-.5l.2-.2.4-.3h.1c.4 0 .7.5.8 1.5l.2 1.4c.2.9.1 1.4.1 1.6.2.8.4 1.2.7 1.2a.5.5 0 00.3 0 13.6 13.6 0 00.8-1.7 9 9 0 01.9-1.7 2.3 2.3 0 011-.8l.5-.2c.3 0 .5.3.7.8l.8 2.5a9.7 9.7 0 00.6 1.9.7.7 0 00.2.1c.3 0 .6-.8 1-2.4a19.2 19.2 0 00.3-3 1.9 1.9 0 00-.2-.8c.2-.5.4-.7.8-.7h.4a.5.5 0 01.4.4 4 4 0 01.1.5l-.3 2.7-.7 2.5a8.6 8.6 0 01-.6 1.5 2.9 2.9 0 01-1.2 1zM112.8 127.8c.5 0 1 .5 1.5 1.6a14.6 14.6 0 011 2.6l.8 4v.2a.5.5 0 01-.4.4h-.7v-1a2 2 0 00-.2-1.1 1 1 0 00-.9-.4 7.8 7.8 0 00-2.4.2 1.5 1.5 0 00-.7 1 3 3 0 01-1 1.2h-.4a.3.3 0 01-.3 0 .7.7 0 010-.3 3.7 3.7 0 01.3-1.3 31.4 31.4 0 001-3.2l.4-1.6a5.2 5.2 0 01.7-1.6 1.8 1.8 0 011.3-.7zm-1.4 4.7h1.5a1.3 1.3 0 00.5-.2 3.2 3.2 0 00.8-.4 7.4 7.4 0 00-.5-1.7c-.3-.7-.5-1-.7-1h-.2c-.5 0-.7.4-.8 1.3a5.1 5.1 0 01-.6 2zM125 128.7l-.1 2.5-.2 1.2v1a7.8 7.8 0 01-.4 2.3c-.2.4-.4.6-.8.6a2 2 0 01-1-.3l-3.7-4.8a.3.3 0 00-.1-.1c-.2 0-.3.3-.3 1a10.3 10.3 0 00-.1 1 7.8 7.8 0 00.4 2.9l-.1.2a1.3 1.3 0 01-.1.2.5.5 0 01-.5.3.8.8 0 01-.5-.3l-.3-.3-.5-2.4a4.7 4.7 0 01-.1-1 4.8 4.8 0 01.6-2.3c.3-.7.8-1 1.3-1 .3 0 .9.4 1.7 1.4l1.4 1.8c.8 1 1.2 1.5 1.4 1.5s0 0 0-.1v-3.7a4.5 4.5 0 01.3-1.8l.4-.4a.7.7 0 01.4-.2.7.7 0 01.6.3zM129 127.8c.2 0 .4.3.5.7a2.7 2.7 0 00.1.6l.4.1H131.8l.1.2a.6.6 0 01.1.4.5.5 0 010 .3l-.2.2h-.9l-.9-.1a.8.8 0 00-.2 0 .5.5 0 00-.2.3 21 21 0 000 2.4v3.6l-.7.2-.6-.2v-2.8-3.2a1.6 1.6 0 000-.3.6.6 0 00-.5-.3h-.8a1.4 1.4 0 01-.8-.2v-.2a1 1 0 010-.2.3.3 0 01-.2-.3l.2-.2a9.5 9.5 0 011 .1h1v-.5a.7.7 0 01.2-.2.4.4 0 01.2-.2.7.7 0 00.4-.2zM138.6 127.8c.2 0 .4.3.5.7a2.7 2.7 0 00.1.6l.4.1H141.4l.2.2a.6.6 0 010 .4.5.5 0 010 .3l-.2.2h-.9l-.9-.1a.8.8 0 00-.2 0l-.2.3a18.7 18.7 0 000 2.4v3.6l-.7.2-.6-.2v-2.8-3.2a1.6 1.6 0 000-.3.6.6 0 00-.5-.3h-.8a1.4 1.4 0 01-.7-.2l-.2-.2a1.7 1.7 0 010-.2.3.3 0 010-.3l.2-.1a9.5 9.5 0 011 0l1 .1h.1V128.3a1 1 0 01.1-.2.5.5 0 01.3-.1.7.7 0 00.2-.3zM145.8 127.8a3 3 0 012.4 1.5 5.8 5.8 0 011.2 3.5 3.3 3.3 0 01-2 2.8 6.6 6.6 0 01-3.3 1 1.8 1.8 0 01-1.7-1.2 5.7 5.7 0 01-.4-2.3 6.6 6.6 0 011-3.5 3.3 3.3 0 012.8-1.8zm-1.7 5.3a.5.5 0 010 .1l-.2.3a.9.9 0 00-.1.4 1 1 0 00.3.7l.5.2a1.6 1.6 0 00.6.2h.5c.5 0 1-.5 1.3-1.2a4 4 0 00.6-1.8 2.8 2.8 0 00-.4-1.6 1.6 1.6 0 00-1.4-.8h-.2c-.5 0-.9.4-1.1 1a8 8 0 00-.4 2.5zM155.8 123.7l.5-.2a.6.6 0 00.2 0h.6c.3 0 .4.3.4.8a1.8 1.8 0 010 .5l-.3 1a2 2 0 01-.2.6l-.3 1.3-.6 2.7a10.4 10.4 0 00-.3 2.2 1.5 1.5 0 001 1.5 5.7 5.7 0 002.3.4 13.6 13.6 0 002.8-.2l.6-.2.3.3a.8.8 0 01.1.4.7.7 0 010 .4l-.3.3a15 15 0 01-6.4 1.2h-.4a5 5 0 01-1.4-.1.9.9 0 01-.6-.6l.2-4.8a19.6 19.6 0 01.3-2l.7-3.3a6.7 6.7 0 01.8-2.2zM169.2 123.5c.8 0 1.5.7 2.2 2.2a20.9 20.9 0 011.4 4l1.3 5.9-.1.4a.8.8 0 01-.2.4 1.2 1.2 0 01-.3.2h-.3a1.7 1.7 0 01-.4 0l-.3-.1V135a3 3 0 00-.3-1.7 1.5 1.5 0 00-1.4-.5 11.6 11.6 0 00-3.6.3 2.2 2.2 0 00-1.1 1.4 4.7 4.7 0 01-1.4 2h-.7a.4.4 0 01-.4-.2 1 1 0 010-.4 5.4 5.4 0 01.4-1.9 49 49 0 001.4-4.8l.7-2.4a7.5 7.5 0 011-2.3 2.6 2.6 0 012-1zm-2 7l.7-.2h.4l1 .1a2.3 2.3 0 00.8-.1 5.2 5.2 0 001.2-.7 11 11 0 00-.8-2.5c-.4-1-.7-1.5-1-1.5h-.2c-.8 0-1.2.7-1.4 2a8 8 0 01-.8 2.8zM185.4 124l.5 2.6-.2 4.2a7.8 7.8 0 01-1.6 4 4.7 4.7 0 01-3.8 1.9 4.3 4.3 0 01-4-2 13.6 13.6 0 01-1.3-4.6l-.3-5.8a.6.6 0 01.3-.6l.3-.1.5-.1.6.1a1 1 0 01.5.4v1.7l-.1 2.4a13.4 13.4 0 00.5 4.6 4.4 4.4 0 00.6 1.2 2.3 2.3 0 002 1 2.5 2.5 0 001.8-.6 7.4 7.4 0 001-1.5 8.7 8.7 0 001.2-4.6 14.6 14.6 0 00-.3-2.7c0-.4-.2-.8-.3-1.1l.3-.4a.7.7 0 01.5-.2h.5a.8.8 0 01.6.1zM194.2 123.5h1l.5.7-2.7 1.6q-4 2.4-4 6a3.2 3.2 0 001 2.4 3.3 3.3 0 002.4 1q2.5 0 5.2-4.6a18.4 18.4 0 00-4.8-.6h-1c-.3 0-.5-.2-.6-.5q.1-.8 4.4-.9a13.4 13.4 0 012.4.2c.5 0 .8.5.8 1.4a5.3 5.3 0 01-1.5 3 14.9 14.9 0 01-2.4 2.3 5 5 0 01-3 1.2 4.1 4.1 0 01-3-1.9 5.7 5.7 0 01-1.5-3.4 7 7 0 012.2-4.9 12.5 12.5 0 014.6-3zM211.2 123.7v3.8l.1 5.4a6.4 6.4 0 01-.1 2 1.2 1.2 0 01-.7.6c-.3 0-.6-.3-.8-1a5 5 0 01-.2-1.2 4.8 4.8 0 01.3-1.6 18.9 18.9 0 00-2.4 0l-1.8.3a12 12 0 01-2-.3v1.2a7.3 7.3 0 010 1c0 .2 0 .5-.2.8v1.9H202v-4.9a4.5 4.5 0 00-1 .1l-.5.2-.3-.2-.6-.5a2.5 2.5 0 011.2-1.3l1-.2a4.7 4.7 0 00.2-1.3V124.6q0-.6.9-.7a.8.8 0 01.5.1.6.6 0 01.3.4l-.2.5v.4a2.2 2.2 0 000 .6l.2.5v.3l-.3 3h1.8a4.9 4.9 0 001.1 0l2-.3a1.9 1.9 0 01.5 0l1 .4a20.9 20.9 0 01.1-2.4l.2-1.6v-.5-.4a1.5 1.5 0 000-.4 5.3 5.3 0 00-.3-.6v-.2l.8-.3zM223.7 123.5c1.3 0 2.5.7 3.6 2.2a8.8 8.8 0 011.6 5.2c0 1.7-.9 3-2.8 4.2a9.7 9.7 0 01-5 1.6 2.6 2.6 0 01-2.6-2 8.5 8.5 0 01-.6-3.3 10 10 0 011.4-5.3 5 5 0 014.4-2.6zm-2.7 7.9v.1l-.2.4a1.3 1.3 0 00-.3.6 1.6 1.6 0 00.5 1l.7.4a2.7 2.7 0 001 .2h.8c.7-.1 1.3-.7 2-1.8a5.8 5.8 0 00.8-2.7 4.2 4.2 0 00-.7-2.4 2.4 2.4 0 00-2-1.2h-.3c-.8 0-1.3.5-1.7 1.6a12 12 0 00-.6 3.8zM241.1 124l.5 2.6-.2 4.2a7.8 7.8 0 01-1.6 4 4.7 4.7 0 01-3.9 1.9 4.3 4.3 0 01-3.9-2 13.6 13.6 0 01-1.3-4.6l-.3-5.8a.6.6 0 01.3-.6l.3-.1.5-.1.6.1a1 1 0 01.5.4v1.7l-.1 2.3a13.2 13.2 0 00.5 4.7 4.1 4.1 0 00.6 1.2 2.3 2.3 0 002 1 2.5 2.5 0 001.8-.6 7.4 7.4 0 001-1.5 8.7 8.7 0 001.2-4.6 14.6 14.6 0 00-.3-2.8c0-.4-.2-.7-.3-1l.3-.5a.7.7 0 01.5-.2h.5a.8.8 0 01.6.1zM247.3 123.5c.4 0 .6.3.7.9a3.8 3.8 0 00.3 1l.5.1h2.7l.3.3a1 1 0 01.1.6.7.7 0 01-.1.4l-.2.3h-1.4l-1.4-.3a.9.9 0 00-.3 0l-.2.5a32.6 32.6 0 00-.1 3.6v5.5l-1 .3-.9-.3-.1-2.1v-2-3l.1-1.9a1.9 1.9 0 000-.5.8.8 0 00-.8-.5l-.5.1h-.7a2 2 0 01-1.2-.3l-.2-.3v-.3a.5.5 0 01.1-.4l.3-.2a14.5 14.5 0 011.4.1l1.5.1V124.6l.1-.3a.8.8 0 01.2-.3.7.7 0 01.4-.2 1.1 1.1 0 00.4-.3zM259.3 123.7l.5-.2a.6.6 0 00.2 0h.6c.3 0 .4.3.4.8a1.8 1.8 0 010 .5l-.3 1a2 2 0 01-.2.6l-.4 1.3-.5 2.7a11 11 0 00-.3 2.2 1.5 1.5 0 001 1.5 5.7 5.7 0 002.3.4 13.7 13.7 0 002.8-.2l.6-.2.2.3a1 1 0 01.2.4.9.9 0 010 .4l-.3.3a15 15 0 01-6.4 1.2h-.4a5 5 0 01-1.4-.1.9.9 0 01-.6-.6l.2-4.8a17 17 0 01.3-2c.2-1.4.4-2.5.7-3.3a6.7 6.7 0 01.8-2.2zM272.8 123.5c1.3 0 2.5.7 3.6 2.2a8.7 8.7 0 011.7 5.2q0 2.5-2.8 4.2a9.8 9.8 0 01-5.1 1.6 2.6 2.6 0 01-2.5-2 8.5 8.5 0 01-.6-3.3 10 10 0 011.3-5.3 5 5 0 014.4-2.6zm-2.6 7.9v.1l-.3.4a1.2 1.2 0 00-.2.6 1.6 1.6 0 00.5 1l.6.4a2.7 2.7 0 001 .2h.8c.7-.1 1.3-.7 2-1.8a5.8 5.8 0 00.9-2.7 4 4 0 00-.7-2.4 2.4 2.4 0 00-2.1-1.2h-.3c-.7 0-1.3.6-1.7 1.6a12 12 0 00-.5 3.8zM290.3 124l.4 2.6-.1 4.2a7.8 7.8 0 01-1.7 4 4.8 4.8 0 01-3.8 1.9 4.3 4.3 0 01-4-2 13.6 13.6 0 01-1.2-4.6l-.4-5.8a.6.6 0 01.4-.6l.3-.1.5-.1.6.1a1 1 0 01.5.4v1.7l-.2 2.4a13.4 13.4 0 00.6 4.6 4.4 4.4 0 00.6 1.2 2.3 2.3 0 002 1 2.5 2.5 0 001.7-.6 7.3 7.3 0 001.1-1.5 8.8 8.8 0 001.1-4.6 13.8 13.8 0 00-.3-2.7 10.3 10.3 0 00-.2-1.1l.2-.4a.7.7 0 01.5-.2h.5a.8.8 0 01.6.1zM292.8 123.5l4.2.6a16.1 16.1 0 014.3 1 3.6 3.6 0 012 3.4 8.3 8.3 0 01-.4 3.1 5 5 0 01-2 2.4q-1 .7-5 2.7h-3l-.3-1.7a12.6 12.6 0 01-.1-1.6v-1.7-1.6V126.7a13.9 13.9 0 01.1-1.6l.2-1.6zm2 2.2l-.1 1.6c-.1.7 0 1.2 0 1.6l-.2 3v1.6a9.8 9.8 0 00.1 1.6l2.3-.5 3.1-2.1c.5-.4.9-1.7 1.3-4a1.5 1.5 0 00-1-1.3 8.2 8.2 0 00-2-.6 9.7 9.7 0 01-1.7-.6zM313.2 127.8c.5 0 1 .5 1.5 1.6a13.7 13.7 0 011 2.6l.8 4v.2a.6.6 0 01-.2.3.5.5 0 01-.2.1h-.7v-1a2 2 0 00-.2-1.1c-.1-.3-.4-.4-1-.4a7.8 7.8 0 00-2.3.2 1.5 1.5 0 00-.7 1 3.1 3.1 0 01-1 1.2h-.4a.3.3 0 01-.3 0 1 1 0 010-.3 3.5 3.5 0 01.2-1.3c.4-.9.7-2 1-3.2l.4-1.6a5.2 5.2 0 01.8-1.6 1.8 1.8 0 011.3-.7zm-1.4 4.7h1.5a1.3 1.3 0 00.5-.2 3 3 0 00.7-.4 7 7 0 00-.5-1.7c-.3-.7-.5-1-.6-1h-.2c-.5 0-.8.4-.9 1.3a5.3 5.3 0 01-.5 2zM325.4 128.7l-.2 2.5-.1 1.2a9 9 0 000 1 7.8 7.8 0 01-.4 2.3.8.8 0 01-.8.6 2 2 0 01-1-.3l-3.7-4.8a.3.3 0 00-.2-.1s-.2.3-.3 1a10.2 10.2 0 000 1 7.8 7.8 0 00.3 2.9v.2a.9.9 0 01-.2.3.5.5 0 01-.5.2.8.8 0 01-.5-.3l-.3-.3-.5-2.3a5.3 5.3 0 010-1 4.8 4.8 0 01.5-2.4c.4-.6.8-1 1.3-1q.5 0 1.7 1.4a143.9 143.9 0 012.8 3.4c.1 0 0 0 0-.2v-3.7a4.7 4.7 0 01.3-1.7l.4-.4a.7.7 0 01.4-.3.7.7 0 01.6.3l.4.5zM326.9 127.8l2.8.5a10.2 10.2 0 012.8.6 2.4 2.4 0 011.4 2.3 5.6 5.6 0 01-.3 2.1 3.4 3.4 0 01-1.4 1.6l-3.3 1.8h-2l-.1-1.2a8 8 0 010-1v-1.1-1.1-2.3a8.7 8.7 0 010-1v-1.2zm1.3 1.5v2.2l-.2 2v1a7.8 7.8 0 00.1 1.1l1.5-.3 2.1-1.4a5.5 5.5 0 00.9-2.7 1 1 0 00-.7-.8 5.8 5.8 0 00-1.3-.5 7.3 7.3 0 01-1.2-.3zM344.2 123.5a6 6 0 012.5.8c1.1.6 1.7 1.1 1.7 1.6a.4.4 0 01-.1.3 10.8 10.8 0 00-2.9-.5 3.7 3.7 0 00-.7 0h-.3a.3.3 0 00-.2.1c-1.8 0-3 .3-3.4.9s-.7 1.7-.7 3.5a3.4 3.4 0 002.1 3.2 16.8 16.8 0 004 1.1q2.7.5 2.7 1l-.5 1-1.5.1a13.2 13.2 0 01-4.7-.7 5.5 5.5 0 01-3.4-3 8.5 8.5 0 01-.6-3 6.3 6.3 0 011.7-4.5 5.5 5.5 0 014.3-2z" transform="translate(-1 -2.9)"/><path d="M359.3 123.7v9.2a7.2 7.2 0 010 2 1.2 1.2 0 01-.8.6c-.3 0-.6-.3-.8-1a5 5 0 01-.1-1.2 4.8 4.8 0 01.2-1.6 19 19 0 00-2.4 0l-1.8.3a12.1 12.1 0 01-2-.3v1.2a7 7 0 010 1c0 .2 0 .5-.2.8v1.9H350l-.2-2.5.2-2.4a4.6 4.6 0 00-1.1.1l-.5.2-.3-.2-.6-.5a2.5 2.5 0 011.2-1.3l1-.2a4.7 4.7 0 00.2-1.3V124.6q0-.6.9-.7a.8.8 0 01.5.1.7.7 0 01.3.4l-.2.5v.4a2.2 2.2 0 000 .6l.1.5v.3l-.2 3h1.8a4.8 4.8 0 001.1 0l2-.3a2 2 0 01.4 0l1 .4a20.9 20.9 0 01.2-2.4l.2-1.6v-.5a4 4 0 00-.1-.4 2 2 0 000-.4 5.9 5.9 0 00-.2-.6v-.2l.8-.3zM366.9 123.5c1.3 0 2.5.7 3.6 2.2a8.8 8.8 0 011.7 5.2q0 2.5-2.9 4.2a9.7 9.7 0 01-5 1.6 2.6 2.6 0 01-2.5-2 8.5 8.5 0 01-.7-3.3 10 10 0 011.4-5.3 5 5 0 014.4-2.6zm-2.7 7.9a1.3 1.3 0 000 .1l-.2.4a1.2 1.2 0 00-.3.6 1.6 1.6 0 00.5 1l.7.4a2.7 2.7 0 001 .2h.8c.6-.1 1.3-.7 2-1.8a5.8 5.8 0 00.8-2.7 4.2 4.2 0 00-.7-2.4 2.4 2.4 0 00-2-1.2h-.3c-.8 0-1.3.5-1.7 1.6a11.7 11.7 0 00-.6 3.8zM378.5 123.5a2.6 2.6 0 012 1 3.5 3.5 0 01.9 2.2 3.2 3.2 0 01-1.4 2.7l-2.6 2 3.9 2.8a2.2 2.2 0 01.4 1.2 1.4 1.4 0 01-1 .7 1.9 1.9 0 01-1.3-.6l-1.8-1.8a16 16 0 00-2.1-1.6l.1 4.2-1 .4-.8-1V129a5.8 5.8 0 011.3-3.7 4.2 4.2 0 013.4-1.8zm-3.1 4.8v1.6a4 4 0 002.5-.9 5.7 5.7 0 001.7-2 3.1 3.1 0 00-.4-1c-.3-.4-.6-.7-.8-.7a3.1 3.1 0 00-2 1 2.5 2.5 0 00-1 2zM387 123.5c.4 0 .6.3.8.9a4.1 4.1 0 00.2 1l.5.1h2.7l.3.3a1 1 0 01.1.6.8.8 0 01-.1.4l-.2.3h-1.4l-1.3-.3a.8.8 0 00-.4 0l-.2.5a29.9 29.9 0 00-.1 3.6v5.5l-1 .3-.9-.3-.1-2.1v-2-3l.1-1.9a2.2 2.2 0 000-.5.9.9 0 00-.8-.5l-.5.1h-.7a2 2 0 01-1.2-.3l-.2-.3v-.3a.5.5 0 01.1-.4l.3-.2a14.5 14.5 0 011.4.1l1.5.1.1-.1v-.8a.8.8 0 01.2-.3l.4-.2a1.1 1.1 0 00.5-.3zM394.3 123.7l.5-.2a.7.7 0 00.2 0h.6c.3 0 .4.3.4.8a2.3 2.3 0 010 .5l-.3 1a2.6 2.6 0 01-.2.6l-.4 1.3-.6 2.7a10.4 10.4 0 00-.2 2.2 1.5 1.5 0 001 1.5 5.7 5.7 0 002.3.4 13.6 13.6 0 002.7-.2l.7-.2.2.3a1 1 0 01.2.4.7.7 0 01-.1.4l-.2.3a15 15 0 01-6.4 1.2h-.5a5 5 0 01-1.3-.1.9.9 0 01-.6-.6l.2-4.8a17 17 0 01.2-2c.3-1.4.5-2.5.8-3.3a6.3 6.3 0 01.8-2.2z" transform="translate(-1 -2.9)"/><path d="M407.6 123.3q1.9 0 2 1l-.5.9a12.5 12.5 0 01-3.2.7 1.4 1.4 0 00-1.2.8 3 3 0 00-.2 1.4v1.7a24.5 24.5 0 014.5-1c.6 0 .9.2.9.6a3.3 3.3 0 01-.3 1l-3 .8c-1.5.5-2.3.9-2.3 1.4a2.9 2.9 0 00.4 1.5 1.4 1.4 0 001.3.8 14.7 14.7 0 002.2-.3 16.6 16.6 0 012.3-.2c1 0 1.5.2 1.6.9v.1a.3.3 0 01.1.2.4.4 0 01-.1.3 1.7 1.7 0 01-.8.3l-2.4.4-1.4.2H404.4a2.4 2.4 0 01-1-.2 1.3 1.3 0 01-.3-.2l-.2-.3-.3-.4v-2.6c0-.8 0-1.2-.3-1.2l-.4.1a3 3 0 01-.6.1 2.5 2.5 0 01-1.5-.5v-1.2c.3 0 .4-.2.4-.4s.7-.2 2.1-.2v-2l-.2-1.5a2.4 2.4 0 011.1-2.3 5.4 5.4 0 012.6-.6l1.8-.1z" transform="translate(-1 -2.9)"/></g></g></svg>