<svg id="Layer_1" data-name="Layer 1" xmlns="http://www.w3.org/2000/svg" viewBox="0 0 435.85 144.23"><defs><style>.cls-1{fill:#1587cf;}.cls-2{fill:#ffce1a;}</style></defs><title>Untitled-1</title><path class="cls-1" d="M69.75,115.09c.36,0,.64.34.83.93a4.19,4.19,0,0,0,.4,1l.58.08.94,0,1.11-.16.86-.21.33.34a1.11,1.11,0,0,1,.22.63.77.77,0,0,1-.09.48l-.2.35-.92.09c-.14,0-.34,0-.58,0l-1.49,0a1,1,0,0,0-.37.11c-.09,0-.15.22-.2.51a34.42,34.42,0,0,0,.28,3.9L72,129l-1.06.47-.94-.25L69.63,127l-.27-2.23c-.06-.43-.13-1.47-.22-3.11l-.12-2.1a2.2,2.2,0,0,0-.12-.63.91.91,0,0,0-.84-.38l-.6.15-.7.14a2.2,2.2,0,0,1-1.32-.27l-.24-.28a2.11,2.11,0,0,1-.12-.33.59.59,0,0,1,.11-.45l.27-.28c.34,0,.87,0,1.57,0a15.63,15.63,0,0,0,1.58-.05c.07,0,.11,0,.12-.13l-.07-.25,0-.25,0-.34a.86.86,0,0,1,.16-.38c0-.09.18-.18.41-.27A1.22,1.22,0,0,0,69.75,115.09Z" transform="translate(-65.07 -69.31)"/><path class="cls-1" d="M86.29,113.71l.42,4.17.69,5.83a7,7,0,0,1,.06,2.11,1.3,1.3,0,0,1-.71.8c-.36,0-.67-.28-.94-.94a5.15,5.15,0,0,1-.33-1.4,5.57,5.57,0,0,1,.08-1.78,20,20,0,0,0-2.58.39l-1.93.44a12.93,12.93,0,0,1-2.25-.06l.18,1.26a8.25,8.25,0,0,1,0,1.12c0,.22,0,.51,0,.89l.07,2-1.35.2-.4-2.69-.14-2.64a4.91,4.91,0,0,0-1.13.22l-.53.31-.32-.19-.71-.47a2.8,2.8,0,0,1,1.15-1.56l1.1-.4a4.83,4.83,0,0,0,.09-1.42l-.16-2.34-.18-1.84c-.05-.48.22-.76.8-.84a.85.85,0,0,1,.53,0,.82.82,0,0,1,.37.42l-.13.52v.47a2.29,2.29,0,0,0,.16.65l.14.53,0,.27.13,3.25,2-.2a4.62,4.62,0,0,0,1.19-.21l2.06-.42a1.64,1.64,0,0,1,.58,0l1.06.23a21.82,21.82,0,0,1-.07-2.6l0-1.79,0-.55a4.14,4.14,0,0,0-.14-.44,1.74,1.74,0,0,0-.09-.43c-.06-.15-.15-.35-.28-.61l-.08-.21.84-.35Z" transform="translate(-65.07 -69.31)"/><path class="cls-1" d="M94.18,112.65c.88-.1,1.77.64,2.66,2.21a24.27,24.27,0,0,1,2,4.18l2,6.25-.07.48a1.07,1.07,0,0,1-.21.48,1.12,1.12,0,0,1-.32.23l-.3.06a1.67,1.67,0,0,1-.44,0l-.36-.07-.09-.82-.06-.79a3.34,3.34,0,0,0-.5-1.78,1.63,1.63,0,0,0-1.53-.43,12.83,12.83,0,0,0-3.86.72,2.45,2.45,0,0,0-1,1.62,5.08,5.08,0,0,1-1.32,2.23l-.35.14-.39.08a.47.47,0,0,1-.43-.14,1.36,1.36,0,0,1-.1-.42,6,6,0,0,1,.17-2.12,53.17,53.17,0,0,0,1.09-5.43c.14-.88.27-1.76.4-2.64a8.12,8.12,0,0,1,1-2.66A2.8,2.8,0,0,1,94.18,112.65Zm-1.45,7.76.73-.18.44-.08,1.19,0a2.45,2.45,0,0,0,.83-.25,5.15,5.15,0,0,0,1.15-.8,12.12,12.12,0,0,0-1.13-2.71c-.54-1-.93-1.52-1.16-1.51h-.23l-.13,0c-.76.07-1.16.84-1.18,2.3A8.47,8.47,0,0,1,92.73,120.41Z" transform="translate(-65.07 -69.31)"/><path class="cls-1" d="M103.53,111.71c.36,0,.64.34.83.93a4.19,4.19,0,0,0,.4,1l.58.09.94,0,1.11-.17.86-.21.33.35a1.08,1.08,0,0,1,.22.62.77.77,0,0,1-.09.48l-.2.35-.92.09H107l-1.49,0a1,1,0,0,0-.37.1c-.09,0-.15.22-.2.51a34.42,34.42,0,0,0,.28,3.9l.59,5.89-1.06.47-.94-.25-.41-2.24-.27-2.23c-.06-.43-.13-1.46-.22-3.11l-.12-2.1a2.13,2.13,0,0,0-.12-.62.93.93,0,0,0-.84-.39l-.6.15-.7.14a2.26,2.26,0,0,1-1.32-.26l-.24-.29a2.11,2.11,0,0,1-.12-.33.55.55,0,0,1,.11-.44l.26-.28a13.78,13.78,0,0,1,1.58,0c.71,0,1.24,0,1.58,0a.14.14,0,0,0,.12-.14l-.07-.25,0-.25,0-.34a.91.91,0,0,1,.16-.38c0-.09.18-.18.41-.27A1.22,1.22,0,0,0,103.53,111.71Z" transform="translate(-65.07 -69.31)"/><path class="cls-1" d="M130,123.43a1.31,1.31,0,0,1-.49.17,1.85,1.85,0,0,1-.66,0l-.54-.22a4.62,4.62,0,0,1-1.55-2.43L126,118a3.93,3.93,0,0,0-1.81-2.28c-.22,0-.59.74-1.12,2.35-.9,2.71-1.46,4.34-1.68,4.91-.29.73-.69,1.13-1.22,1.19a.82.82,0,0,1-.52-.16,2,2,0,0,1-.57-.6,37.94,37.94,0,0,1-1.7-4.35,36.55,36.55,0,0,0-1.62-4.25l-.61-1.28a3.82,3.82,0,0,0-.14-.48l0-.25a1.68,1.68,0,0,1,.17-.85s.11-.15.24-.31l.58-.55.3-.08c.64-.06,1.16.69,1.55,2.25,0,.12.16.85.43,2.2s.46,2.25.55,2.59c.37,1.27.79,1.9,1.25,1.86a.87.87,0,0,0,.42-.17,25.45,25.45,0,0,0,1.06-2.82,14.36,14.36,0,0,1,1.22-2.83,3.62,3.62,0,0,1,1.42-1.55l.83-.38c.43,0,.85.37,1.26,1.22.28.58.83,1.9,1.62,4a15.36,15.36,0,0,0,1.33,2.92,1.23,1.23,0,0,0,.4.22c.51-.06.86-1.4,1.06-4a32,32,0,0,0,.07-4.91,3.23,3.23,0,0,0-.32-1.36c.14-.78.53-1.2,1.16-1.26l.6,0a.9.9,0,0,1,.72.47,6.64,6.64,0,0,1,.28.86l0,4.44-.84,4.15a14.44,14.44,0,0,1-.68,2.53A4.78,4.78,0,0,1,130,123.43Z" transform="translate(-65.07 -69.31)"/><path class="cls-1" d="M140.41,108c1.41-.16,2.79.53,4.16,2a9.47,9.47,0,0,1,2.38,5.49q.28,2.64-2.63,4.85a10.64,10.64,0,0,1-5.35,2.22,2.88,2.88,0,0,1-2.89-1.83,9.18,9.18,0,0,1-1-3.56,11.06,11.06,0,0,1,.9-5.83A5.38,5.38,0,0,1,140.41,108Zm-2,8.88,0,.15-.21.44a1.43,1.43,0,0,0-.16.73,1.74,1.74,0,0,0,.65,1.06l.79.32a2.7,2.7,0,0,0,1,.1l.85-.16c.74-.14,1.39-.85,2-2.15a6.32,6.32,0,0,0,.66-3,4.53,4.53,0,0,0-1-2.5,2.62,2.62,0,0,0-2.35-1.13l-.36.08c-.77.07-1.31.72-1.61,1.95A13.27,13.27,0,0,0,138.4,116.91Z" transform="translate(-65.07 -69.31)"/><path class="cls-1" d="M159.39,106.82l.76,2.7.31,4.57a8.46,8.46,0,0,1-1.33,4.56,5.19,5.19,0,0,1-4,2.37,4.64,4.64,0,0,1-4.5-1.76,14.57,14.57,0,0,1-1.89-4.8l-1-6.28a.64.64,0,0,1,.33-.67l.33-.16.49-.18.69.1a1.22,1.22,0,0,1,.6.34l.1,1.92.18,2.52a14.29,14.29,0,0,0,1.1,5,4.44,4.44,0,0,0,.77,1.19,2.48,2.48,0,0,0,2.23.85,2.7,2.7,0,0,0,1.81-.8,8,8,0,0,0,1-1.77,9.45,9.45,0,0,0,.69-5.08,16.38,16.38,0,0,0-.59-3c-.13-.41-.26-.79-.41-1.15l.19-.47a.79.79,0,0,1,.54-.27l.58-.12a.86.86,0,0,1,.62.09Z" transform="translate(-65.07 -69.31)"/><path class="cls-1" d="M163.75,106l.51-.23a1.05,1.05,0,0,0,.24-.06l.34-.09.31,0c.29,0,.47.29.55.81a2.07,2.07,0,0,1,0,.56s-.07.4-.22,1.09a2.51,2.51,0,0,1-.2.58l-.24,1.47-.33,3a11.46,11.46,0,0,0,0,2.48,1.65,1.65,0,0,0,1.16,1.48,6.54,6.54,0,0,0,2.62.21,16.14,16.14,0,0,0,3-.59l.68-.21.3.22a1.17,1.17,0,0,1,.23.48,1,1,0,0,1-.07.37l-.22.39a16.4,16.4,0,0,1-6.78,2l-.48,0a5.75,5.75,0,0,1-1.51,0,1,1,0,0,1-.67-.64l-.36-5.19a21.31,21.31,0,0,1,.09-2.17c.13-1.54.26-2.77.41-3.67A7.32,7.32,0,0,1,163.75,106Z" transform="translate(-65.07 -69.31)"/><path class="cls-1" d="M172.79,104.79c.68.07,2.2.15,4.55.23a17,17,0,0,1,4.76.61,3.87,3.87,0,0,1,2.63,3.53,9.14,9.14,0,0,1-.18,3.41,5.54,5.54,0,0,1-1.93,2.76q-1.08.86-5.08,3.46l-3.32.33-.42-1.84a15.93,15.93,0,0,1-.28-1.73c0-.39-.11-1-.23-1.74s-.19-1.35-.22-1.74c-.06-.6-.1-1-.12-1.36l-.14-2.32a17.23,17.23,0,0,1-.08-1.81C172.74,106.2,172.76,105.6,172.79,104.79Zm2.32,2.19c0,.41.07,1,.1,1.74s0,1.39.08,1.75l.18,3.37s0,.33.1.89c0,.2.06.46.1.77a11.93,11.93,0,0,0,.35,1.72l2.39-.75,3.17-2.68c.45-.5.77-2,.95-4.41a1.61,1.61,0,0,0-1.15-1.31,8.79,8.79,0,0,0-2.19-.49,10.72,10.72,0,0,1-2-.41Z" transform="translate(-65.07 -69.31)"/><path class="cls-1" d="M196.11,102.46a2.83,2.83,0,0,1,2.2,1,3.81,3.81,0,0,1,1.27,2.2,3.52,3.52,0,0,1-1.21,3.08l-2.57,2.39,4.47,2.58a2.39,2.39,0,0,1,.64,1.26,1.57,1.57,0,0,1-1.09.94,2.05,2.05,0,0,1-1.43-.57l-2.19-1.68a18.34,18.34,0,0,0-2.46-1.6l.64,4.55-1.1.6-.92-1-.74-7.4a6.39,6.39,0,0,1,.92-4.18A4.56,4.56,0,0,1,196.11,102.46Zm-2.88,5.62.28,1.69a4.35,4.35,0,0,0,2.56-1.2,6.08,6.08,0,0,0,1.59-2.34,3.61,3.61,0,0,0-.57-1.07c-.34-.46-.65-.67-.94-.65a3.45,3.45,0,0,0-2,1.2A2.76,2.76,0,0,0,193.23,108.08Z" transform="translate(-65.07 -69.31)"/><path class="cls-1" d="M207.27,101.16c1.38-.15,2.12.14,2.22.86l-.35,1a13.45,13.45,0,0,1-3.34,1.17,1.59,1.59,0,0,0-1.25.94,3.48,3.48,0,0,0-.07,1.6c.25,1.89.34,2.49.27,1.78a28.44,28.44,0,0,1,4.69-1.54c.61-.07.94.12,1,.58a3.53,3.53,0,0,1-.18,1.08L207,109.87c-1.57.62-2.34,1.2-2.3,1.71a3.24,3.24,0,0,0,.53,1.67,1.52,1.52,0,0,0,1.49.66,17,17,0,0,0,2.44-.52,16.57,16.57,0,0,1,2.39-.54c1.12-.14,1.74.14,1.84.83l.09.11a.43.43,0,0,1,.07.21.45.45,0,0,1-.11.31,1.75,1.75,0,0,1-.81.4l-2.53.74-1.47.33c-.2,0-.48.1-.82.15l-.52.06-2,.13a2.57,2.57,0,0,1-1.22-.11,2.14,2.14,0,0,1-.26-.19l-.22-.22-.33-.43-.28-2.78c-.09-.9-.25-1.34-.48-1.33l-.43.19a2.82,2.82,0,0,1-.65.19,2.63,2.63,0,0,1-1.65-.41l-.13-1.33c.23-.08.34-.22.33-.41s.76-.37,2.32-.54c0-.23-.12-.9-.31-2l-.28-1.69a2.63,2.63,0,0,1,.9-2.62,6,6,0,0,1,2.76-1C205.86,101.34,206.5,101.25,207.27,101.16Z" transform="translate(-65.07 -69.31)"/><path class="cls-1" d="M219.17,100.42a7.78,7.78,0,0,1,4.52,1.1q2.56,1.44,2.78,3.49a6.39,6.39,0,0,1-1,4.17,10,10,0,0,1-2.94,3.18l-1.53,1-.07.23v.38a4.44,4.44,0,0,0,1.15,2.27l.1.21.08.26c0,.5-.35.81-1.18.91-.24,0-.44-.12-.62-.42s-.13-.31-.16-.4-.09-.29-.19-.58a6,6,0,0,0-2.86-2.5l-3-1.12c-.81-.55-1.3-1.69-1.48-3.41a8.48,8.48,0,0,1,1.44-5.7A6.48,6.48,0,0,1,219.17,100.42Zm-4.45,8.19a4,4,0,0,0,1,2.46,8.13,8.13,0,0,0,2.29,1.51l.26-.6c.13-1.1.3-1.66.5-1.68s.8.49,1.44,1.55a7.49,7.49,0,0,0,3.13-2.62,6,6,0,0,0,.94-3.93,2.78,2.78,0,0,0-1.65-2.28,5,5,0,0,0-2.88-.58,5.36,5.36,0,0,0-3.78,2A5.51,5.51,0,0,0,214.72,108.61Z" transform="translate(-65.07 -69.31)"/><path class="cls-1" d="M239,98.85l.76,2.71.31,4.57a8.49,8.49,0,0,1-1.34,4.56,5.15,5.15,0,0,1-4,2.37,4.66,4.66,0,0,1-4.5-1.76,15.24,15.24,0,0,1-1.89-4.8l-1-6.29a.66.66,0,0,1,.33-.67,2,2,0,0,0,.32-.15l.49-.18.7.09a1.22,1.22,0,0,1,.59.34l.11,1.93.18,2.51a14.3,14.3,0,0,0,1.1,5,4.6,4.6,0,0,0,.77,1.19,2.49,2.49,0,0,0,2.23.84,2.65,2.65,0,0,0,1.8-.79,7.57,7.57,0,0,0,1.06-1.77,9.36,9.36,0,0,0,.68-5.08,15.42,15.42,0,0,0-.58-3c-.13-.41-.26-.8-.41-1.15l.19-.48a.84.84,0,0,1,.53-.27l.59-.11a.93.93,0,0,1,.62.08Z" transform="translate(-65.07 -69.31)"/><path class="cls-1" d="M245.88,97.48l1.88-.19a1,1,0,0,1,.27.54c0,.13-.37.4-1.16.82a1.72,1.72,0,0,0-1,1.93l.09.57.32,2.28c0,.31.09.76.17,1.36.15.84.25,1.46.3,1.87a9.74,9.74,0,0,0,.34,1.61c.06.19.17.54.34,1a3.27,3.27,0,0,1,1.34.18c.39.11.6.31.64.6a2.07,2.07,0,0,1-.34.94l-.18.36a.62.62,0,0,1-.33.29l-.75-.23a4.32,4.32,0,0,0-.73-.06l-1.8.29a1.88,1.88,0,0,1-2-.74.8.8,0,0,1,.53-1,7.42,7.42,0,0,1,1.44-.27l.54-.06c-.05-.51-.15-1.28-.3-2.32s-.24-1.81-.29-2.32c0-.32-.22-1.27-.58-2.86l-.26-1.18a3.51,3.51,0,0,1,.2-1.41l-1.23.12-1.52.15c-.46,0-.69,0-.71-.16a.67.67,0,0,0,0-.17.48.48,0,0,1,.11-.22l.26-.55a4.41,4.41,0,0,1,2.39-.88c.51-.06.85-.11,1-.14A4.75,4.75,0,0,0,245.88,97.48Z" transform="translate(-65.07 -69.31)"/><path class="cls-1" d="M255,96.56a2.83,2.83,0,0,1,2.2,1,3.74,3.74,0,0,1,1.27,2.19,3.53,3.53,0,0,1-1.21,3.09l-2.56,2.39,4.47,2.58a2.43,2.43,0,0,1,.63,1.25,1.49,1.49,0,0,1-1.08.94,2,2,0,0,1-1.43-.56l-2.2-1.68a18.3,18.3,0,0,0-2.45-1.6l.63,4.55-1.09.6-.92-1-.74-7.4a6.34,6.34,0,0,1,.92-4.18A4.56,4.56,0,0,1,255,96.56Zm-2.87,5.63.28,1.69a4.38,4.38,0,0,0,2.56-1.2,6.27,6.27,0,0,0,1.59-2.35,3.75,3.75,0,0,0-.58-1.06c-.33-.46-.65-.68-.93-.65a3.42,3.42,0,0,0-2,1.2A2.75,2.75,0,0,0,252.16,102.19Z" transform="translate(-65.07 -69.31)"/><path class="cls-1" d="M266.19,95.27c1.39-.15,2.13.14,2.22.86l-.35,1a14.15,14.15,0,0,1-3.34,1.17,1.56,1.56,0,0,0-1.24.94,3.46,3.46,0,0,0-.08,1.6c.25,1.89.34,2.48.27,1.78a26.5,26.5,0,0,1,4.7-1.54c.61-.07.93.12,1,.57a3.54,3.54,0,0,1-.18,1.09L266,104c-1.58.63-2.35,1.2-2.31,1.72a3.36,3.36,0,0,0,.53,1.66,1.52,1.52,0,0,0,1.5.67,15.72,15.72,0,0,0,2.43-.53,17.41,17.41,0,0,1,2.4-.53c1.12-.14,1.73.14,1.84.83l.08.11a.32.32,0,0,1,.08.21.39.39,0,0,1-.12.3,1.74,1.74,0,0,1-.81.41l-2.53.74-1.47.33c-.2,0-.47.1-.81.15l-.52,0-2.05.14a2.78,2.78,0,0,1-1.23-.11,2.19,2.19,0,0,1-.25-.2l-.22-.21-.33-.44-.28-2.77c-.09-.9-.25-1.34-.48-1.33l-.44.19a2.82,2.82,0,0,1-.65.19,2.66,2.66,0,0,1-1.64-.41l-.13-1.33c.23-.08.34-.22.33-.41s.76-.37,2.32-.54c0-.23-.13-.91-.31-2l-.28-1.69a2.65,2.65,0,0,1,.9-2.63,5.9,5.9,0,0,1,2.76-1C264.79,95.44,265.43,95.35,266.19,95.27Z" transform="translate(-65.07 -69.31)"/><path class="cls-1" d="M285.13,88.73a7.86,7.86,0,0,1,2.44.07c1.08.21,1.66.67,1.73,1.37a2.28,2.28,0,0,1-.29,1.19h-1l-.41,0-.59.06a8.17,8.17,0,0,0-3.22.9,2,2,0,0,0-1.14,2.06c0,.4,1,1,2.91,1.88,2.34,1,3.62,1.65,3.83,1.81a5.16,5.16,0,0,1,1.85,3.88,4.59,4.59,0,0,1-2,4.25,8.71,8.71,0,0,1-4.57,1.83,8.84,8.84,0,0,1-3.8-.44c-1.25-.42-1.93-1.11-2-2.08l-.11-1.15c0-.43.06-.66.32-.68a16.27,16.27,0,0,0,7.52.91,1.5,1.5,0,0,0,1.08-1.17,5.92,5.92,0,0,0,0-1.71,3,3,0,0,0-2.28-2.55l-3.9-1.39a3.78,3.78,0,0,1-2.36-3c-.12-1.1.58-2.36,2.11-3.8A7.44,7.44,0,0,1,285.13,88.73Z" transform="translate(-65.07 -69.31)"/><path class="cls-1" d="M300.46,87.2c1.87-.21,3.72.71,5.54,2.74a12.6,12.6,0,0,1,3.18,7.31q.38,3.54-3.5,6.48a14.24,14.24,0,0,1-7.13,3c-1.6.18-2.88-.63-3.87-2.43a12.61,12.61,0,0,1-1.37-4.76,14.63,14.63,0,0,1,1.21-7.77A7.16,7.16,0,0,1,300.46,87.2ZM297.78,99a1.82,1.82,0,0,1,0,.2l-.28.6a2,2,0,0,0-.22,1,2.34,2.34,0,0,0,.87,1.41l1,.42a3.56,3.56,0,0,0,1.39.13l1.14-.21c1-.18,1.85-1.13,2.61-2.86a8.48,8.48,0,0,0,.88-4,6.11,6.11,0,0,0-1.35-3.34,3.48,3.48,0,0,0-3.14-1.49l-.47.1c-1,.1-1.75,1-2.15,2.6A17.17,17.17,0,0,0,297.78,99Z" transform="translate(-65.07 -69.31)"/><path class="cls-1" d="M318,85.81c.76-.08,1.53.57,2.29,1.94l2.28,5.18a17.21,17.21,0,0,0,2.82,4.54,13.58,13.58,0,0,0,3.31-4.24,34.89,34.89,0,0,0,1.83-5.08c.61-2,1.17-3,1.69-3.11a1.88,1.88,0,0,1,1.26.5,13.89,13.89,0,0,1,2.49,4.38q.34,1,1.27,5a33.55,33.55,0,0,0,2,6.33l.69,1.15a3.15,3.15,0,0,1,.44,1.29c.08.76-.32,1.19-1.2,1.28h-.77l-.64-.13a9.37,9.37,0,0,1-1.87-3.53q-.51-1.47-1.23-4.62c-.47-2-.83-3.44-1.1-4.19a6.87,6.87,0,0,0-3.51,3l-2,3.45a4.55,4.55,0,0,1-3.4,1.94q-1.61.15-2-.57c-.19-.33-.72-1.65-1.6-3.94a23.79,23.79,0,0,0-2.94-5.59A9.5,9.5,0,0,0,315,95.49a26.4,26.4,0,0,0-.82,5.75c-.12,2.09-.37,3.16-.77,3.21s-1-.36-1.88-1.23c-.15-.07-.25-.31-.29-.74a20.21,20.21,0,0,1,.69-5.88,32.65,32.65,0,0,1,2.5-7.32Q316,86,318,85.81Z" transform="translate(-65.07 -69.31)"/><path class="cls-1" d="M349.65,82c1.85-.2,2.83.18,3,1.15l-.47,1.35a18.4,18.4,0,0,1-4.45,1.55A2.1,2.1,0,0,0,346,87.34a4.63,4.63,0,0,0-.1,2.14q.49,3.78.36,2.37a37,37,0,0,1,6.26-2c.81-.09,1.24.16,1.31.77a5.17,5.17,0,0,1-.24,1.44l-4.28,1.64c-2.1.83-3.13,1.6-3.08,2.28a4.45,4.45,0,0,0,.71,2.22,2,2,0,0,0,2,.89,22.18,22.18,0,0,0,3.25-.7,25.07,25.07,0,0,1,3.2-.72c1.49-.18,2.31.19,2.45,1.11l.11.16a.44.44,0,0,1,.1.28.59.59,0,0,1-.15.4,2.39,2.39,0,0,1-1.08.54l-3.38,1-2,.43-1.09.21-.69.07L347,102a3.52,3.52,0,0,1-1.63-.16,1.56,1.56,0,0,1-.34-.25l-.29-.29-.45-.58-.37-3.7c-.12-1.19-.33-1.78-.64-1.77l-.58.25a3.77,3.77,0,0,1-.87.26,3.55,3.55,0,0,1-2.19-.55l-.18-1.77c.31-.11.46-.3.44-.55s1-.5,3.1-.72c0-.3-.17-1.21-.41-2.71l-.37-2.25a3.5,3.5,0,0,1,1.19-3.5,8,8,0,0,1,3.68-1.31C347.78,82.27,348.63,82.16,349.65,82Z" transform="translate(-65.07 -69.31)"/><path class="cls-1" d="M372.67,80a7.27,7.27,0,0,1,2.44.07c1.09.21,1.66.67,1.73,1.37a2.07,2.07,0,0,1-.29,1.18h-1l-.41,0-.6.06a8.46,8.46,0,0,0-3.21.9,2,2,0,0,0-1.14,2.07c0,.4,1,1,2.91,1.87,2.34,1.06,3.61,1.66,3.82,1.81a5.15,5.15,0,0,1,1.86,3.89,4.6,4.6,0,0,1-2.06,4.25,8.64,8.64,0,0,1-4.57,1.83,9,9,0,0,1-3.79-.44c-1.26-.42-1.93-1.12-2-2.09l-.12-1.15c0-.43.07-.65.32-.68a16.31,16.31,0,0,0,7.52.91,1.49,1.49,0,0,0,1.09-1.17,5.92,5.92,0,0,0,0-1.71,3,3,0,0,0-2.28-2.54l-3.9-1.4a3.75,3.75,0,0,1-2.36-3q-.18-1.65,2.11-3.81A7.39,7.39,0,0,1,372.67,80Z" transform="translate(-65.07 -69.31)"/><path class="cls-1" d="M388,78.44q2.82-.3,5.55,2.74a12.66,12.66,0,0,1,3.18,7.32q.38,3.52-3.51,6.47a14.19,14.19,0,0,1-7.13,3q-2.38.25-3.86-2.43a12.48,12.48,0,0,1-1.37-4.76,14.73,14.73,0,0,1,1.2-7.77A7.21,7.21,0,0,1,388,78.44Zm-2.67,11.85c0,.1,0,.16-.05.2s-.11.23-.28.59a1.8,1.8,0,0,0-.22,1,2.3,2.3,0,0,0,.87,1.4l1.05.43a3.74,3.74,0,0,0,1.39.13l1.14-.21c1-.18,1.84-1.14,2.6-2.87a8.32,8.32,0,0,0,.88-4,6,6,0,0,0-1.34-3.34,3.46,3.46,0,0,0-3.14-1.49l-.48.09c-1,.1-1.75,1-2.15,2.6A17.56,17.56,0,0,0,385.33,90.29Z" transform="translate(-65.07 -69.31)"/><path class="cls-1" d="M404.82,76.76a3.79,3.79,0,0,1,2.93,1.34A5.08,5.08,0,0,1,409.44,81a4.73,4.73,0,0,1-1.62,4.12l-3.42,3.18,6,3.43a3.27,3.27,0,0,1,.84,1.68,2,2,0,0,1-1.44,1.25,2.69,2.69,0,0,1-1.91-.74l-2.93-2.25a24.45,24.45,0,0,0-3.27-2.13l.84,6.07-1.46.8-1.22-1.35-1-9.87a8.45,8.45,0,0,1,1.23-5.57A6.1,6.1,0,0,1,404.82,76.76ZM401,84.26l.37,2.26a5.9,5.9,0,0,0,3.41-1.6,8.41,8.41,0,0,0,2.13-3.13,5,5,0,0,0-.77-1.42c-.45-.61-.87-.9-1.25-.86a4.56,4.56,0,0,0-2.66,1.59A3.68,3.68,0,0,0,401,84.26Z" transform="translate(-65.07 -69.31)"/><path class="cls-1" d="M417.21,75.52c.48,0,.86.45,1.11,1.24a6.26,6.26,0,0,0,.52,1.37l.79.12,1.25,0,1.47-.22,1.16-.28.43.46a1.45,1.45,0,0,1,.3.84,1.06,1.06,0,0,1-.13.64l-.27.46-1.21.12c-.2,0-.46,0-.78,0l-2-.07a1.29,1.29,0,0,0-.5.14q-.18.1-.27.69a46.94,46.94,0,0,0,.38,5.19l.79,7.86-1.43.63-1.25-.34-.54-3-.37-3c-.07-.57-.17-2-.29-4.14l-.16-2.81a2.9,2.9,0,0,0-.15-.83,1.24,1.24,0,0,0-1.12-.52l-.8.21-.94.19a3,3,0,0,1-1.75-.36l-.33-.38a4.18,4.18,0,0,1-.16-.44.71.71,0,0,1,.15-.59l.35-.38c.46,0,1.17-.06,2.11,0s1.64,0,2.1-.05c.1,0,.15-.07.15-.19l-.08-.33-.06-.33,0-.46a1.07,1.07,0,0,1,.22-.5q.07-.18.54-.36A1.57,1.57,0,0,0,417.21,75.52Z" transform="translate(-65.07 -69.31)"/><path class="cls-1" d="M440,73.24c1.88-.2,3.72.71,5.54,2.74a12.66,12.66,0,0,1,3.18,7.31c.25,2.36-.91,4.52-3.5,6.48a14.22,14.22,0,0,1-7.13,3q-2.38.26-3.86-2.44a12.26,12.26,0,0,1-1.37-4.76,14.48,14.48,0,0,1,1.2-7.76A7.17,7.17,0,0,1,440,73.24Zm-2.68,11.84a1.82,1.82,0,0,1-.05.2,6.5,6.5,0,0,1-.28.6,1.86,1.86,0,0,0-.21,1,2.27,2.27,0,0,0,.86,1.41l1.06.43a3.79,3.79,0,0,0,1.39.12l1.13-.21c1-.18,1.85-1.13,2.61-2.86a8.44,8.44,0,0,0,.88-4,6.05,6.05,0,0,0-1.35-3.34,3.46,3.46,0,0,0-3.14-1.5l-.47.1c-1,.1-1.75,1-2.15,2.6A17.78,17.78,0,0,0,437.36,85.08Z" transform="translate(-65.07 -69.31)"/><path class="cls-1" d="M459,71.37l1.6-.18,1.73-.25a1.66,1.66,0,0,1,1.48.29,3.9,3.9,0,0,1,.59,2.08c0,.22-1.33.52-3.91.93a42.07,42.07,0,0,0-4.94,1,3.27,3.27,0,0,0-1.2,5.09,2.2,2.2,0,0,0,1.73.31l1.64-.26,1.38-.26a3,3,0,0,1,1.3,0,2.37,2.37,0,0,1,1.13.27c.37.13.6.53.68,1.21a2.6,2.6,0,0,1-.12,1.24l-4.26.82h-3.3L455,85.9l.24,4.81a.94.94,0,0,1-.34.47,1.41,1.41,0,0,1-.68.2h-.65a.91.91,0,0,1-.67-.22l-.41-.49c-.07-.64-.14-1.24-.23-1.81-.16-1.07-.33-2.27-.53-3.62l-.57-3.51L451,79.26a13.74,13.74,0,0,1,.09-3.72,4,4,0,0,1,2.33-2.72A17.89,17.89,0,0,1,459,71.37Z" transform="translate(-65.07 -69.31)"/><path class="cls-1" d="M479.23,69.32c1.17-.13,2.36.85,3.55,3a32.15,32.15,0,0,1,2.65,5.57l2.7,8.34-.11.64a1.23,1.23,0,0,1-.27.63,1.33,1.33,0,0,1-.43.31l-.4.09a2.28,2.28,0,0,1-.58,0l-.49-.1-.11-1.1-.08-1a4.48,4.48,0,0,0-.68-2.37,2.16,2.16,0,0,0-2-.57c-2.77.27-4.49.58-5.15,1a3.27,3.27,0,0,0-1.4,2.16,6.57,6.57,0,0,1-1.77,3l-.46.19-.52.1a.6.6,0,0,1-.57-.18,1.6,1.6,0,0,1-.13-.57,7.82,7.82,0,0,1,.22-2.82,69.84,69.84,0,0,0,1.45-7.23c.19-1.18.37-2.35.54-3.53a10.74,10.74,0,0,1,1.26-3.55A3.76,3.76,0,0,1,479.23,69.32Zm-1.94,10.35,1-.24.59-.11,1.59,0a3.33,3.33,0,0,0,1.1-.32,7.9,7.9,0,0,0,1.53-1.07,15.87,15.87,0,0,0-1.49-3.62c-.73-1.36-1.25-2-1.55-2h-.32l-.16,0c-1,.1-1.55,1.13-1.58,3.08A11.3,11.3,0,0,1,477.29,79.67Z" transform="translate(-65.07 -69.31)"/><path class="cls-2" d="M99.14,127.32q3.54,0,7,4.05t3.48,7.71a11.75,11.75,0,0,1-5,9.84L95.24,156l14,10q1.08,1,1.68,4.38-1.8,2.7-3.9,2.76t-4.56-2.34l-6.72-6.3a59.23,59.23,0,0,0-7.62-6.12l.6,15.3-3.84,1.62-2.7-3.66V146.88a21.1,21.1,0,0,1,4.44-13.56A15.19,15.19,0,0,1,99.14,127.32ZM87.74,145l.36,5.7A14.65,14.65,0,0,0,97,147.6a20.82,20.82,0,0,0,6.06-7.26,12,12,0,0,0-1.56-3.72q-1.44-2.46-2.88-2.46-3.12,0-7,3.3Q87.5,140.94,87.74,145Z" transform="translate(-65.07 -69.31)"/><path class="cls-2" d="M136.58,126.72q7-.06,7.08,3.6l-1.5,3.24a46.66,46.66,0,0,1-11.46,2.76,5.23,5.23,0,0,0-4.44,2.7,11.29,11.29,0,0,0-.78,5.28q.3,9.54.3,6,12.6-3.48,16.08-3.54,3.06-.06,3.06,2.22a11.42,11.42,0,0,1-1,3.54l-11,3q-8.16,2.34-8.22,4.92a11.06,11.06,0,0,0,1.2,5.7,5,5,0,0,0,4.74,2.7,53.19,53.19,0,0,0,8.25-.93,61.06,61.06,0,0,1,8.13-1q5.64-.12,5.82,3.36l.24.42a1,1,0,0,1,.18.72,1.38,1.38,0,0,1-.48,1,5.81,5.81,0,0,1-2.82,1.08l-8.64,1.62-5,.6q-1,.12-2.76.24h-1.74l-6.84-.24a8.63,8.63,0,0,1-4-.78,4.39,4.39,0,0,1-.78-.72l-.66-.78-1-1.56v-9.3q0-4.5-1.14-4.56l-1.51.48a10.17,10.17,0,0,1-2.24.42,8.85,8.85,0,0,1-5.31-1.92v-4.44q1.2-.3,1.23-1.26t7.89-1q0-1.14-.36-6.84l-.36-5.7a8.78,8.78,0,0,1,3.84-8.4q2.64-1.86,9.48-2.34Q132.74,126.78,136.58,126.72Z" transform="translate(-65.07 -69.31)"/><path class="cls-2" d="M175.82,127.32q3,0,7.14,3.12t4.14,6.78a15.31,15.31,0,0,1-.84,5.4,8.33,8.33,0,0,1-3.42,4.44,91.16,91.16,0,0,1,9.06,4.86q3.12,2,3.18,7.32-.78,2.34-.87,2.64a14.12,14.12,0,0,1-.69,1.5,20,20,0,0,1-9.18,9.18,28.22,28.22,0,0,1-12.78,2.76,19.44,19.44,0,0,1-8.34-1.5l-5.76-2.76-.72-3.18,1-1.38,5.34.36a80.32,80.32,0,0,1-2.16-14.4,7.75,7.75,0,0,1,.66-4l1.5-1.44a8.87,8.87,0,0,0-.54-1.5q0-.12-.54-1.92a15.91,15.91,0,0,1-.54-4.5Q161.48,127.32,175.82,127.32Zm-8.7,9.18.3,10.32a36.87,36.87,0,0,1,5-.79,14.08,14.08,0,0,0,4-.84,16.94,16.94,0,0,0,4.8-3.21l1.08-3.15-1.08-4.54a7,7,0,0,0-3.48-.91h-4.8q-4.44-.12-5,1.08Zm.3,19.08v11.28q0,1.44,2.22,1.44a22.35,22.35,0,0,0,4.51-.72,22.42,22.42,0,0,1,4.52-.72l4.37-1.62q3.83-1.44,4.84-4l-1.43-5q-1.68-1.14-6.76-2.22a38.09,38.09,0,0,0-7.24-1,9.22,9.22,0,0,0-3.68.6A2.08,2.08,0,0,0,167.42,155.58Z" transform="translate(-65.07 -69.31)"/><path class="cls-2" d="M209.3,127.32h6.3a3.79,3.79,0,0,1,.72,1.86q0,.66-4.14,2.34-4.32,1.74-4.08,6.06l.12,1.92.3,7.68q0,1.56.12,4.56.3,4.26.36,6.3a30.12,30.12,0,0,0,.6,5.46q.18,1,.78,3.6a11,11,0,0,1,4.38,1q1.86.78,1.92,2.22.06.72-1.44,3-.48.78-.72,1.14a2.09,2.09,0,0,1-1.2.84l-2.4-1a15,15,0,0,0-2.4-.42l-6.06.36q-4.38.24-6.3-3.12,0-2.52,2.1-3a23.33,23.33,0,0,1,4.86-.42h1.8q0-2.58-.21-7.8t-.21-7.8q0-1.62-1-9.66l-.48-4a11.32,11.32,0,0,1,1.14-4.62H195c-1.52,0-2.28-.26-2.28-.77a3.49,3.49,0,0,0,.15-.57,1.85,1.85,0,0,1,.45-.68l1-1.72q2.82-2,8.22-2.14,2.58-.06,3.42-.12A14.46,14.46,0,0,0,209.3,127.32Z" transform="translate(-65.07 -69.31)"/><path class="cls-2" d="M242.48,127.32l3.48.3,2,2.46q-1.38.72-9.9,5.7-14.64,8.64-14.76,21.72a11.67,11.67,0,0,0,3.6,8.7,11.88,11.88,0,0,0,8.7,3.66q9.42,0,19.2-16.5a65.9,65.9,0,0,0-17.58-2.22h-1.38a18,18,0,0,1-2-.06q-2.22-.06-2.34-1.8.36-3.06,15.78-3.18a52.39,52.39,0,0,1,8.76.48q2.88.48,2.88,5.4,0,4-5.28,10.5A53.86,53.86,0,0,1,245,171q-5.7,4.32-10.74,4.32-5.94,0-11.34-6.72-5.1-6.36-5.16-12.48-.06-9.36,8-17.76A46.1,46.1,0,0,1,242.48,127.32Z" transform="translate(-65.07 -69.31)"/><path class="cls-2" d="M301.88,129.6l1.62,9.24L303,154.08q-1.2,9-5.94,14.7a17.23,17.23,0,0,1-13.92,6.54q-9.9,0-14.34-7.32-2.82-4.68-4.68-16.56l-1.26-21.18a2.15,2.15,0,0,1,1.32-2.1,11.48,11.48,0,0,0,1.14-.42l1.68-.42,2.28.54a4,4,0,0,1,1.86,1.32l-.3,6.42-.24,8.4q-.3,10.56,2,17a16,16,0,0,0,2.16,4.2,8.34,8.34,0,0,0,7.14,3.54,8.91,8.91,0,0,0,6.24-2,26.75,26.75,0,0,0,4.08-5.52q4-6.48,4-16.62a51.31,51.31,0,0,0-1-10.08q-.42-2.1-1-4l.78-1.5a2.6,2.6,0,0,1,1.86-.72l2-.18a3,3,0,0,1,2,.48Z" transform="translate(-65.07 -69.31)"/><path class="cls-2" d="M316.64,128.22l1.74-.6a3,3,0,0,0,.84-.12l1.14-.18,1,.18q1.44.24,1.56,2.88a7.4,7.4,0,0,1-.12,1.86c0,.12-.36,1.3-1.09,3.54a7.84,7.84,0,0,1-.85,1.86l-1.27,4.8-2.12,9.84a39.19,39.19,0,0,0-.91,8.22,5.48,5.48,0,0,0,3.37,5.28,21,21,0,0,0,8.6,1.56,52.84,52.84,0,0,0,10-1c.72-.12,1.51-.28,2.35-.48l.9.84a3.5,3.5,0,0,1,.6,1.68,2.83,2.83,0,0,1-.36,1.2l-.84,1.2q-9.72,4.5-23.16,4.5H316.4a18.1,18.1,0,0,1-5-.48,3.15,3.15,0,0,1-2-2.34l.54-17.34a65,65,0,0,1,1-7.14q1.38-7.62,2.58-12.06Q315.14,130.08,316.64,128.22Z" transform="translate(-65.07 -69.31)"/><path class="cls-2" d="M365.18,127.32q4.44-.06,8.1,8.22a79.5,79.5,0,0,1,5.22,14.52l4.62,21.42L382.7,173a3.15,3.15,0,0,1-.84,1.5,3,3,0,0,1-1.14.66l-1,.12a5.93,5.93,0,0,1-1.44-.12l-1.2-.36v-2.76l.06-2.64q.12-4.14-1.08-6.06t-4.92-1.92q-10.44-.06-13.05,1.11t-4,5a16.6,16.6,0,0,1-5.13,7l-1.2.36-1.32.12a1.57,1.57,0,0,1-1.38-.6,4.68,4.68,0,0,1-.18-1.44,19.34,19.34,0,0,1,1.26-7,179.72,179.72,0,0,0,5.4-17.64q1.14-4.32,2.22-8.64a27.33,27.33,0,0,1,4-8.52A9.39,9.39,0,0,1,365.18,127.32Zm-7.38,25.26,2.46-.36,1.5-.12,4,.3a8.09,8.09,0,0,0,2.82-.54,18.5,18.5,0,0,0,4.08-2.28,40.12,40.12,0,0,0-2.82-9.36q-2.22-5.34-3.36-5.4l-.78-.06h-.42q-3.84,0-4.68,7.26T357.8,152.58Z" transform="translate(-65.07 -69.31)"/><path class="cls-2" d="M396.5,127.32q1.8.3,2.46,3.36a14.84,14.84,0,0,0,1,3.54l1.92.48,3.12.24,3.72-.18,2.94-.42,1,1.26a3.58,3.58,0,0,1,.54,2.16,2.58,2.58,0,0,1-.48,1.56l-.78,1.08H408.8q-.72-.06-1.92-.24L402,139.5a3.18,3.18,0,0,0-1.26.21q-.48.21-.84,1.65t-.36,13v19.74l-3.69,1.2-3-1.14-.6-7.56-.18-7.5q-.06-2.16.3-10.38l.3-7a7.34,7.34,0,0,0-.18-2.1,3.05,3.05,0,0,0-2.64-1.56l-2,.3-2.4.24a7.54,7.54,0,0,1-4.26-1.32l-.72-1q-.06-.18-.3-1.14a1.83,1.83,0,0,1,.54-1.44l1-.84a52.22,52.22,0,0,1,5.25.39,52.22,52.22,0,0,0,5.25.39q.36,0,.42-.42l-.12-.84-.06-.84.18-1.14a3,3,0,0,1,.66-1.2q.24-.42,1.44-.75A4,4,0,0,0,396.5,127.32Z" transform="translate(-65.07 -69.31)"/><path class="cls-2" d="M435.8,127.32q7.08-.06,13.11,8.19a31.65,31.65,0,0,1,6.09,19q.06,8.88-10.32,15.24a35.58,35.58,0,0,1-18.48,5.58q-6,.06-9-7A30.93,30.93,0,0,1,415,156.12a36.52,36.52,0,0,1,4.92-19Q425.72,127.38,435.8,127.32Zm-9.6,28.8a4.41,4.41,0,0,1-.18.48q-.06.12-.84,1.41a4.66,4.66,0,0,0-.78,2.37,5.75,5.75,0,0,0,1.8,3.72l2.52,1.32a9.14,9.14,0,0,0,3.42.66l2.88-.24q3.72-.3,7.2-6.48,3.12-5.52,3.18-9.66a15.14,15.14,0,0,0-2.52-8.64q-2.94-4.5-7.44-4.5l-1.2.12q-3.9,0-6,5.94A43.79,43.79,0,0,0,426.2,156.12Z" transform="translate(-65.07 -69.31)"/><path class="cls-2" d="M478,127.32q3.54,0,7,4.05t3.48,7.71a11.75,11.75,0,0,1-5,9.84l-9.3,7.08,14,10q1.08,1,1.68,4.38-1.8,2.7-3.9,2.76t-4.56-2.34l-6.72-6.3A59.23,59.23,0,0,0,467,158.4l.6,15.3-3.84,1.62-2.7-3.66V146.88a21.1,21.1,0,0,1,4.44-13.56A15.19,15.19,0,0,1,478,127.32ZM466.64,145l.36,5.7a14.65,14.65,0,0,0,8.88-3.12,20.82,20.82,0,0,0,6.06-7.26,12,12,0,0,0-1.56-3.72q-1.44-2.46-2.88-2.46-3.12,0-7,3.3Q466.4,140.94,466.64,145Z" transform="translate(-65.07 -69.31)"/><path class="cls-1" d="M169.93,192.6a.85.85,0,0,1-.31.08,1.07,1.07,0,0,1-.39-.07l-.32-.16a2.84,2.84,0,0,1-.79-1.58l-.31-1.81a2.45,2.45,0,0,0-1-1.5c-.13,0-.41.42-.83,1.36-.71,1.6-1.15,2.56-1.32,2.89s-.49.64-.81.65a.49.49,0,0,1-.31-.13,1.23,1.23,0,0,1-.31-.4,22.34,22.34,0,0,1-.77-2.75,22.68,22.68,0,0,0-.73-2.69l-.29-.82a2.15,2.15,0,0,0-.06-.29v-.16a1,1,0,0,1,.15-.5l.17-.18.39-.3.18,0c.4,0,.67.49.81,1.46,0,.08,0,.53.13,1.37s.14,1.4.17,1.61c.15.8.37,1.2.65,1.21a.63.63,0,0,0,.27-.08,15.85,15.85,0,0,0,.81-1.65,9,9,0,0,1,.92-1.65,2.19,2.19,0,0,1,1-.86l.52-.18c.27,0,.5.27.7.82.14.37.39,1.21.75,2.51a9.62,9.62,0,0,0,.62,1.86.93.93,0,0,0,.24.15c.31,0,.61-.8.89-2.4a18.85,18.85,0,0,0,.34-3,2.11,2.11,0,0,0-.11-.85q.2-.69.78-.69l.36,0a.53.53,0,0,1,.41.33,3.25,3.25,0,0,1,.12.54l-.29,2.7L171.6,190a9.27,9.27,0,0,1-.58,1.5A2.79,2.79,0,0,1,169.93,192.6Z" transform="translate(-65.07 -69.31)"/><path class="cls-1" d="M180.76,184v2.57l.06,3.59a4.55,4.55,0,0,1-.08,1.29.83.83,0,0,1-.49.44c-.22,0-.39-.21-.52-.63a3.78,3.78,0,0,1-.11-.87,3.58,3.58,0,0,1,.16-1.08,13.05,13.05,0,0,0-1.6.08l-1.2.15a8.21,8.21,0,0,1-1.36-.17l0,.78a4.69,4.69,0,0,1,0,.68q0,.19-.06.54l-.08,1.23-.83,0-.08-1.67.08-1.61a3.48,3.48,0,0,0-.71.06l-.34.16-.18-.14-.4-.33a1.69,1.69,0,0,1,.79-.88l.69-.17a3.17,3.17,0,0,0,.15-.86l0-1.43v-1.14c0-.29.18-.45.54-.46a.56.56,0,0,1,.32.06.55.55,0,0,1,.2.28l-.11.31,0,.28a1.27,1.27,0,0,0,.06.41l0,.33,0,.17-.12,2h1.2a2.78,2.78,0,0,0,.74-.06l1.28-.13a1.12,1.12,0,0,1,.35.06l.63.21a13.87,13.87,0,0,1,.12-1.59l.13-1.08v-.35c0-.06,0-.16-.06-.27a1.39,1.39,0,0,0,0-.27,3.47,3.47,0,0,0-.13-.38l0-.14.52-.16Z" transform="translate(-65.07 -69.31)"/><path class="cls-1" d="M184.81,183.86H186a.66.66,0,0,1,.13.34c0,.08-.25.22-.76.43a1.05,1.05,0,0,0-.75,1.11l0,.35.06,1.41c0,.19,0,.47,0,.84,0,.52.06.91.07,1.16a5,5,0,0,0,.11,1c0,.12.07.34.14.66a1.9,1.9,0,0,1,.8.19c.23.09.35.23.36.4a1.47,1.47,0,0,1-.27.55l-.13.21a.38.38,0,0,1-.22.16l-.44-.19a3.11,3.11,0,0,0-.44-.08l-1.11.07a1.15,1.15,0,0,1-1.16-.57c0-.31.13-.5.38-.55a3.84,3.84,0,0,1,.9-.08H184c0-.32,0-.79,0-1.43s0-1.12,0-1.43-.06-.79-.18-1.78l-.08-.74a2,2,0,0,1,.21-.84h-1.7q-.42,0-.42-.15a.54.54,0,0,0,0-.1.26.26,0,0,1,.08-.12l.19-.32a2.62,2.62,0,0,1,1.51-.39l.62,0A3.2,3.2,0,0,0,184.81,183.86Z" transform="translate(-65.07 -69.31)"/><path class="cls-1" d="M190,183.86a3.87,3.87,0,0,1,1.67.54c.76.39,1.14.76,1.14,1.1a.31.31,0,0,1-.08.19,7.42,7.42,0,0,0-1.89-.34,2.77,2.77,0,0,0-.49,0l-.2,0a.24.24,0,0,0-.11.06c-1.21,0-2,.18-2.31.56a4,4,0,0,0-.46,2.38,2.26,2.26,0,0,0,1.42,2.12,11.27,11.27,0,0,0,2.68.74c1.19.22,1.78.44,1.79.66l-.3.58-1,.15a8.72,8.72,0,0,1-3.1-.5,3.68,3.68,0,0,1-2.27-2,5.47,5.47,0,0,1-.4-2,4.19,4.19,0,0,1,1.11-3A3.65,3.65,0,0,1,190,183.86Z" transform="translate(-65.07 -69.31)"/><path class="cls-1" d="M200.08,184v2.57l.06,3.59a4.1,4.1,0,0,1-.09,1.29.84.84,0,0,1-.48.44c-.22,0-.39-.21-.52-.63a3.3,3.3,0,0,1-.11-.87,3,3,0,0,1,.16-1.08,13.05,13.05,0,0,0-1.6.08l-1.2.15a8.31,8.31,0,0,1-1.37-.17l0,.78a6.79,6.79,0,0,1,0,.68q0,.19-.06.54l-.08,1.23-.84,0-.07-1.67.07-1.61a3.37,3.37,0,0,0-.7.06l-.34.16-.19-.14-.4-.33a1.7,1.7,0,0,1,.8-.88l.69-.17a3.16,3.16,0,0,0,.14-.86l.05-1.43v-1.14c0-.29.18-.45.54-.46a.56.56,0,0,1,.32.06.54.54,0,0,1,.19.28l-.11.31,0,.28a1.27,1.27,0,0,0,.06.41l.05.33,0,.17-.12,2h1.2a2.68,2.68,0,0,0,.73-.06l1.28-.13a1,1,0,0,1,.35.06l.63.21a13.87,13.87,0,0,1,.12-1.59l.14-1.08v-.35c0-.06,0-.16-.06-.27a1.39,1.39,0,0,0,0-.27,3.47,3.47,0,0,0-.13-.38l0-.14.53-.16Z" transform="translate(-65.07 -69.31)"/><path class="cls-1" d="M207.44,183.86h1.16a.66.66,0,0,1,.13.34c0,.08-.25.22-.76.43a1.05,1.05,0,0,0-.75,1.11l0,.35.06,1.41c0,.19,0,.47,0,.84,0,.52.06.91.07,1.16a5,5,0,0,0,.11,1c0,.12.07.34.14.66a2,2,0,0,1,.81.19.48.48,0,0,1,.35.4,1.32,1.32,0,0,1-.27.55l-.13.21a.38.38,0,0,1-.22.16l-.44-.19a3.11,3.11,0,0,0-.44-.08l-1.11.07a1.15,1.15,0,0,1-1.16-.57c0-.31.13-.5.39-.55a3.7,3.7,0,0,1,.89-.08h.33c0-.32,0-.79,0-1.43s0-1.12,0-1.43-.06-.79-.17-1.78l-.09-.74a2,2,0,0,1,.21-.84h-1.7q-.42,0-.42-.15a.22.22,0,0,0,0-.1.26.26,0,0,1,.08-.12l.19-.32a2.62,2.62,0,0,1,1.51-.39l.63,0A3.2,3.2,0,0,0,207.44,183.86Z" transform="translate(-65.07 -69.31)"/><path class="cls-1" d="M213.37,183.86a3.52,3.52,0,0,1,1.11.14c.48.15.73.38.73.71a1,1,0,0,1-.19.52l-.26,0-.18,0h-.46a3.83,3.83,0,0,0-1.51.26.92.92,0,0,0-.62.89c0,.19.42.52,1.25,1,1,.59,1.57.92,1.66,1a2.4,2.4,0,0,1,.67,1.86,2.11,2.11,0,0,1-1.13,1.85,4,4,0,0,1-2.17.63,4.17,4.17,0,0,1-1.72-.38,1.17,1.17,0,0,1-.83-1v-.53q0-.3.18-.3a7.41,7.41,0,0,0,3.39.76.7.7,0,0,0,.55-.48,3,3,0,0,0,.08-.79,1.37,1.37,0,0,0-.93-1.26l-1.71-.82a1.71,1.71,0,0,1-.94-1.5c0-.5.37-1.05,1.13-1.64A3.36,3.36,0,0,1,213.37,183.86Z" transform="translate(-65.07 -69.31)"/><path class="cls-1" d="M223.53,183.86c.55,0,1,.49,1.49,1.51a14.59,14.59,0,0,1,1,2.66l.85,3.93-.08.29a.54.54,0,0,1-.16.27.57.57,0,0,1-.21.13l-.18,0-.27,0-.22-.07v-1a2,2,0,0,0-.19-1.11,1,1,0,0,0-.91-.36,7.6,7.6,0,0,0-2.39.21,1.48,1.48,0,0,0-.74.92,3,3,0,0,1-.94,1.27l-.22.07-.24,0a.28.28,0,0,1-.26-.11.88.88,0,0,1,0-.26A3.63,3.63,0,0,1,220,191q.48-1.29,1-3.24c.14-.53.28-1.05.41-1.58a4.89,4.89,0,0,1,.74-1.57A1.69,1.69,0,0,1,223.53,183.86Zm-1.35,4.63.45-.06.27,0,.73.05a1.29,1.29,0,0,0,.52-.1,3,3,0,0,0,.75-.42,7.4,7.4,0,0,0-.52-1.71c-.27-.66-.48-1-.62-1h-.22c-.47,0-.75.45-.86,1.34A5.29,5.29,0,0,1,222.18,188.49Z" transform="translate(-65.07 -69.31)"/><path class="cls-1" d="M235.07,183.86a3.9,3.9,0,0,1,1.68.54c.75.39,1.13.76,1.13,1.1a.26.26,0,0,1-.08.19,7.42,7.42,0,0,0-1.89-.34,2.67,2.67,0,0,0-.48,0l-.2,0a.17.17,0,0,0-.11.06c-1.21,0-2,.18-2.31.56a3.94,3.94,0,0,0-.47,2.38,2.27,2.27,0,0,0,1.42,2.12,11.27,11.27,0,0,0,2.68.74c1.19.22,1.79.44,1.79.66l-.29.58-1.05.15a8.63,8.63,0,0,1-3.09-.5,3.65,3.65,0,0,1-2.27-2,5.48,5.48,0,0,1-.41-2,4.19,4.19,0,0,1,1.11-3A3.65,3.65,0,0,1,235.07,183.86Z" transform="translate(-65.07 -69.31)"/><path class="cls-1" d="M242.18,183.86a3,3,0,0,1,2.4,1.5,5.82,5.82,0,0,1,1.12,3.49,3.27,3.27,0,0,1-1.89,2.79,6.53,6.53,0,0,1-3.39,1,1.77,1.77,0,0,1-1.66-1.29,5.71,5.71,0,0,1-.4-2.24,6.74,6.74,0,0,1,.9-3.49A3.27,3.27,0,0,1,242.18,183.86Zm-1.76,5.28a.41.41,0,0,1,0,.09l-.15.26a.83.83,0,0,0-.15.44,1,1,0,0,0,.34.68l.46.24a1.5,1.5,0,0,0,.62.12l.53,0c.46,0,.9-.44,1.33-1.19a3.92,3.92,0,0,0,.58-1.78,2.78,2.78,0,0,0-.46-1.58,1.61,1.61,0,0,0-1.37-.83l-.22,0c-.48,0-.84.36-1.1,1.09A7.7,7.7,0,0,0,240.42,189.14Z" transform="translate(-65.07 -69.31)"/><path class="cls-1" d="M255.08,184.69l-.15,2.5c-.1.61-.15,1-.17,1.17,0,.41-.06.77-.06,1.07a7.77,7.77,0,0,1-.33,2.26.8.8,0,0,1-.76.67,2,2,0,0,1-1-.4l-3.73-4.78a.32.32,0,0,0-.13-.07c-.14,0-.24.3-.31.91a10.12,10.12,0,0,0,0,1.1,7.76,7.76,0,0,0,.37,2.84l-.08.23a.82.82,0,0,1-.11.25.46.46,0,0,1-.46.23.87.87,0,0,1-.56-.26l-.27-.29-.49-2.36a5.35,5.35,0,0,1-.11-1,4.8,4.8,0,0,1,.55-2.35c.38-.68.82-1,1.34-1,.35,0,.92.46,1.71,1.39.14.17.62.78,1.43,1.84s1.21,1.5,1.34,1.51.07,0,.09-.16c0-.66,0-1.3,0-1.89l0-1.77a4.54,4.54,0,0,1,.22-1.79l.37-.39a.6.6,0,0,1,.46-.21.71.71,0,0,1,.57.27C254.75,184.26,254.89,184.44,255.08,184.69Z" transform="translate(-65.07 -69.31)"/><path class="cls-1" d="M260,183.86a3.9,3.9,0,0,1,1.68.54c.76.39,1.13.76,1.13,1.1a.3.3,0,0,1-.07.19,7.49,7.49,0,0,0-1.9-.34,2.74,2.74,0,0,0-.48,0l-.2,0a.17.17,0,0,0-.11.06c-1.21,0-2,.18-2.31.56a3.94,3.94,0,0,0-.47,2.38,2.27,2.27,0,0,0,1.42,2.12,11.42,11.42,0,0,0,2.68.74q1.78.33,1.8.66l-.3.58-1.05.15a8.63,8.63,0,0,1-3.09-.5,3.65,3.65,0,0,1-2.27-2,5.48,5.48,0,0,1-.41-2,4.19,4.19,0,0,1,1.11-3A3.65,3.65,0,0,1,260,183.86Z" transform="translate(-65.07 -69.31)"/><path class="cls-1" d="M267.26,183.75c.86,0,1.29.21,1.3.66l-.27.59a8.72,8.72,0,0,1-2.1.51,1,1,0,0,0-.82.49,2.05,2.05,0,0,0-.14,1c0,1.17,0,1.54,0,1.11a15.56,15.56,0,0,1,3-.65c.38,0,.56.12.56.4a2,2,0,0,1-.17.65l-2,.55c-1,.29-1.5.59-1.51.91a2.14,2.14,0,0,0,.22,1,.94.94,0,0,0,.87.5,10.31,10.31,0,0,0,1.52-.17,9.18,9.18,0,0,1,1.49-.18c.69,0,1.05.19,1.07.61l0,.08a.2.2,0,0,1,0,.13.26.26,0,0,1-.09.18,1.2,1.2,0,0,1-.52.2l-1.59.29-.91.11-.51.05h-.32l-1.25-.05a1.54,1.54,0,0,1-.74-.14.86.86,0,0,1-.14-.13.79.79,0,0,1-.12-.15L264,192v-1.71q0-.82-.21-.84l-.28.09a1.42,1.42,0,0,1-.41.08,1.65,1.65,0,0,1-1-.35v-.82c.14,0,.22-.11.22-.23s.49-.18,1.45-.19c0-.14,0-.55-.06-1.25l-.07-1.05a1.62,1.62,0,0,1,.7-1.54,3.68,3.68,0,0,1,1.74-.43C266.4,183.77,266.79,183.75,267.26,183.75Z" transform="translate(-65.07 -69.31)"/><path class="cls-1" d="M273.38,183.86a2.41,2.41,0,0,1,1.85,1,3,3,0,0,1,.82,1.95,2.07,2.07,0,0,1-.86,1.76,3.1,3.1,0,0,1-1.92.61,1.86,1.86,0,0,1-1.09-.25l.22,1.51a7.66,7.66,0,0,1,.1,1.3l0,.26a1.38,1.38,0,0,1,0,.26.42.42,0,0,1-.43.44l-.22,0a.4.4,0,0,1-.26-.19l-.27-.34-.39-1.91a8,8,0,0,1-.19-1.24l-.05-2.19a2.61,2.61,0,0,1,.89-2.09A2.67,2.67,0,0,1,273.38,183.86Zm-1.38,3a6.09,6.09,0,0,0,.13,1c0,.12.33.18.88.19a2.43,2.43,0,0,0,1.37-.36,1.56,1.56,0,0,0,.7-1.19,2.53,2.53,0,0,0-.65-.91,1.64,1.64,0,0,0-1.05-.3,1.53,1.53,0,0,0-1.08.32,1.08,1.08,0,0,0-.32.94Z" transform="translate(-65.07 -69.31)"/><path class="cls-1" d="M279.5,183.86c.22,0,.37.24.45.61a2.5,2.5,0,0,0,.18.65l.35.09.57,0,.69,0,.53-.07.18.23a.61.61,0,0,1,.1.39.48.48,0,0,1-.09.29l-.14.2h-.56l-.36,0-.9-.12a.73.73,0,0,0-.23,0q-.09,0-.15.3a18.9,18.9,0,0,0-.07,2.39v3.63l-.68.22-.55-.21-.11-1.39,0-1.38c0-.26,0-.9.06-1.9l0-1.29a1.29,1.29,0,0,0,0-.39.55.55,0,0,0-.48-.28l-.38,0-.44.05a1.38,1.38,0,0,1-.78-.24l-.13-.19a1.7,1.7,0,0,1-.06-.21.37.37,0,0,1,.1-.27l.18-.15a8.85,8.85,0,0,1,1,.07,8.85,8.85,0,0,0,1,.07c.05,0,.07,0,.08-.07l0-.16v-.15l0-.21a.48.48,0,0,1,.12-.22.46.46,0,0,1,.27-.14A.81.81,0,0,0,279.5,183.86Z" transform="translate(-65.07 -69.31)"/><path class="cls-1" d="M289.79,183.86a3.52,3.52,0,0,1,1.11.14c.48.15.73.38.73.71a1,1,0,0,1-.19.52l-.26,0-.18,0h-.47a3.78,3.78,0,0,0-1.5.26.92.92,0,0,0-.62.89c0,.19.41.52,1.24,1,1,.59,1.58.92,1.67,1a2.4,2.4,0,0,1,.67,1.86,2.1,2.1,0,0,1-1.14,1.85,4,4,0,0,1-2.17.63,4.16,4.16,0,0,1-1.71-.38,1.17,1.17,0,0,1-.83-1v-.53q0-.3.18-.3a7.41,7.41,0,0,0,3.39.76.7.7,0,0,0,.55-.48,3,3,0,0,0,.08-.79,1.37,1.37,0,0,0-.93-1.26l-1.72-.82a1.7,1.7,0,0,1-.93-1.5c0-.5.37-1.05,1.13-1.64A3.36,3.36,0,0,1,289.79,183.86Z" transform="translate(-65.07 -69.31)"/><path class="cls-1" d="M296.86,183.86a3,3,0,0,1,2.4,1.5,5.82,5.82,0,0,1,1.12,3.49,3.27,3.27,0,0,1-1.89,2.79,6.53,6.53,0,0,1-3.4,1,1.77,1.77,0,0,1-1.65-1.29,5.7,5.7,0,0,1-.41-2.24,6.66,6.66,0,0,1,.91-3.49A3.27,3.27,0,0,1,296.86,183.86Zm-1.77,5.28a.22.22,0,0,1,0,.09l-.15.26a.83.83,0,0,0-.15.44,1.05,1.05,0,0,0,.33.68l.47.24a1.5,1.5,0,0,0,.62.12l.53,0c.46,0,.9-.44,1.32-1.19a3.83,3.83,0,0,0,.59-1.78,2.78,2.78,0,0,0-.46-1.58,1.61,1.61,0,0,0-1.37-.83l-.22,0c-.48,0-.84.36-1.1,1.09A8,8,0,0,0,295.09,189.14Z" transform="translate(-65.07 -69.31)"/><path class="cls-1" d="M309.69,179.45a2.59,2.59,0,0,1,1.91,1.12,3.44,3.44,0,0,1,1,2.12,3.24,3.24,0,0,1-1.39,2.71l-2.56,1.95,3.85,2.76a2.18,2.18,0,0,1,.46,1.2,1.38,1.38,0,0,1-1.07.76,1.9,1.9,0,0,1-1.26-.64l-1.85-1.74a17.44,17.44,0,0,0-2.09-1.68l.16,4.21-1.06.45-.74-1v-6.82a5.86,5.86,0,0,1,1.22-3.74A4.19,4.19,0,0,1,309.69,179.45Zm-3.14,4.88.1,1.56a4,4,0,0,0,2.44-.85,5.86,5.86,0,0,0,1.67-2,3.49,3.49,0,0,0-.43-1c-.26-.45-.53-.67-.79-.67a3.18,3.18,0,0,0-1.94.9A2.54,2.54,0,0,0,306.55,184.33Z" transform="translate(-65.07 -69.31)"/><path class="cls-1" d="M318.19,179.45h1.74a1.08,1.08,0,0,1,.2.51c0,.13-.38.34-1.14.65a1.58,1.58,0,0,0-1.13,1.67l0,.53.08,2.11q0,.44,0,1.26c.06.78.09,1.36.1,1.73a8.28,8.28,0,0,0,.17,1.5q0,.27.21,1a3,3,0,0,1,1.21.29.72.72,0,0,1,.53.61,2,2,0,0,1-.4.82l-.2.32a.63.63,0,0,1-.33.23l-.66-.28a3.5,3.5,0,0,0-.66-.12l-1.67.1a1.72,1.72,0,0,1-1.73-.86.73.73,0,0,1,.57-.82,6.26,6.26,0,0,1,1.34-.12h.5c0-.47,0-1.19-.06-2.15s-.06-1.67-.06-2.15c0-.29-.09-1.18-.26-2.66l-.13-1.1a3.06,3.06,0,0,1,.31-1.27h-2.54c-.42,0-.63-.07-.63-.22s0-.11,0-.15,0-.1.12-.19l.28-.47a4,4,0,0,1,2.27-.59c.47,0,.78,0,.94,0A3.64,3.64,0,0,0,318.19,179.45Z" transform="translate(-65.07 -69.31)"/><path class="cls-1" d="M322.29,179.45c.62.13,2,.34,4.13.63a15.53,15.53,0,0,1,4.29,1,3.57,3.57,0,0,1,2.09,3.47,8.35,8.35,0,0,1-.48,3.09,5,5,0,0,1-2,2.34c-.7.46-2.36,1.35-4.95,2.7h-3.06l-.22-1.72a14.85,14.85,0,0,1-.09-1.6c0-.37,0-.9-.05-1.61s-.05-1.25-.05-1.61c0-.55,0-1,0-1.26l.09-2.13a16.07,16.07,0,0,1,.09-1.65C322.12,180.74,322.19,180.19,322.29,179.45Zm1.92,2.22c0,.37,0,.9-.07,1.6s-.08,1.27-.08,1.6q-.06,1-.15,3.09s0,.31,0,.83c0,.18,0,.42,0,.71a9.89,9.89,0,0,0,.17,1.6l2.24-.46,3.14-2.17c.46-.41.89-1.72,1.27-3.93a1.48,1.48,0,0,0-.92-1.31,9.49,9.49,0,0,0-2-.65,9.94,9.94,0,0,1-1.81-.55Z" transform="translate(-65.07 -69.31)"/><path class="cls-1" d="M337.29,179.45H339a1,1,0,0,1,.2.51c0,.13-.38.34-1.14.65a1.58,1.58,0,0,0-1.12,1.67l0,.53.08,2.11c0,.29,0,.71,0,1.26.05.78.09,1.36.1,1.73a8.17,8.17,0,0,0,.16,1.5c0,.18.11.51.22,1a3,3,0,0,1,1.2.29c.34.14.52.34.53.61a1.9,1.9,0,0,1-.4.82c-.08.15-.15.25-.19.32a.63.63,0,0,1-.33.23l-.66-.28a3.46,3.46,0,0,0-.67-.12l-1.66.1a1.72,1.72,0,0,1-1.74-.86.72.72,0,0,1,.58-.82,6.2,6.2,0,0,1,1.34-.12h.49c0-.47,0-1.19-.05-2.15s-.06-1.67-.06-2.15c0-.29-.09-1.18-.27-2.66l-.13-1.1a3.23,3.23,0,0,1,.31-1.27h-2.54c-.42,0-.63-.07-.63-.22a.34.34,0,0,0,0-.15.56.56,0,0,1,.13-.19l.28-.47a4,4,0,0,1,2.26-.59c.48,0,.79,0,.94,0A3.73,3.73,0,0,0,337.29,179.45Z" transform="translate(-65.07 -69.31)"/><path class="cls-1" d="M345.1,179.45a5.82,5.82,0,0,1,2.51.81q1.71.9,1.71,1.65a.39.39,0,0,1-.12.28,11.29,11.29,0,0,0-2.84-.49,3.06,3.06,0,0,0-.73.05l-.3.05a.3.3,0,0,0-.16.08c-1.82,0-3,.28-3.47.84s-.69,1.71-.69,3.57a3.4,3.4,0,0,0,2.13,3.19,17.63,17.63,0,0,0,4,1.11c1.79.33,2.68.66,2.69,1l-.44.87-1.57.22a12.9,12.9,0,0,1-4.64-.75,5.52,5.52,0,0,1-3.41-3,8.49,8.49,0,0,1-.61-3,6.35,6.35,0,0,1,1.67-4.43A5.49,5.49,0,0,1,345.1,179.45Z" transform="translate(-65.07 -69.31)"/><path class="cls-1" d="M361.06,180.08l.45,2.54-.13,4.2a7.91,7.91,0,0,1-1.64,4.05,4.74,4.74,0,0,1-3.83,1.8,4.25,4.25,0,0,1-4-2,13.64,13.64,0,0,1-1.29-4.56l-.35-5.83a.6.6,0,0,1,.37-.58l.31-.11.46-.12.63.15a1.14,1.14,0,0,1,.51.36l-.08,1.77-.07,2.31a13.42,13.42,0,0,0,.55,4.7,4.29,4.29,0,0,0,.59,1.15,2.31,2.31,0,0,0,2,1,2.49,2.49,0,0,0,1.72-.56,7.72,7.72,0,0,0,1.12-1.52,8.65,8.65,0,0,0,1.09-4.58,14.73,14.73,0,0,0-.26-2.78c-.08-.38-.17-.74-.27-1.09l.22-.41a.71.71,0,0,1,.51-.2l.55,0a.82.82,0,0,1,.56.14Z" transform="translate(-65.07 -69.31)"/><path class="cls-1" d="M365.12,179.7l.48-.17a.85.85,0,0,0,.23,0l.32-.05.28.05c.26.05.41.31.43.79a2.3,2.3,0,0,1,0,.52s-.11.35-.31,1a1.88,1.88,0,0,1-.23.51l-.35,1.32-.58,2.71a10.59,10.59,0,0,0-.25,2.27A1.51,1.51,0,0,0,366,190a5.74,5.74,0,0,0,2.37.43,15.23,15.23,0,0,0,2.75-.26l.65-.14.24.24a.85.85,0,0,1,.17.46.71.71,0,0,1-.1.33l-.23.33a15.16,15.16,0,0,1-6.38,1.24h-.44a5.35,5.35,0,0,1-1.38-.13.86.86,0,0,1-.55-.65l.14-4.77a19.22,19.22,0,0,1,.28-2c.26-1.4.49-2.5.71-3.32A6.74,6.74,0,0,1,365.12,179.7Z" transform="translate(-65.07 -69.31)"/><path class="cls-1" d="M378.64,179.45c1.3,0,2.5.74,3.61,2.26a8.72,8.72,0,0,1,1.67,5.23c0,1.63-.93,3-2.84,4.19a9.82,9.82,0,0,1-5.09,1.54,2.64,2.64,0,0,1-2.47-1.94,8.41,8.41,0,0,1-.62-3.35,10.1,10.1,0,0,1,1.36-5.24A5,5,0,0,1,378.64,179.45ZM376,187.38a.34.34,0,0,1-.05.13,3,3,0,0,1-.23.39,1.33,1.33,0,0,0-.21.65,1.6,1.6,0,0,0,.49,1l.7.36a2.46,2.46,0,0,0,.94.18l.79-.06c.68-.06,1.35-.65,2-1.79a5.67,5.67,0,0,0,.88-2.66,4.21,4.21,0,0,0-.69-2.38,2.4,2.4,0,0,0-2-1.23l-.33,0c-.72,0-1.27.54-1.65,1.63A12.12,12.12,0,0,0,376,187.38Z" transform="translate(-65.07 -69.31)"/><path class="cls-1" d="M396.08,180.08l.45,2.54-.13,4.2a7.91,7.91,0,0,1-1.64,4.05,4.74,4.74,0,0,1-3.83,1.8,4.25,4.25,0,0,1-3.95-2,13.64,13.64,0,0,1-1.29-4.56l-.35-5.83a.6.6,0,0,1,.37-.58l.31-.11.46-.12.63.15a1.14,1.14,0,0,1,.51.36l-.08,1.77-.07,2.31a13.42,13.42,0,0,0,.55,4.7,4.29,4.29,0,0,0,.59,1.15,2.31,2.31,0,0,0,2,1,2.48,2.48,0,0,0,1.72-.56,7.72,7.72,0,0,0,1.12-1.52,8.65,8.65,0,0,0,1.09-4.58,14.73,14.73,0,0,0-.26-2.78c-.08-.38-.17-.74-.27-1.09l.22-.41a.71.71,0,0,1,.51-.2l.55,0a.82.82,0,0,1,.56.14Z" transform="translate(-65.07 -69.31)"/><path class="cls-1" d="M402.84,179.45a5.2,5.2,0,0,1,1.67.22c.72.22,1.09.57,1.09,1.05a1.55,1.55,0,0,1-.28.8l-.39,0-.28,0H404a5.62,5.62,0,0,0-2.26.4,1.37,1.37,0,0,0-.93,1.33c0,.28.62.77,1.87,1.49q2.3,1.32,2.49,1.5a3.55,3.55,0,0,1,1,2.79,3.19,3.19,0,0,1-1.7,2.77,6,6,0,0,1-3.25.94,6.23,6.23,0,0,1-2.57-.56c-.83-.38-1.25-.9-1.25-1.57v-.8c0-.29.09-.44.26-.44a11.23,11.23,0,0,0,5.09,1.14,1,1,0,0,0,.83-.73,4.15,4.15,0,0,0,.11-1.17,2.06,2.06,0,0,0-1.38-1.9l-2.58-1.22a2.62,2.62,0,0,1-1.41-2.25q0-1.14,1.71-2.46A5.08,5.08,0,0,1,402.84,179.45Z" transform="translate(-65.07 -69.31)"/><path class="cls-1" d="M415.22,183.86h1.16a.66.66,0,0,1,.13.34c0,.08-.25.22-.76.43a1.05,1.05,0,0,0-.75,1.11l0,.35.06,1.41c0,.19,0,.47,0,.84,0,.52.06.91.07,1.16a5,5,0,0,0,.11,1c0,.12.07.34.14.66a1.9,1.9,0,0,1,.8.19c.23.09.35.23.36.4a1.32,1.32,0,0,1-.27.55l-.13.21a.38.38,0,0,1-.22.16l-.44-.19a3.11,3.11,0,0,0-.44-.08l-1.11.07a1.15,1.15,0,0,1-1.16-.57c0-.31.13-.5.39-.55a3.7,3.7,0,0,1,.89-.08h.33c0-.32,0-.79,0-1.43s0-1.12,0-1.43-.06-.79-.18-1.78l-.08-.74a2,2,0,0,1,.21-.84h-1.7q-.42,0-.42-.15a.54.54,0,0,0,0-.1.26.26,0,0,1,.08-.12l.19-.32A2.62,2.62,0,0,1,414,184l.62,0A3.2,3.2,0,0,0,415.22,183.86Z" transform="translate(-65.07 -69.31)"/><path class="cls-1" d="M419.38,183.86c.22,0,.37.24.46.61a2.3,2.3,0,0,0,.17.65l.35.09.58,0,.68,0,.54-.07.18.23a.68.68,0,0,1,.09.39.47.47,0,0,1-.08.29l-.15.2h-.56l-.35,0-.9-.12a.63.63,0,0,0-.23,0c-.06,0-.12.13-.16.3a22.91,22.91,0,0,0-.06,2.39v3.63l-.68.22-.56-.21-.11-1.39,0-1.38c0-.26,0-.9.05-1.9l.06-1.29a1.29,1.29,0,0,0,0-.39.57.57,0,0,0-.49-.28l-.37,0-.44.05a1.43,1.43,0,0,1-.79-.24l-.13-.19s0-.09-.05-.21a.33.33,0,0,1,.1-.27l.17-.15a8.83,8.83,0,0,1,1,.07,8.85,8.85,0,0,0,1,.07.08.08,0,0,0,.08-.07l0-.16,0-.15,0-.21a.48.48,0,0,1,.12-.22.43.43,0,0,1,.26-.14A.7.7,0,0,0,419.38,183.86Z" transform="translate(-65.07 -69.31)"/><path class="cls-1" d="M429.76,184q.53,0,1,1l.8,2.47a7.92,7.92,0,0,0,1.08,2.2,6.28,6.28,0,0,0,1.71-1.78,16.74,16.74,0,0,0,1.07-2.24c.36-.89.67-1.33.91-1.34a.84.84,0,0,1,.55.29,6.33,6.33,0,0,1,.94,2.11c.07.32.19,1.1.35,2.32a15.2,15.2,0,0,0,.64,3l.26.56a1.36,1.36,0,0,1,.14.61c0,.35-.2.52-.6.52l-.35,0-.29-.09a4.15,4.15,0,0,1-.69-1.69c-.11-.47-.23-1.19-.36-2.17s-.22-1.61-.3-2a3.13,3.13,0,0,0-1.74,1.2l-1.06,1.48a2.07,2.07,0,0,1-1.64.73c-.49,0-.8-.12-.91-.35s-.25-.79-.55-1.87a10.73,10.73,0,0,0-1.09-2.69,4.46,4.46,0,0,0-1.64,2,12.32,12.32,0,0,0-.64,2.58c-.14,1-.31,1.43-.49,1.44s-.43-.21-.81-.65q-.09-.06-.09-.36a9.22,9.22,0,0,1,.58-2.65,15.66,15.66,0,0,1,1.47-3.23C428.57,184.5,429.16,184,429.76,184Z" transform="translate(-65.07 -69.31)"/><path class="cls-1" d="M443.72,183.86c.55,0,1,.49,1.49,1.51a14.59,14.59,0,0,1,1,2.66L447,192l-.08.29a.54.54,0,0,1-.16.27.63.63,0,0,1-.2.13l-.19,0-.27,0-.22-.07v-1a2,2,0,0,0-.19-1.11,1,1,0,0,0-.91-.36,7.6,7.6,0,0,0-2.39.21,1.48,1.48,0,0,0-.74.92,3,3,0,0,1-.94,1.27l-.22.07-.24,0a.28.28,0,0,1-.26-.11.88.88,0,0,1,0-.26,3.63,3.63,0,0,1,.23-1.28q.48-1.29,1-3.24c.14-.53.28-1.05.41-1.58a4.89,4.89,0,0,1,.74-1.57A1.69,1.69,0,0,1,443.72,183.86Zm-1.35,4.63.45-.06.27,0,.73.05a1.29,1.29,0,0,0,.52-.1,3,3,0,0,0,.75-.42,7.4,7.4,0,0,0-.52-1.71c-.27-.66-.48-1-.62-1h-.22c-.47,0-.75.45-.85,1.34A5.47,5.47,0,0,1,442.37,188.49Z" transform="translate(-65.07 -69.31)"/><path class="cls-1" d="M449.92,183.89c.25.09.38.4.38.94a15.12,15.12,0,0,1-.16,1.54l-.15,1.24c0,.31.06.49.2.53s.43-.25.88-.81l1.36-1.74c.44-.56.72-.82.84-.79l.47.26a.34.34,0,0,1,.18.33c0,.48-.34,1-1.05,1.63-.48.42-1,.9-1.5,1.45a9.91,9.91,0,0,1,.78,1.21l.79,1.37a2.74,2.74,0,0,0,.53.62l.08.19,0,.26a.47.47,0,0,1-.29.47l-.18,0a.64.64,0,0,1-.3-.05,4.15,4.15,0,0,1-1-1.31,10.08,10.08,0,0,0-1-1.4,2.11,2.11,0,0,0-1.09-.71,5.82,5.82,0,0,0-.37,1.72,3,3,0,0,1-.43,1.53l-.43.27-.37-.27c.14-1,.29-2.36.45-4.06,0-.48.07-1,.11-1.43a11.77,11.77,0,0,1,.33-2c.2-.69.45-1,.75-1Z" transform="translate(-65.07 -69.31)"/><path class="cls-1" d="M458.72,183.75c.85,0,1.29.21,1.3.66l-.27.59a8.69,8.69,0,0,1-2.11.51,1,1,0,0,0-.81.49,2.17,2.17,0,0,0-.15,1q.06,1.75.06,1.11a15.56,15.56,0,0,1,2.95-.65c.38,0,.56.12.56.4a2.28,2.28,0,0,1-.17.65l-2,.55c-1,.29-1.5.59-1.51.91a2,2,0,0,0,.22,1,.94.94,0,0,0,.87.5,10.31,10.31,0,0,0,1.52-.17,9.18,9.18,0,0,1,1.49-.18c.69,0,1,.19,1.07.61l0,.08a.21.21,0,0,1,0,.13.29.29,0,0,1-.08.18,1.2,1.2,0,0,1-.52.2l-1.59.29-.91.11-.51.05h-.32l-1.25-.05a1.54,1.54,0,0,1-.74-.14.86.86,0,0,1-.14-.13l-.13-.15-.17-.28v-1.71q0-.82-.21-.84l-.28.09a1.49,1.49,0,0,1-.41.08,1.63,1.63,0,0,1-1-.35v-.82c.14,0,.22-.11.22-.23s.49-.18,1.45-.19c0-.14,0-.55-.07-1.25l-.06-1.05a1.6,1.6,0,0,1,.7-1.54,3.68,3.68,0,0,1,1.74-.43C457.86,183.77,458.25,183.75,458.72,183.75Z" transform="translate(-65.07 -69.31)"/><path class="cls-1" d="M465.88,183.86A3.52,3.52,0,0,1,467,184c.49.15.73.38.73.71a.93.93,0,0,1-.19.52l-.26,0-.18,0h-.46a3.83,3.83,0,0,0-1.51.26.93.93,0,0,0-.62.89c0,.19.42.52,1.25,1,1,.59,1.57.92,1.66,1a2.37,2.37,0,0,1,.67,1.86A2.11,2.11,0,0,1,467,192a4,4,0,0,1-2.17.63,4.09,4.09,0,0,1-1.71-.38c-.56-.25-.83-.6-.83-1v-.53c0-.2.05-.3.17-.3a7.41,7.41,0,0,0,3.39.76.68.68,0,0,0,.55-.48,2.6,2.6,0,0,0,.08-.79,1.37,1.37,0,0,0-.92-1.26l-1.72-.82a1.71,1.71,0,0,1-.94-1.5c0-.5.37-1.05,1.14-1.64A3.31,3.31,0,0,1,465.88,183.86Z" transform="translate(-65.07 -69.31)"/><path class="cls-1" d="M164.9,203.84c.35,0,.67.34,1,1l.8,2.46a8,8,0,0,0,1.08,2.21,6.44,6.44,0,0,0,1.71-1.79,16.47,16.47,0,0,0,1.07-2.23c.36-.89.67-1.34.91-1.35a.84.84,0,0,1,.55.29,6.33,6.33,0,0,1,.94,2.11c.07.33.19,1.1.35,2.32a15,15,0,0,0,.64,3l.26.56a1.4,1.4,0,0,1,.15.61c0,.35-.21.53-.61.53l-.35,0-.29-.08a4.35,4.35,0,0,1-.69-1.7,21.42,21.42,0,0,1-.35-2.17,19.45,19.45,0,0,0-.31-2,3.13,3.13,0,0,0-1.74,1.2l-1.06,1.49a2.1,2.1,0,0,1-1.64.72c-.49,0-.79-.11-.9-.35a18,18,0,0,1-.55-1.87,11.3,11.3,0,0,0-1.1-2.69,4.46,4.46,0,0,0-1.64,2,11.77,11.77,0,0,0-.63,2.59c-.15.94-.32,1.42-.5,1.43s-.43-.21-.8-.65c-.07,0-.1-.16-.1-.35a9.21,9.21,0,0,1,.58-2.66,14.83,14.83,0,0,1,1.48-3.22C163.71,204.32,164.31,203.84,164.9,203.84Z" transform="translate(-65.07 -69.31)"/><path class="cls-1" d="M179.55,203.57c.85,0,1.28.21,1.3.66l-.28.6a8.6,8.6,0,0,1-2.1.5,1,1,0,0,0-.82.5,2.14,2.14,0,0,0-.14,1c0,1.16.05,1.53.05,1.1a16.5,16.5,0,0,1,3-.65c.37,0,.56.13.56.41a2.14,2.14,0,0,1-.18.65l-2,.55c-1,.28-1.51.58-1.51.9a2,2,0,0,0,.22,1.05.91.91,0,0,0,.87.49,10.21,10.21,0,0,0,1.51-.17,12.45,12.45,0,0,1,1.49-.18c.69,0,1,.19,1.07.62l.05.07a.21.21,0,0,1,0,.13.26.26,0,0,1-.09.18,1,1,0,0,1-.52.2l-1.58.3-.92.11-.5,0h-.32l-1.26,0a1.68,1.68,0,0,1-.74-.15.57.57,0,0,1-.14-.13l-.12-.14-.18-.29v-1.71c0-.55-.07-.83-.21-.83l-.27.09a2,2,0,0,1-.41.07,1.59,1.59,0,0,1-1-.35v-.81a.26.26,0,0,0,.23-.24c0-.11.48-.18,1.45-.18,0-.14,0-.56-.07-1.26l-.07-1a1.62,1.62,0,0,1,.71-1.54,3.73,3.73,0,0,1,1.74-.43Z" transform="translate(-65.07 -69.31)"/><path class="cls-1" d="M195.27,212.42a.69.69,0,0,1-.31.08,1.32,1.32,0,0,1-.39-.06l-.32-.17a2.81,2.81,0,0,1-.79-1.57l-.31-1.82a2.45,2.45,0,0,0-1-1.5c-.13,0-.41.42-.83,1.37q-1.06,2.38-1.32,2.88c-.22.43-.49.64-.81.65a.49.49,0,0,1-.31-.13,1.13,1.13,0,0,1-.31-.4,21.83,21.83,0,0,1-.77-2.75,23.25,23.25,0,0,0-.73-2.69l-.29-.81a2.62,2.62,0,0,0-.06-.3v-.15a1,1,0,0,1,.15-.51l.17-.18.39-.29.18,0q.6,0,.81,1.47c0,.07,0,.53.13,1.36s.14,1.4.17,1.61c.15.8.37,1.2.65,1.21a.49.49,0,0,0,.27-.08,15.85,15.85,0,0,0,.81-1.65,9,9,0,0,1,.92-1.65,2.26,2.26,0,0,1,1-.86l.52-.17c.27,0,.5.27.7.81.14.38.39,1.21.75,2.51a9.33,9.33,0,0,0,.62,1.86.77.77,0,0,0,.24.16c.31,0,.61-.8.89-2.4a19.07,19.07,0,0,0,.34-3,2.11,2.11,0,0,0-.11-.85q.19-.69.78-.69l.36.06a.51.51,0,0,1,.41.33,2.81,2.81,0,0,1,.12.54l-.29,2.69-.76,2.48a9.27,9.27,0,0,1-.58,1.5A2.79,2.79,0,0,1,195.27,212.42Z" transform="translate(-65.07 -69.31)"/><path class="cls-1" d="M201.56,203.68c.55,0,1,.5,1.49,1.51a14.59,14.59,0,0,1,1,2.66l.84,3.94-.07.28a.58.58,0,0,1-.16.28.45.45,0,0,1-.21.12l-.18,0-.27,0-.22-.07v-1a2,2,0,0,0-.19-1.11,1,1,0,0,0-.91-.35,7.72,7.72,0,0,0-2.39.2,1.48,1.48,0,0,0-.74.92,3.06,3.06,0,0,1-.94,1.28l-.22.06-.24,0a.3.3,0,0,1-.26-.11,1,1,0,0,1,0-.27,3.67,3.67,0,0,1,.23-1.28c.32-.86.65-1.94,1-3.23.14-.53.28-1.06.41-1.59a4.93,4.93,0,0,1,.74-1.56A1.73,1.73,0,0,1,201.56,203.68Zm-1.35,4.64.45-.07.27,0,.73.05a1.29,1.29,0,0,0,.52-.1,3.22,3.22,0,0,0,.75-.41,7.46,7.46,0,0,0-.52-1.72c-.27-.66-.48-1-.62-1h-.22c-.47,0-.75.44-.86,1.33A5.35,5.35,0,0,1,200.21,208.32Z" transform="translate(-65.07 -69.31)"/><path class="cls-1" d="M213.8,204.52l-.16,2.5c-.09.61-.15,1-.16,1.16a9.05,9.05,0,0,0-.07,1.07,7.77,7.77,0,0,1-.33,2.26.79.79,0,0,1-.76.67,1.93,1.93,0,0,1-1-.39L207.56,207a.32.32,0,0,0-.13-.08c-.14,0-.24.3-.31.91,0,.37-.05.74-.05,1.1a7.82,7.82,0,0,0,.37,2.85l-.07.23a1.33,1.33,0,0,1-.11.24.48.48,0,0,1-.47.23.85.85,0,0,1-.56-.25l-.26-.3-.5-2.36a5.33,5.33,0,0,1-.11-1,4.84,4.84,0,0,1,.56-2.36c.37-.68.81-1,1.34-1,.34,0,.91.45,1.7,1.38.14.17.62.79,1.43,1.84s1.22,1.5,1.35,1.51.06,0,.09-.15c0-.67,0-1.3,0-1.9l0-1.77a4.65,4.65,0,0,1,.22-1.78l.37-.4a.67.67,0,0,1,1,.07Z" transform="translate(-65.07 -69.31)"/><path class="cls-1" d="M217.72,203.68c.22,0,.37.24.45.62a2.86,2.86,0,0,0,.18.65l.35.08.57.05.68,0,.54-.08.18.23a.64.64,0,0,1,.1.4.45.45,0,0,1-.09.28l-.14.2H220l-.36,0-.9-.12a.71.71,0,0,0-.23,0c-.06,0-.11.13-.16.31a22.62,22.62,0,0,0-.06,2.39v3.62l-.68.22-.56-.21-.11-1.39,0-1.37c0-.27,0-.9.06-1.91l.05-1.29a1.2,1.2,0,0,0,0-.38.58.58,0,0,0-.49-.29l-.37.06-.44,0a1.38,1.38,0,0,1-.78-.24l-.13-.19a1.7,1.7,0,0,1-.06-.21.31.31,0,0,1,.1-.26l.18-.16c.21,0,.53,0,1,.07a9.51,9.51,0,0,0,1,.08s.07,0,.08-.08l0-.15v-.16l0-.21a.53.53,0,0,1,.12-.22.46.46,0,0,1,.27-.14A.72.72,0,0,0,217.72,203.68Z" transform="translate(-65.07 -69.31)"/><path class="cls-1" d="M227.38,203.68c.22,0,.37.24.45.62a3.24,3.24,0,0,0,.17.65l.36.08.57.05.68,0,.54-.08.18.23a.71.71,0,0,1,.1.4.45.45,0,0,1-.09.28l-.14.2h-.57l-.35,0-.9-.12a.71.71,0,0,0-.23,0c-.06,0-.11.13-.16.31a22.62,22.62,0,0,0-.06,2.39v3.62l-.68.22-.56-.21-.11-1.39,0-1.37c0-.27,0-.9.06-1.91l0-1.29a1.2,1.2,0,0,0,0-.38.58.58,0,0,0-.49-.29l-.37.06-.44,0a1.38,1.38,0,0,1-.78-.24l-.14-.19s0-.09,0-.21a.31.31,0,0,1,.1-.26l.17-.16c.22,0,.54,0,1,.07a9.51,9.51,0,0,0,1,.08c.05,0,.07,0,.08-.08l0-.15v-.16l0-.21a.53.53,0,0,1,.12-.22.46.46,0,0,1,.26-.14A.71.71,0,0,0,227.38,203.68Z" transform="translate(-65.07 -69.31)"/><path class="cls-1" d="M234.59,203.68a3,3,0,0,1,2.41,1.5,5.81,5.81,0,0,1,1.11,3.49,3.29,3.29,0,0,1-1.89,2.8,6.61,6.61,0,0,1-3.39,1,1.74,1.74,0,0,1-1.65-1.29,5.51,5.51,0,0,1-.41-2.23,6.76,6.76,0,0,1,.9-3.5A3.32,3.32,0,0,1,234.59,203.68ZM232.83,209a.56.56,0,0,1,0,.08,1.16,1.16,0,0,1-.15.26.83.83,0,0,0-.14.44,1.05,1.05,0,0,0,.33.68l.46.24a1.52,1.52,0,0,0,.63.12l.53,0c.45,0,.89-.43,1.32-1.19a3.88,3.88,0,0,0,.58-1.77,2.81,2.81,0,0,0-.46-1.59,1.59,1.59,0,0,0-1.37-.82l-.22,0c-.47,0-.84.36-1.1,1.09A8.05,8.05,0,0,0,232.83,209Z" transform="translate(-65.07 -69.31)"/><path class="cls-1" d="M244.58,199.52l.48-.16a.66.66,0,0,0,.23,0l.31,0,.28,0c.27.05.41.31.43.8a2.25,2.25,0,0,1,0,.51s-.1.36-.3,1a2.52,2.52,0,0,1-.23.52l-.35,1.32-.59,2.71a11.09,11.09,0,0,0-.25,2.26,1.5,1.5,0,0,0,.93,1.45,5.67,5.67,0,0,0,2.37.43,14.27,14.27,0,0,0,2.74-.26l.65-.13.25.23a.94.94,0,0,1,.17.46.86.86,0,0,1-.1.33l-.24.33a15,15,0,0,1-6.37,1.24h-.45a4.93,4.93,0,0,1-1.38-.13.86.86,0,0,1-.55-.65l.15-4.77a16.65,16.65,0,0,1,.28-2c.25-1.39.49-2.5.71-3.32A6.51,6.51,0,0,1,244.58,199.52Z" transform="translate(-65.07 -69.31)"/><path class="cls-1" d="M257.94,199.27c.82,0,1.56.75,2.23,2.27a21.8,21.8,0,0,1,1.44,4l1.27,5.89-.11.43a.93.93,0,0,1-.24.42,1,1,0,0,1-.31.18l-.28,0a1.83,1.83,0,0,1-.4,0l-.33-.1v-.76l0-.73a3.11,3.11,0,0,0-.3-1.67,1.48,1.48,0,0,0-1.35-.53,11.35,11.35,0,0,0-3.6.31,2.25,2.25,0,0,0-1.1,1.38,4.69,4.69,0,0,1-1.41,1.92l-.34.1-.36,0a.45.45,0,0,1-.38-.17,1.37,1.37,0,0,1,0-.39,5.36,5.36,0,0,1,.35-1.92q.72-1.94,1.49-4.86c.2-.79.41-1.58.61-2.38a7.75,7.75,0,0,1,1.1-2.34A2.62,2.62,0,0,1,257.94,199.27Zm-2,7,.68-.1.41,0,1.09.08a2.27,2.27,0,0,0,.78-.15,5.21,5.21,0,0,0,1.12-.63,11,11,0,0,0-.78-2.57c-.4-1-.71-1.48-.92-1.49l-.22,0H258c-.71,0-1.14.67-1.29,2A7.9,7.9,0,0,1,255.91,206.23Z" transform="translate(-65.07 -69.31)"/><path class="cls-1" d="M274.16,199.9l.45,2.55-.13,4.19a7.82,7.82,0,0,1-1.64,4.05,4.74,4.74,0,0,1-3.83,1.8,4.26,4.26,0,0,1-3.95-2,13.49,13.49,0,0,1-1.29-4.55l-.34-5.84a.59.59,0,0,1,.36-.57l.31-.12.47-.12.62.15a1.17,1.17,0,0,1,.52.37l-.09,1.76-.06,2.32a13.15,13.15,0,0,0,.54,4.69,4.31,4.31,0,0,0,.6,1.15,2.28,2.28,0,0,0,2,1,2.48,2.48,0,0,0,1.72-.56,7.06,7.06,0,0,0,1.12-1.52,8.65,8.65,0,0,0,1.09-4.58,13.78,13.78,0,0,0-.26-2.77c-.08-.39-.16-.75-.26-1.09l.21-.42a.71.71,0,0,1,.51-.19l.55-.05a.83.83,0,0,1,.56.13Z" transform="translate(-65.07 -69.31)"/><path class="cls-1" d="M283,199.27l1,.09.54.67-2.72,1.57q-4,2.39-4.06,6a3.19,3.19,0,0,0,1,2.4,3.27,3.27,0,0,0,2.39,1q2.59,0,5.29-4.55a18.48,18.48,0,0,0-4.84-.61h-.93c-.4,0-.62-.18-.64-.5.06-.56,1.51-.85,4.34-.87a13.56,13.56,0,0,1,2.42.13c.52.09.79.58.79,1.48a5.32,5.32,0,0,1-1.46,2.9,14.85,14.85,0,0,1-2.37,2.34,5,5,0,0,1-3,1.19,4.12,4.12,0,0,1-3.12-1.85,5.59,5.59,0,0,1-1.42-3.44,6.9,6.9,0,0,1,2.21-4.89A12.84,12.84,0,0,1,283,199.27Z" transform="translate(-65.07 -69.31)"/><path class="cls-1" d="M300,199.52v3.85l.1,5.39a6.79,6.79,0,0,1-.13,1.93,1.24,1.24,0,0,1-.73.66c-.33,0-.59-.31-.78-.94a5.49,5.49,0,0,1-.16-1.31,5.06,5.06,0,0,1,.23-1.61,19.1,19.1,0,0,0-2.4.11l-1.8.23a11.91,11.91,0,0,1-2-.26l0,1.17a7.08,7.08,0,0,1-.06,1q0,.3-.09.81l-.12,1.85-1.25.07L290.7,210l.12-2.43a4.48,4.48,0,0,0-1.06.1l-.51.23-.28-.2-.6-.5a2.56,2.56,0,0,1,1.19-1.32l1-.26a5.13,5.13,0,0,0,.22-1.29l.06-2.15v-1.7q0-.66.81-.69a.81.81,0,0,1,.48.1.7.7,0,0,1,.3.41l-.17.46-.05.43a1.87,1.87,0,0,0,.09.61l.08.5-.05.25-.18,3H294a4.72,4.72,0,0,0,1.1-.08l1.92-.2a2,2,0,0,1,.53.08l.94.31a20.89,20.89,0,0,1,.18-2.38l.2-1.62v-.52a4,4,0,0,0-.08-.41,2.08,2.08,0,0,0,0-.4,3.67,3.67,0,0,0-.2-.58l0-.2.79-.25Z" transform="translate(-65.07 -69.31)"/><path class="cls-1" d="M312.42,199.27c1.3,0,2.51.75,3.61,2.26a8.69,8.69,0,0,1,1.68,5.23q0,2.44-2.84,4.19a9.73,9.73,0,0,1-5.09,1.54,2.64,2.64,0,0,1-2.48-1.93,8.5,8.5,0,0,1-.61-3.36A10.06,10.06,0,0,1,308,202,5,5,0,0,1,312.42,199.27Zm-2.64,7.93c0,.07,0,.11,0,.14l-.23.38a1.35,1.35,0,0,0-.22.66,1.57,1.57,0,0,0,.5,1l.69.36a2.7,2.7,0,0,0,.95.19l.79-.07c.68,0,1.34-.65,2-1.78a6,6,0,0,0,.88-2.66,4.12,4.12,0,0,0-.7-2.38,2.38,2.38,0,0,0-2.05-1.24l-.33,0c-.71,0-1.26.55-1.65,1.64A12,12,0,0,0,309.78,207.2Z" transform="translate(-65.07 -69.31)"/><path class="cls-1" d="M329.87,199.9l.44,2.55-.13,4.19a7.82,7.82,0,0,1-1.63,4.05,4.76,4.76,0,0,1-3.84,1.8,4.25,4.25,0,0,1-3.94-2,13.49,13.49,0,0,1-1.29-4.55l-.35-5.84a.59.59,0,0,1,.36-.57l.32-.12.46-.12.63.15a1.09,1.09,0,0,1,.51.37l-.08,1.76-.07,2.32a13.36,13.36,0,0,0,.55,4.69,4.29,4.29,0,0,0,.59,1.15,2.3,2.3,0,0,0,2,1,2.47,2.47,0,0,0,1.71-.56,7.35,7.35,0,0,0,1.13-1.52A8.75,8.75,0,0,0,328.3,204a13.77,13.77,0,0,0-.27-2.77,10.26,10.26,0,0,0-.26-1.09l.21-.42a.72.72,0,0,1,.52-.19l.54-.05a.81.81,0,0,1,.56.13Z" transform="translate(-65.07 -69.31)"/><path class="cls-1" d="M336.11,199.27c.33.06.56.37.68.93a4.12,4.12,0,0,0,.26,1l.53.14.86.06,1-.05.81-.11.27.34a1,1,0,0,1,.15.6.78.78,0,0,1-.13.43l-.22.3h-.84l-.53-.07-1.35-.18a.85.85,0,0,0-.35.06c-.09,0-.17.19-.23.45a29.8,29.8,0,0,0-.1,3.58v5.44l-1,.33-.83-.31-.17-2.09-.05-2.06c0-.4,0-1.35.09-2.86l.08-1.93a2.24,2.24,0,0,0-.05-.58.86.86,0,0,0-.73-.43l-.56.08-.66.07a2.07,2.07,0,0,1-1.17-.36l-.2-.28s0-.14-.08-.32a.48.48,0,0,1,.14-.39l.27-.24c.32,0,.8,0,1.44.11s1.13.11,1.45.11c.07,0,.1,0,.11-.12l0-.23v-.23l0-.31a.92.92,0,0,1,.19-.33q.06-.12.39-.21A1,1,0,0,0,336.11,199.27Z" transform="translate(-65.07 -69.31)"/><path class="cls-1" d="M348.05,199.52l.48-.16a.59.59,0,0,0,.23,0l.32,0,.28,0c.26.05.41.31.43.8a2.25,2.25,0,0,1,0,.51s-.1.36-.3,1a2.6,2.6,0,0,1-.24.52l-.35,1.32-.58,2.71a10.43,10.43,0,0,0-.25,2.26,1.5,1.5,0,0,0,.92,1.45,5.74,5.74,0,0,0,2.37.43,14.37,14.37,0,0,0,2.75-.26l.65-.13.25.23a1,1,0,0,1,.16.46.71.71,0,0,1-.1.33l-.23.33a15,15,0,0,1-6.38,1.24H348a4.93,4.93,0,0,1-1.38-.13.85.85,0,0,1-.55-.65l.14-4.77a17.48,17.48,0,0,1,.29-2c.25-1.39.48-2.5.71-3.32A6.56,6.56,0,0,1,348.05,199.52Z" transform="translate(-65.07 -69.31)"/><path class="cls-1" d="M361.57,199.27c1.3,0,2.5.75,3.61,2.26a8.75,8.75,0,0,1,1.67,5.23c0,1.63-.93,3-2.84,4.19a9.73,9.73,0,0,1-5.09,1.54,2.63,2.63,0,0,1-2.47-1.93,8.5,8.5,0,0,1-.62-3.36,10.07,10.07,0,0,1,1.36-5.23A5,5,0,0,1,361.57,199.27Zm-2.65,7.93,0,.14s-.09.15-.24.38a1.33,1.33,0,0,0-.21.66,1.56,1.56,0,0,0,.49,1l.7.36a2.63,2.63,0,0,0,.94.19l.79-.07c.69,0,1.35-.65,2-1.78a5.71,5.71,0,0,0,.88-2.66,4.19,4.19,0,0,0-.69-2.38,2.39,2.39,0,0,0-2-1.24l-.33,0c-.72,0-1.27.55-1.65,1.64A12,12,0,0,0,358.92,207.2Z" transform="translate(-65.07 -69.31)"/><path class="cls-1" d="M379,199.9l.45,2.55-.13,4.19a7.82,7.82,0,0,1-1.64,4.05,4.74,4.74,0,0,1-3.83,1.8,4.25,4.25,0,0,1-3.95-2,13.49,13.49,0,0,1-1.29-4.55l-.35-5.84a.58.58,0,0,1,.37-.57l.31-.12.46-.12.63.15a1.09,1.09,0,0,1,.51.37l-.08,1.76-.06,2.32a13.15,13.15,0,0,0,.54,4.69,4.29,4.29,0,0,0,.59,1.15,2.31,2.31,0,0,0,2,1,2.48,2.48,0,0,0,1.72-.56,7.42,7.42,0,0,0,1.12-1.52,8.65,8.65,0,0,0,1.09-4.58,14.55,14.55,0,0,0-.26-2.77c-.08-.39-.17-.75-.27-1.09l.22-.42a.71.71,0,0,1,.51-.19l.55-.05a.83.83,0,0,1,.56.13Z" transform="translate(-65.07 -69.31)"/><path class="cls-1" d="M381.61,199.27c.61.14,2,.35,4.13.63a15.91,15.91,0,0,1,4.29,1,3.57,3.57,0,0,1,2.08,3.47,8.35,8.35,0,0,1-.48,3.09,5,5,0,0,1-2,2.35q-1.06.67-5,2.69h-3.05l-.22-1.72a14.77,14.77,0,0,1-.1-1.6c0-.36,0-.9-.05-1.61s-.05-1.25-.05-1.61c0-.55,0-1,0-1.26l.08-2.13a16.19,16.19,0,0,1,.1-1.65C381.43,200.56,381.51,200,381.61,199.27Zm1.91,2.22c0,.37,0,.91-.06,1.6s-.09,1.27-.09,1.6q0,1-.15,3.09s0,.31,0,.83c0,.19,0,.42,0,.71a9.75,9.75,0,0,0,.16,1.6l2.25-.46,3.14-2.17c.46-.4.88-1.71,1.27-3.93a1.47,1.47,0,0,0-.92-1.3,8.4,8.4,0,0,0-2-.65,9.43,9.43,0,0,1-1.81-.56Z" transform="translate(-65.07 -69.31)"/><path class="cls-1" d="M401.92,203.68c.55,0,1,.5,1.49,1.51a14.59,14.59,0,0,1,1,2.66l.85,3.94-.08.28a.66.66,0,0,1-.15.28.57.57,0,0,1-.21.12l-.19,0-.26,0-.23-.07v-.5l0-.49a2.13,2.13,0,0,0-.2-1.11A1,1,0,0,0,403,210a7.72,7.72,0,0,0-2.39.2,1.48,1.48,0,0,0-.74.92,3.06,3.06,0,0,1-.94,1.28l-.22.06-.24,0a.3.3,0,0,1-.26-.11,1,1,0,0,1,0-.27,3.67,3.67,0,0,1,.23-1.28,30,30,0,0,0,1-3.23c.14-.53.28-1.06.41-1.59a4.93,4.93,0,0,1,.74-1.56A1.73,1.73,0,0,1,401.92,203.68Zm-1.35,4.64.45-.07.28,0,.72.05a1.29,1.29,0,0,0,.52-.1,3.22,3.22,0,0,0,.75-.41,7.46,7.46,0,0,0-.52-1.72c-.27-.66-.48-1-.61-1h-.23c-.47,0-.75.44-.85,1.33A5.53,5.53,0,0,1,400.57,208.32Z" transform="translate(-65.07 -69.31)"/><path class="cls-1" d="M414.16,204.52,414,207c-.09.61-.15,1-.16,1.16,0,.42-.07.77-.07,1.07a7.77,7.77,0,0,1-.33,2.26.79.79,0,0,1-.76.67,2,2,0,0,1-1-.39L407.93,207a.37.37,0,0,0-.14-.08c-.14,0-.24.3-.3.91a10.28,10.28,0,0,0-.06,1.1,8,8,0,0,0,.37,2.85l-.07.23a1.33,1.33,0,0,1-.11.24.47.47,0,0,1-.46.23.85.85,0,0,1-.57-.25l-.26-.3-.5-2.36a5.33,5.33,0,0,1-.11-1,4.84,4.84,0,0,1,.56-2.36c.37-.68.82-1,1.34-1,.34,0,.91.45,1.7,1.38l1.44,1.84c.76,1,1.21,1.5,1.34,1.51s.07,0,.09-.15c0-.67,0-1.3,0-1.9l-.05-1.77a4.65,4.65,0,0,1,.22-1.78l.38-.4a.66.66,0,0,1,.46-.21.68.68,0,0,1,.56.28Z" transform="translate(-65.07 -69.31)"/><path class="cls-1" d="M415.66,203.68c.41.09,1.33.23,2.75.42a10.08,10.08,0,0,1,2.86.66,2.37,2.37,0,0,1,1.39,2.31,5.64,5.64,0,0,1-.32,2.06A3.42,3.42,0,0,1,421,210.7c-.47.3-1.57.89-3.31,1.79h-2l-.15-1.15a9.69,9.69,0,0,1-.06-1.06c0-.25,0-.6,0-1.08s0-.83,0-1.07,0-.65,0-.84l.06-1.42a10.86,10.86,0,0,1,.06-1.1C415.54,204.54,415.59,204.17,415.66,203.68Zm1.27,1.48c0,.25,0,.6,0,1.06s-.05.85-.05,1.07c0,.46-.06,1.14-.1,2.06,0,0,0,.21,0,.55,0,.13,0,.28,0,.48a6.47,6.47,0,0,0,.11,1.06l1.5-.3,2.09-1.45a5.53,5.53,0,0,0,.85-2.62,1,1,0,0,0-.62-.87,5.61,5.61,0,0,0-1.31-.43,6.79,6.79,0,0,1-1.2-.37Z" transform="translate(-65.07 -69.31)"/><path class="cls-1" d="M432.93,199.27a5.82,5.82,0,0,1,2.51.81c1.14.6,1.7,1.15,1.7,1.66a.47.47,0,0,1-.11.28,11,11,0,0,0-2.84-.5,3.69,3.69,0,0,0-.73,0l-.3.05a.3.3,0,0,0-.16.08c-1.82,0-3,.28-3.47.85s-.7,1.7-.7,3.56A3.4,3.4,0,0,0,431,209.3a17.23,17.23,0,0,0,4,1.11c1.78.33,2.68.66,2.69,1l-.44.88-1.57.21a13.19,13.19,0,0,1-4.65-.74,5.54,5.54,0,0,1-3.4-3.06,8.24,8.24,0,0,1-.61-3,6.35,6.35,0,0,1,1.67-4.43A5.49,5.49,0,0,1,432.93,199.27Z" transform="translate(-65.07 -69.31)"/><path class="cls-1" d="M448,199.52v3.85l.1,5.39a6.79,6.79,0,0,1-.13,1.93,1.24,1.24,0,0,1-.73.66c-.33,0-.59-.31-.77-.94a5,5,0,0,1-.17-1.31,5.06,5.06,0,0,1,.23-1.61,18.82,18.82,0,0,0-2.39.11c-.4,0-1,.12-1.8.23a11.89,11.89,0,0,1-2.05-.26l.05,1.17a7.08,7.08,0,0,1-.06,1q0,.3-.09.81l-.12,1.85-1.25.07-.12-2.49.12-2.43a4.48,4.48,0,0,0-1.06.1l-.51.23-.27-.2-.61-.5a2.56,2.56,0,0,1,1.19-1.32l1-.26a4.37,4.37,0,0,0,.22-1.29l.06-2.15v-1.7q0-.66.81-.69a.81.81,0,0,1,.48.1.67.67,0,0,1,.3.41l-.16.46-.05.43a1.88,1.88,0,0,0,.08.61l.08.5-.05.25-.18,3H442a4.89,4.89,0,0,0,1.11-.08l1.91-.2a1.89,1.89,0,0,1,.53.08l.94.31a20.89,20.89,0,0,1,.18-2.38l.2-1.62v-.52a4,4,0,0,0-.08-.41,2.08,2.08,0,0,0-.05-.4,3.67,3.67,0,0,0-.2-.58l-.05-.2.8-.25Z" transform="translate(-65.07 -69.31)"/><path class="cls-1" d="M455.64,199.27c1.3,0,2.51.75,3.61,2.26a8.69,8.69,0,0,1,1.68,5.23q0,2.44-2.84,4.19a9.73,9.73,0,0,1-5.09,1.54,2.64,2.64,0,0,1-2.48-1.93,8.68,8.68,0,0,1-.61-3.36,10,10,0,0,1,1.36-5.23A4.93,4.93,0,0,1,455.64,199.27ZM453,207.2c0,.07,0,.11-.05.14l-.23.38a1.33,1.33,0,0,0-.21.66,1.56,1.56,0,0,0,.49,1l.7.36a2.58,2.58,0,0,0,.94.19l.79-.07c.68,0,1.34-.65,2-1.78a5.83,5.83,0,0,0,.88-2.66,4.12,4.12,0,0,0-.7-2.38,2.38,2.38,0,0,0-2-1.24l-.33,0c-.71,0-1.26.55-1.65,1.64A12,12,0,0,0,453,207.2Z" transform="translate(-65.07 -69.31)"/><path class="cls-1" d="M467.27,199.27a2.63,2.63,0,0,1,1.92,1.12,3.44,3.44,0,0,1,1,2.12,3.22,3.22,0,0,1-1.39,2.71l-2.56,1.95,3.85,2.76a2.22,2.22,0,0,1,.46,1.21,1.45,1.45,0,0,1-1.07.76,1.88,1.88,0,0,1-1.26-.65l-1.85-1.73a16,16,0,0,0-2.1-1.69l.17,4.21-1.06.45-.74-1v-6.82a5.83,5.83,0,0,1,1.22-3.73A4.19,4.19,0,0,1,467.27,199.27Zm-3.14,4.88.1,1.57a4.06,4.06,0,0,0,2.45-.86,5.77,5.77,0,0,0,1.67-2,3.49,3.49,0,0,0-.43-1c-.27-.45-.53-.67-.79-.67a3.14,3.14,0,0,0-1.94.91A2.54,2.54,0,0,0,464.13,204.15Z" transform="translate(-65.07 -69.31)"/><path class="cls-1" d="M475.85,199.27c.33.06.55.37.67.93a4.41,4.41,0,0,0,.27,1l.53.14.86.06,1-.05.81-.11.26.34a1,1,0,0,1,.15.6.71.71,0,0,1-.13.43l-.21.3h-.85l-.52-.07-1.36-.18a.88.88,0,0,0-.35.06c-.08,0-.16.19-.23.45a32.45,32.45,0,0,0-.1,3.58v5.44l-1,.33-.84-.31-.16-2.09-.05-2.06c0-.4,0-1.35.08-2.86l.08-1.93a1.87,1.87,0,0,0,0-.58.84.84,0,0,0-.72-.43l-.56.08-.67.07a2.09,2.09,0,0,1-1.17-.36l-.2-.28s0-.14-.08-.32a.48.48,0,0,1,.15-.39l.26-.24c.32,0,.81,0,1.45.11s1.13.11,1.45.11c.06,0,.1,0,.11-.12l0-.23,0-.23.05-.31a.77.77,0,0,1,.18-.33.68.68,0,0,1,.4-.21A1.09,1.09,0,0,0,475.85,199.27Z" transform="translate(-65.07 -69.31)"/><path class="cls-1" d="M483.05,199.52l.48-.16a.62.62,0,0,0,.23,0l.31,0,.28,0c.27.05.41.31.43.8a2.25,2.25,0,0,1,0,.51s-.1.36-.3,1a2.08,2.08,0,0,1-.23.52l-.35,1.32-.59,2.71a11.09,11.09,0,0,0-.25,2.26,1.5,1.5,0,0,0,.93,1.45,5.67,5.67,0,0,0,2.37.43,14.44,14.44,0,0,0,2.75-.26c.2,0,.41-.08.64-.13l.25.23a.94.94,0,0,1,.17.46.86.86,0,0,1-.1.33l-.23.33a15,15,0,0,1-6.38,1.24H483a4.93,4.93,0,0,1-1.38-.13.86.86,0,0,1-.55-.65l.15-4.77a16.65,16.65,0,0,1,.28-2c.25-1.39.49-2.5.71-3.32A6.51,6.51,0,0,1,483.05,199.52Z" transform="translate(-65.07 -69.31)"/><path class="cls-1" d="M496.33,199.11q1.92,0,1.95,1l-.41.89a12.5,12.5,0,0,1-3.16.76,1.45,1.45,0,0,0-1.22.75,3.06,3.06,0,0,0-.21,1.45c.05,1.75.08,2.3.08,1.65a24.34,24.34,0,0,1,4.43-1c.56,0,.84.19.84.61a3.05,3.05,0,0,1-.27,1l-3,.83c-1.49.43-2.25.88-2.26,1.35a3,3,0,0,0,.33,1.57,1.39,1.39,0,0,0,1.31.75,15,15,0,0,0,2.27-.26,16.47,16.47,0,0,1,2.24-.27c1,0,1.57.28,1.6.92l.06.12s.05.1.05.2a.38.38,0,0,1-.13.26,1.63,1.63,0,0,1-.77.3l-2.38.44-1.37.17-.76.07H495l-1.89-.07a2.33,2.33,0,0,1-1.1-.21,2.09,2.09,0,0,1-.22-.2l-.18-.22-.26-.43V209c0-.82-.11-1.24-.32-1.25l-.42.13a2.91,2.91,0,0,1-.61.11,2.42,2.42,0,0,1-1.46-.52v-1.23c.22-.05.33-.17.34-.34s.73-.27,2.17-.29c0-.2,0-.83-.1-1.88l-.1-1.57a2.41,2.41,0,0,1,1.06-2.31,5.37,5.37,0,0,1,2.61-.64C495,199.14,495.63,199.12,496.33,199.11Z" transform="translate(-65.07 -69.31)"/></svg>